<svg xmlns="http://www.w3.org/2000/svg" width="19.065" height="28.34" viewBox="0 0 19.065 28.34">
  <path id="scroll" d="M20.532,32.69A9.392,9.392,0,0,1,11,23.158V13.882A9.392,9.392,0,0,1,20.532,4.35a9.392,9.392,0,0,1,9.532,9.532v9.276a9.392,9.392,0,0,1-9.532,9.532Zm.843-18.808h7.039a7.752,7.752,0,0,0-2-5.279,7.428,7.428,0,0,0-5.041-2.566Zm-8.726,0h7.039V6.036A7.428,7.428,0,0,0,14.648,8.6a7.752,7.752,0,0,0-2,5.279ZM20.532,31.04a7.886,7.886,0,0,0,7.882-7.882V15.532H12.65v7.626a7.886,7.886,0,0,0,7.882,7.882ZM20.532,15.532ZM21.376,13.882ZM19.689,13.882ZM20.532,15.532Z" transform="translate(-11 -4.35)" fill="#fff"/>
</svg>
