<svg xmlns="http://www.w3.org/2000/svg" width="39.9" height="39.15" viewBox="0 0 39.9 39.15">
  <path id="support_ico3_w" d="M31.85,23.9a1.536,1.536,0,0,1-.525-.1,1.854,1.854,0,0,1-.525-.3,68.133,68.133,0,0,1-7.125-7.075Q20.8,13.05,20.8,10.2a5.549,5.549,0,0,1,5.6-5.6,5.739,5.739,0,0,1,2.85.825A9.032,9.032,0,0,1,31.9,7.8a8.486,8.486,0,0,1,2.6-2.375A5.739,5.739,0,0,1,37.35,4.6a5.549,5.549,0,0,1,5.6,5.6q0,2.85-2.875,6.225A68.134,68.134,0,0,1,32.95,23.5a1.255,1.255,0,0,1-.5.3A1.887,1.887,0,0,1,31.85,23.9Zm.05-2.6A80.127,80.127,0,0,0,38,15.35q2.7-2.95,2.7-5.15a3.168,3.168,0,0,0-3.3-3.3,4.307,4.307,0,0,0-1.85.45,5.875,5.875,0,0,0-2,1.85L31.9,11.3,30.2,9.2a6.4,6.4,0,0,0-2.025-1.85A4.056,4.056,0,0,0,26.4,6.9a3.279,3.279,0,0,0-2.425.925A3.215,3.215,0,0,0,23.05,10.2q0,2.2,2.7,5.15A75.379,75.379,0,0,0,31.9,21.3ZM27.5,41.45a.444.444,0,0,0,.2.05.2.2,0,0,0,.15-.05L40,37.7a3.827,3.827,0,0,0-.675-1.25,1.327,1.327,0,0,0-1.025-.6H27.15q-.35,0-1.275-.075a6.453,6.453,0,0,1-1.825-.425l-3.45-1.1a1.232,1.232,0,0,1-.7-.6,1.182,1.182,0,0,1-.1-.95,1.254,1.254,0,0,1,.625-.65,1.118,1.118,0,0,1,.925,0l4.45,1.5a3.458,3.458,0,0,0,1.15.075q.95-.025,2.5-.025h.45a3.434,3.434,0,0,0-.25-1.375,1.53,1.53,0,0,0-.85-.825l-12-4.55H12.15V36.9Zm-.45,2.2L12.15,39.3a2.837,2.837,0,0,1-1.1,2.025,3.019,3.019,0,0,1-1.8.725H5.9a2.737,2.737,0,0,1-2-.85,2.794,2.794,0,0,1-.85-2.05V27.45A2.794,2.794,0,0,1,3.9,25.4a2.737,2.737,0,0,1,2-.85H16.5a2.544,2.544,0,0,1,.5.05,2.85,2.85,0,0,1,.5.15l12.05,4.5a4.252,4.252,0,0,1,1.95,1.4,4.646,4.646,0,0,1,.8,2.95h6.3a3.7,3.7,0,0,1,2.95,1.275,5.063,5.063,0,0,1,1.1,3.425,1.447,1.447,0,0,1-.225.8,1.547,1.547,0,0,1-.625.55l-13.1,4a3.453,3.453,0,0,1-1.65,0ZM31.9,14.05ZM5.3,39.15a.6.6,0,0,0,.6.6H9.2a.631.631,0,0,0,.425-.15.56.56,0,0,0,.175-.45V26.85H5.9a.6.6,0,0,0-.6.6Z" transform="translate(-3.05 -4.6)" fill="#fff"/>
</svg>
