<svg xmlns="http://www.w3.org/2000/svg" width="40" height="40.326" viewBox="0 0 40 40.326">
  <path id="support_ico4" d="M6.25,48a2.159,2.159,0,0,1-1.575-.675A2.215,2.215,0,0,1,4,45.7a2.134,2.134,0,0,1,.675-1.6A2.259,2.259,0,0,1,6.3,43.45H41.75a2.2,2.2,0,0,1,1.575.65A2.134,2.134,0,0,1,44,45.7,2.3,2.3,0,0,1,41.7,48ZM10.5,37.5a1.316,1.316,0,0,1-1-.425,1.442,1.442,0,0,1-.4-1.025v-3.5a1.338,1.338,0,0,1,.1-.5,1.989,1.989,0,0,1,.3-.5l17.85-17.8L32.8,19.2,15,37.05a1.073,1.073,0,0,1-.475.35,1.536,1.536,0,0,1-.525.1Zm.85-2.3h2.1l16.1-16.05L27.45,17,11.35,33.05ZM34.8,17.15,29.35,11.7,32.7,8.3a1.771,1.771,0,0,1,1.275-.625A1.84,1.84,0,0,1,35.35,8.3l2.7,2.7a1.936,1.936,0,0,1,.65,1.375,2.1,2.1,0,0,1-.55,1.375ZM11.35,35.2Z" transform="translate(-4 -7.674)" fill="#3d3d3d"/>
</svg>
