<svg width="33" height="34" viewBox="0 0 33 34" fill="none" xmlns="http://www.w3.org/2000/svg">
<path d="M9.72206 0.777615C7.98132 0.851689 6.79613 1.12947 5.7591 1.53687C4.70354 1.9628 3.79613 2.51836 2.88873 3.42576C1.98132 4.33317 1.42576 5.24058 1.01836 6.31465C0.610948 7.35169 0.351689 8.53687 0.259096 10.2776C0.185022 12.0184 0.166504 12.5739 0.166504 16.9998C0.185022 21.4258 0.203541 21.9813 0.277615 23.7221C0.351689 25.4628 0.629467 26.648 1.03687 27.6665C1.4628 28.7406 2.01836 29.648 2.92576 30.5554C3.83317 31.4628 4.74058 32.0184 5.81465 32.4258C6.85169 32.8332 8.03687 33.0924 9.77761 33.185C11.5184 33.2591 12.0739 33.2776 16.4998 33.2776C20.9258 33.2591 21.4813 33.2591 23.2221 33.1665C24.9628 33.0924 26.148 32.8147 27.185 32.4072C28.2591 31.9813 29.1665 31.4258 30.0739 30.5184C30.9813 29.6109 31.5369 28.7035 31.9443 27.6295C32.3517 26.5924 32.6109 25.4072 32.7035 23.6665C32.7776 21.9258 32.7961 21.3702 32.7961 16.9443C32.7776 12.5184 32.7776 11.9628 32.685 10.2221C32.6109 8.48132 32.3332 7.29613 31.9258 6.2591C31.4998 5.18502 30.9443 4.27762 30.0369 3.37021C29.1295 2.4628 28.2221 1.90724 27.148 1.49984C26.1109 1.09243 24.9258 0.833171 23.185 0.740578C21.4258 0.685022 20.8702 0.666504 16.4443 0.666504C12.0184 0.685022 11.4628 0.703541 9.72206 0.777615ZM9.90724 30.2406C8.31465 30.1665 7.4628 29.9072 6.88873 29.685C6.12947 29.3887 5.59243 29.0369 5.01836 28.4628C4.44428 27.8887 4.09243 27.3517 3.79613 26.5924C3.57391 26.0184 3.29613 25.148 3.22206 23.5739C3.14799 21.8517 3.12947 21.3332 3.11095 16.9813C3.11095 12.6295 3.11095 12.1109 3.18502 10.3887C3.2591 8.79613 3.51836 7.94428 3.74058 7.37021C4.03687 6.61095 4.38873 6.07391 4.9628 5.49984C5.53687 4.92576 6.07391 4.57391 6.83317 4.27762C7.40724 4.05539 8.27761 3.79613 9.85169 3.70354C11.5739 3.62947 12.0924 3.61095 16.4258 3.59243C20.7776 3.59243 21.2961 3.59243 23.0184 3.6665C24.6109 3.74058 25.4628 3.99984 26.0369 4.22206C26.7961 4.51836 27.3517 4.87021 27.9072 5.44428C28.4813 6.01836 28.8332 6.55539 29.1295 7.31465C29.3517 7.88873 29.6109 8.7591 29.7035 10.3332C29.7776 12.0554 29.7961 12.5739 29.8146 16.9072C29.8332 21.2591 29.8146 21.7776 29.7406 23.4998C29.6665 25.0924 29.4072 25.9443 29.185 26.5369C28.8887 27.2961 28.5369 27.8332 27.9628 28.4072C27.3887 28.9813 26.8517 29.3332 26.0924 29.6295C25.5184 29.8517 24.648 30.111 23.0739 30.2035C21.3517 30.2776 20.8332 30.2961 16.4813 30.3147C12.148 30.3332 11.6295 30.3147 9.90724 30.2406ZM23.2035 8.2591C23.2035 9.33317 24.0924 10.2035 25.1665 10.2035C26.2406 10.2035 27.1295 9.31465 27.1109 8.24058C27.1109 7.1665 26.2221 6.29613 25.148 6.29613C24.0739 6.29613 23.2035 7.18502 23.2035 8.2591ZM8.11095 16.9813C8.11095 21.6109 11.8702 25.3332 16.4998 25.3332C21.1109 25.3147 24.8517 21.5739 24.8517 16.9443C24.8332 12.3332 21.0924 8.57391 16.4628 8.59243C11.8332 8.61095 8.09243 12.3702 8.11095 16.9813ZM11.0369 16.9813C11.0369 13.9813 13.4628 11.5554 16.4628 11.5369C19.4628 11.5369 21.9072 13.9628 21.9072 16.9628C21.9072 19.9628 19.4813 22.4072 16.4813 22.4072C13.4813 22.4072 11.0554 19.9813 11.0369 16.9813Z" fill="white" fill-opacity="0.8"/>
</svg>
