<svg width="190" height="32" viewBox="0 0 190 32" fill="none" xmlns="http://www.w3.org/2000/svg">
<path d="M19.8027 8.58313C19.8474 7.91933 19.6431 7.31297 19.3495 6.73852C19.1389 6.31726 18.8389 5.95344 18.4751 5.65346C18.2198 5.44282 17.9262 5.27687 17.6262 5.13007C17.2113 4.93221 16.7709 4.86838 16.3177 4.83008C15.8326 4.7854 15.3539 4.84923 14.9007 5.00242C14.5433 5.11731 14.205 5.28326 13.905 5.5258C13.7327 5.66622 13.5604 5.81302 13.4008 5.96621C13.3114 6.05557 13.2221 6.15131 13.1455 6.25343C12.9349 6.54704 12.7434 6.85979 12.5838 7.18531C12.3859 7.58743 12.3093 8.01507 12.1881 8.43633C12.1625 8.52569 12.1242 8.60867 12.0859 8.68526C11.9455 8.9661 11.6838 8.88951 11.5243 8.73632C11.486 8.69802 11.4477 8.65334 11.4158 8.61505C11.2817 8.43633 11.103 8.42356 10.9051 8.48101C10.752 8.52569 10.6052 8.57675 10.4584 8.63419C10.1456 8.76185 9.99241 8.66611 9.83284 8.44271C9.76901 8.34697 9.70518 8.25123 9.62859 8.16187C9.48817 8.0023 9.26478 7.91933 9.035 8.0406C8.90096 8.11081 8.73501 8.13634 8.58182 8.16187C8.34566 8.20017 8.09673 8.21932 7.86057 8.25761C7.68186 8.28314 7.50952 8.25761 7.34995 8.17464C7.06273 8.02783 7.05635 7.68317 7.31804 7.49807C7.65633 7.26191 8.02653 7.09595 8.38396 6.90447C8.79884 6.68746 9.18818 6.44492 9.46264 6.05557C9.54562 5.94068 9.60306 5.81302 9.66689 5.69175C9.75625 5.5258 9.83284 5.35347 9.92858 5.1939C10.0818 4.95135 10.2413 4.71519 10.4073 4.48541C10.6052 4.21096 10.8477 3.96841 11.1094 3.74502C11.3966 3.49609 11.7221 3.28546 12.0349 3.06845C12.4625 2.77484 12.9412 2.57697 13.4136 2.36634C13.6753 2.25146 13.9433 2.15571 14.2114 2.05359C14.5242 1.93232 14.7348 1.70892 14.8752 1.40893C14.939 1.2749 15.0348 1.14724 15.105 1.01959C15.2326 0.783425 15.3986 0.572794 15.5582 0.362164C15.6603 0.228126 15.7816 0.113237 15.9284 0.0494095C16.1581 -0.0463316 16.3305 -0.014418 16.3879 0.247274C16.4517 0.540881 16.5283 0.828104 16.5602 1.12171C16.5985 1.43446 16.7836 1.61318 17.0262 1.7536C17.1155 1.80466 17.2177 1.83658 17.3134 1.86211C17.5879 1.9387 17.8623 2.00891 18.1304 2.11742C18.4942 2.2706 18.858 2.41102 19.2091 2.60251C19.6942 2.8642 20.1473 3.16419 20.5814 3.50247C20.958 3.79608 21.2962 4.12798 21.609 4.48541C22.0175 4.95774 22.3622 5.48112 22.6175 6.06195C22.8728 6.6364 23.0387 7.22999 23.1089 7.84912C23.1472 8.21932 23.1664 8.58952 23.1472 8.95971C23.1217 9.43204 23.0387 9.89798 22.9175 10.3575C22.8026 10.7788 22.6302 11.1745 22.4515 11.5639C22.2983 11.8894 22.0877 12.1958 21.8835 12.4958C21.6728 12.7957 21.4494 13.083 21.2133 13.3574C21.0282 13.5744 20.8175 13.7659 20.6133 13.9638C20.4154 14.1553 20.2176 14.3467 20.0069 14.5127C19.7197 14.7425 19.407 14.9467 19.1197 15.1765C18.9729 15.2914 18.8325 15.419 18.7112 15.5659C18.5389 15.7701 18.5389 16.0126 18.6474 16.2488C18.8325 16.6701 19.0623 17.0658 19.324 17.436C19.5155 17.7041 19.7389 17.9594 19.975 18.1955C20.275 18.5019 20.6133 18.7572 20.9835 18.9742C21.4558 19.2551 21.9664 19.4019 22.5026 19.5104C23.0643 19.6189 23.6004 19.5359 24.1366 19.3891C24.5642 19.2742 24.9408 19.0636 25.2791 18.7955C25.7642 18.4189 26.1599 17.9594 26.4407 17.4105C26.5875 17.1232 26.7088 16.8296 26.7982 16.5169C26.9067 16.1403 26.945 15.7573 26.945 15.3616C26.945 14.9786 26.8811 14.6148 26.7918 14.2446C26.6833 13.8106 26.4726 13.4276 26.2237 13.0702C26.045 12.8149 25.8216 12.5851 25.5854 12.3745C25.3684 12.1766 25.1131 12.0362 24.8642 11.883C24.711 11.7873 24.5323 11.7298 24.36 11.6724C24.2132 11.6213 24.06 11.5766 23.9004 11.5447C23.7408 11.5128 23.6515 11.4171 23.6196 11.2703C23.5876 11.1298 23.6451 11.0213 23.7536 10.932C23.9387 10.7916 23.9451 10.6065 23.8813 10.4086C23.8685 10.3767 23.8493 10.3448 23.843 10.3065C23.8174 10.2171 23.7919 10.1278 23.7791 10.0384C23.7536 9.82777 23.7791 9.63629 23.9515 9.47034C24.0408 9.38098 24.0983 9.24694 24.1557 9.12567C24.2259 8.97248 24.2387 8.80653 24.1876 8.64696C24.1812 8.61505 24.1685 8.58952 24.1621 8.5576C24.1046 8.35336 24.0281 8.16187 23.9898 7.94486C23.9451 7.65764 23.8749 7.3768 23.8876 7.08319C23.8876 7.03213 23.8685 6.97468 23.8685 6.92362C23.8621 6.84064 23.8621 6.76405 23.9451 6.71299C24.0217 6.66831 24.111 6.67469 24.194 6.75767C24.3089 6.86618 24.4302 6.97468 24.5195 7.10234C24.7365 7.40233 24.9344 7.71508 25.145 8.02783C25.2025 8.11081 25.2727 8.19379 25.3365 8.27038C25.3557 8.29591 25.3812 8.30868 25.4003 8.33421C25.6174 8.67887 25.962 8.86397 26.2812 9.08099C26.6322 9.32353 26.9769 9.57246 27.3215 9.82139C27.7173 10.1086 28.0875 10.4341 28.4258 10.7916C28.8534 11.2447 29.2236 11.7362 29.5044 12.2979C29.7278 12.7447 29.9321 13.1979 30.098 13.6702C30.1491 13.8234 30.2257 13.9702 30.2895 14.1234C30.4108 14.3978 30.6214 14.5638 30.8831 14.6914C31.1193 14.7999 31.3491 14.9212 31.5852 15.0425C31.649 15.0744 31.7065 15.1254 31.7576 15.1765C31.7767 15.1957 31.8022 15.2212 31.8086 15.2467C31.8916 15.502 31.7767 15.7127 31.5214 15.7892C31.2916 15.8531 31.0682 15.9297 30.8321 15.9743C30.5831 16.0254 30.4299 16.185 30.3406 16.3956C30.2065 16.7211 30.1044 17.0594 29.9895 17.3913C29.9129 17.6083 29.8172 17.819 29.7406 18.036C29.613 18.4062 29.4151 18.7381 29.2236 19.0764C29.013 19.4466 28.7577 19.7912 28.4832 20.1167C27.8768 20.8316 27.1492 21.3933 26.3195 21.8209C26.1727 21.8975 26.0195 21.955 25.8663 22.0124C25.6429 22.0954 25.4259 22.1848 25.1961 22.2486C24.7493 22.3699 24.2897 22.4337 23.8302 22.472C23.6259 22.4847 23.4153 22.4975 23.2111 22.4975C22.7451 22.4975 22.2919 22.4401 21.8324 22.3571C21.2324 22.255 20.6707 22.0443 20.1282 21.7763C19.8218 21.6231 19.5091 21.4571 19.2219 21.272C18.9793 21.1125 18.7623 20.9146 18.5389 20.7295C18.3219 20.5444 18.0985 20.3657 17.907 20.1614C17.6581 19.8997 17.4347 19.6189 17.2113 19.3381C17.0773 19.1721 16.9687 18.987 16.8347 18.8274C16.6624 18.6168 16.4773 18.4253 16.1964 18.3679C16.0177 18.336 15.8581 18.3679 15.7113 18.4572C15.6156 18.5147 15.5262 18.5721 15.4369 18.636C14.9709 18.9679 14.505 19.2998 14.0965 19.7019C13.6625 20.1231 13.2923 20.6018 13.0497 21.1635C12.8072 21.7252 12.6668 22.3124 12.6604 22.9315C12.654 23.3017 12.6668 23.6592 12.7689 24.0166C12.8646 24.3485 13.0178 24.6613 13.1838 24.9676C13.3242 25.2293 13.5221 25.4463 13.7199 25.657C14.0774 26.0399 14.5114 26.3272 15.0029 26.5059C15.6603 26.7484 16.3496 26.8442 17.0517 26.7037C17.4474 26.6271 17.8176 26.4803 18.1623 26.2633C18.5453 26.0208 18.8772 25.7272 19.1772 25.3889C19.407 25.1272 19.6048 24.84 19.7772 24.54C19.9942 24.1634 20.1793 23.7613 20.2878 23.3336C20.3133 23.2251 20.3452 23.123 20.3835 23.0209C20.4665 22.7847 20.7282 22.7337 20.8877 22.9251C20.9963 23.0528 21.0984 23.1932 21.1941 23.3336C21.3473 23.5507 21.5196 23.6017 21.7622 23.4741C21.8898 23.4102 22.0175 23.3464 22.1707 23.3464C22.3366 23.34 22.4643 23.3975 22.5792 23.506C22.6813 23.6017 22.777 23.7038 22.8728 23.806C22.9685 23.9145 23.077 23.9464 23.2174 23.9272C23.5302 23.8889 23.8047 23.7294 24.0983 23.6336C24.2961 23.5698 24.4876 23.4932 24.7046 23.506C24.7365 23.506 24.7685 23.506 24.794 23.5124C24.9663 23.5507 25.0174 23.6783 24.9025 23.806C24.7812 23.94 24.6408 24.0549 24.5004 24.1762C24.277 24.3677 24.0472 24.5591 23.8238 24.7506C23.76 24.8081 23.6898 24.8527 23.6323 24.9166C23.5366 25.0123 23.4408 25.1208 23.3451 25.2229C23.1345 25.4463 22.9621 25.7016 22.8026 25.9761C22.6558 26.225 22.477 26.4612 22.3047 26.6973C22.126 26.9399 21.9473 27.1761 21.7622 27.4058C21.4303 27.8016 21.0409 28.1462 20.6261 28.459C20.275 28.7207 19.8857 28.9249 19.5027 29.1228C19.4261 29.1611 19.3431 29.1866 19.2665 29.2122C18.8836 29.3398 18.4942 29.4611 18.1113 29.6015C17.7985 29.7164 17.5432 29.8951 17.4219 30.227C17.3006 30.5525 17.1155 30.8461 16.9177 31.1334C16.8347 31.261 16.7007 31.3631 16.5666 31.4525C16.4198 31.5546 16.2411 31.4972 16.1837 31.3248C16.1326 31.178 16.1007 31.0185 16.0815 30.8653C16.0624 30.6483 16.0241 30.444 15.922 30.2525C15.8262 30.0674 15.673 29.9398 15.5071 29.8249C15.2709 29.6653 14.9965 29.6015 14.722 29.5504C14.4603 29.5058 14.205 29.4355 13.9561 29.3207C13.7518 29.2249 13.5348 29.1547 13.3306 29.059C13.1136 28.9505 12.8966 28.8356 12.6923 28.7079C12.2264 28.4271 11.8179 28.076 11.4158 27.7058C11.2498 27.5526 11.1094 27.3612 10.9626 27.1888C10.8222 27.0229 10.6817 26.8569 10.5605 26.6782C10.3498 26.3654 10.1647 26.0399 9.99241 25.7016C9.82007 25.357 9.6988 24.9995 9.5903 24.6293C9.53285 24.4187 9.45626 24.2081 9.41796 23.9975C9.37328 23.7613 9.34775 23.5187 9.33499 23.2762C9.31584 22.9762 9.29669 22.6762 9.30945 22.3826C9.33499 21.9358 9.34137 21.4827 9.49456 21.0486C9.61583 20.7103 9.69242 20.3593 9.87114 20.0402C10.0626 19.6827 10.2669 19.3317 10.5222 19.0061C10.9371 18.47 11.4221 18.0041 11.9328 17.5573C12.1306 17.3849 12.3413 17.2254 12.5327 17.053C12.8327 16.785 13.1327 16.5169 13.4136 16.236C13.554 16.0956 13.6433 15.9233 13.6242 15.7127C13.6178 15.6552 13.6178 15.6041 13.6242 15.5467C13.6625 15.2595 13.5284 15.0361 13.3561 14.8318C13.1519 14.5829 12.9285 14.3467 12.737 14.0914C12.4306 13.6766 12.0604 13.3255 11.6775 13C11.403 12.7702 11.103 12.5787 10.7775 12.4128C10.1967 12.1192 9.57753 12.049 8.94564 12.0873C8.51161 12.1128 8.09673 12.2149 7.701 12.4064C7.24145 12.6234 6.84572 12.9106 6.50743 13.2808C6.1883 13.6319 5.93937 14.034 5.76703 14.4872C5.65215 14.8063 5.53726 15.1191 5.50534 15.451C5.46705 15.7637 5.4479 16.0765 5.46704 16.3956C5.49258 16.7211 5.50534 17.053 5.58193 17.3722C5.73512 18.0168 5.98405 18.604 6.47552 19.0764C6.64147 19.2359 6.82657 19.3572 7.01805 19.4785C7.38825 19.7146 7.80951 19.8104 8.22439 19.9253C8.2563 19.9316 8.28183 19.938 8.31375 19.9508C8.60097 20.0274 8.67118 20.2444 8.48608 20.4742C8.27545 20.7359 8.26907 20.8508 8.42864 21.1507C8.58182 21.4316 8.60735 21.7124 8.44778 22.006C8.39034 22.1082 8.33928 22.2103 8.2946 22.3188C8.18609 22.5741 8.23715 22.8166 8.3329 23.0592C8.38396 23.1868 8.40949 23.3273 8.4414 23.4613C8.46055 23.5315 8.46055 23.6081 8.49247 23.6719C8.6265 23.9783 8.6265 24.2974 8.63288 24.623C8.63288 24.674 8.60735 24.7634 8.57544 24.7761C8.51161 24.7953 8.42225 24.7953 8.37119 24.757C8.26269 24.674 8.15418 24.5719 8.08397 24.457C7.84142 24.0677 7.56697 23.7038 7.25421 23.3783C7.0372 23.1485 6.78827 22.9507 6.54573 22.7528C6.27127 22.5294 5.98405 22.3252 5.70959 22.1082C5.4096 21.872 5.10961 21.6295 4.82877 21.3741C4.57346 21.1444 4.3373 20.8891 4.10114 20.6337C3.71179 20.2189 3.40542 19.7465 3.14373 19.2423C3.05437 19.0764 2.97139 18.904 2.88842 18.7381C2.80544 18.5721 2.74162 18.3934 2.64587 18.2275C2.51184 17.9849 2.42886 17.7232 2.33312 17.4679C2.26929 17.2956 2.1927 17.1296 2.09696 16.9701C2.05866 16.8998 1.98207 16.8424 1.90548 16.8105C1.58634 16.6509 1.24805 16.5169 0.9353 16.3509C0.628928 16.1914 0.322557 16.0254 0.131075 15.7127C0.048099 15.5722 -0.0157289 15.4318 0.00341932 15.2659C0.00980206 15.1701 0.00341932 15.068 0.00341932 14.9723C0.00980206 14.8701 0.0480988 14.8255 0.150223 14.8255C0.226816 14.8255 0.316174 14.8191 0.386384 14.851C0.814028 15.0361 1.2672 15.0297 1.71399 15.0169C1.88633 15.0106 2.02675 14.9212 2.14164 14.7999C2.29482 14.634 2.3778 14.4361 2.44163 14.2255C2.50545 14.0085 2.56928 13.7914 2.66502 13.5872C2.84374 13.1851 3.0416 12.7957 3.3033 12.4447C3.46925 12.2213 3.62243 11.9851 3.80753 11.7809C3.99263 11.5639 4.21603 11.3852 4.40751 11.1745C4.58623 10.9767 4.79047 10.8235 5.00749 10.6703C5.20535 10.5299 5.40322 10.3895 5.60747 10.2554C5.9649 10.0256 6.36063 9.86606 6.75636 9.70011C7.10103 9.55969 7.46484 9.48948 7.82866 9.41927C8.07759 9.36821 8.3329 9.32353 8.58182 9.30438C9.07329 9.2597 9.56476 9.25332 10.0562 9.3363C10.5413 9.41927 11.0264 9.48948 11.4924 9.66182C12.0094 9.8533 12.5136 10.0639 12.9668 10.3703C13.2731 10.5809 13.5859 10.7788 13.8731 11.0086C14.1157 11.2001 14.3327 11.4235 14.5497 11.6405C14.8497 11.9405 15.1241 12.266 15.3731 12.617C15.4943 12.7894 15.622 12.9617 15.7496 13.1276C16.0432 13.517 16.6241 13.5553 16.9624 13.1915C17.1985 12.9362 17.473 12.7255 17.7219 12.483C17.9006 12.3107 18.073 12.1319 18.2389 11.9468C18.4304 11.7426 18.6155 11.532 18.7878 11.3149C18.941 11.1235 19.0687 10.9192 19.2027 10.7214C19.2729 10.6128 19.3495 10.5107 19.407 10.3958C19.6623 9.80862 19.8346 9.21502 19.8027 8.58313Z" fill="white"/>
<path d="M77.3947 8.94056C77.2159 8.87035 77.0372 8.7427 76.8521 8.73631C75.6522 8.68525 74.4522 8.64696 73.3097 9.15757C72.5119 9.51501 71.6629 9.63628 70.8013 9.60437C69.2567 9.54692 68.2801 7.79167 69.0524 6.45129C69.5694 5.55133 70.3545 5.079 71.4076 5.06624C72.8501 5.05347 74.299 5.13645 75.7288 4.97688C78.2308 4.69604 80.7264 4.93858 83.2221 4.85561C84.0072 4.83008 84.7923 4.68327 85.5709 4.68966C86.5922 4.69604 87.6198 4.75987 88.641 4.86837C90.0325 5.01518 91.3984 5.29602 92.7196 5.82578C93.5621 6.16407 94.0153 7.01297 93.1217 7.91932C92.2792 8.76184 91.2899 9.11928 90.1346 8.95971C89.2602 8.83844 88.3921 8.60866 87.5177 8.46186C86.6113 8.31505 85.6922 8.20655 84.7795 8.09804C84.6135 8.07889 84.3965 8.06612 84.2816 8.15548C84.1093 8.28314 83.9306 8.48739 83.8987 8.67887C83.8795 8.79376 84.1221 9.02354 84.288 9.06822C84.5433 9.14481 84.8305 9.10013 85.105 9.12566C85.6156 9.17672 86.1326 9.18949 86.6241 9.31076C87.5943 9.54692 88.0028 10.0575 88.0985 11.0341C88.1368 11.4107 88.156 11.7873 88.1687 12.1638C88.2198 14.768 88.2708 17.3722 88.3091 19.9763C88.3347 21.4826 87.7666 22.8677 87.2687 24.24C86.8603 25.3634 85.4561 25.8421 84.5433 25.1591C83.2732 24.2017 81.9009 24.4123 80.5094 24.5144C80.1328 24.54 79.7626 24.6612 79.3924 24.6485C78.6521 24.623 77.9691 24.7889 77.2989 25.0761C76.8904 25.2485 76.4628 25.3889 76.0351 25.5102C74.9692 25.8165 74.4139 25.5804 73.9799 24.5591C73.4501 23.3145 73.2586 21.9869 73.2905 20.6401C73.3288 19.0317 73.4437 17.4296 73.4693 15.8212C73.482 15.0042 73.3991 14.1808 73.3161 13.3702C73.1757 11.9532 74.1331 10.4022 75.4926 9.92989C75.8819 9.79585 76.2777 9.70011 76.667 9.56607C76.9351 9.47033 77.1904 9.33629 77.4521 9.2214C77.4202 9.12566 77.4074 9.02992 77.3947 8.94056ZM80.8605 16.7594C81.5051 17.1232 82.2072 17.4105 82.7625 17.8636C83.688 18.6232 83.42 19.3253 82.5838 19.855C81.186 20.7359 79.6478 20.6018 78.1159 20.2316C78.084 20.2252 78.0521 20.2061 78.0265 20.1869C77.5861 19.8168 77.0181 19.4912 77.0117 18.853C77.0053 18.2083 77.4712 17.819 78.0265 17.5445C78.2116 17.4488 78.384 17.3211 78.5627 17.2062C78.3138 17.1041 78.1159 17.1424 77.9244 17.1551C77.6819 17.1679 77.4457 17.1488 77.2032 17.1743C76.5521 17.2317 76.1947 17.6275 76.2521 18.2594C76.316 18.9359 76.4117 19.6125 76.5394 20.2827C76.7181 21.2465 76.7755 21.3103 77.7457 21.2784C78.9074 21.2465 80.069 21.1316 81.2307 21.0869C81.8115 21.0678 82.3923 21.138 82.9796 21.1444C83.8029 21.1507 84.0135 21.0805 84.1667 20.3146C84.3455 19.421 84.3455 18.4891 84.4093 17.5764C84.4476 17.0083 84.1157 16.7658 83.5859 16.7594C82.654 16.753 81.7413 16.7594 80.8605 16.7594ZM84.4348 12.8404C84.288 12.7319 84.0519 12.4192 83.8029 12.4128C83.4455 12.4 83.2093 12.7128 83.2285 13.1149C83.2476 13.4978 83.4263 13.7787 83.8221 13.8297C84.1284 13.868 84.4604 13.4149 84.4348 12.8404ZM77.3181 13.1723C76.8904 13.1021 76.4883 12.9936 76.4436 13.5489C76.4309 13.7085 76.6287 14.0212 76.7628 14.034C77.3436 14.117 77.4138 13.734 77.3181 13.1723ZM80.6435 12.8404C80.5796 12.7766 80.4328 12.4957 80.2477 12.4702C79.8712 12.4192 79.8137 12.7702 79.8648 13.0383C79.9095 13.2681 80.0499 13.6383 80.1967 13.6574C80.6116 13.7276 80.6562 13.3766 80.6435 12.8404ZM81.1477 8.67249C80.8158 8.44909 80.5733 8.19378 80.4839 8.23846C80.2541 8.35973 80.0882 8.61504 79.8967 8.81291C80.069 8.93418 80.2605 9.16396 80.4137 9.14481C80.6243 9.11928 80.8094 8.90226 81.1477 8.67249Z" fill="white"/>
<path d="M171.968 19.0317C171.368 18.9487 170.908 18.8849 170.321 18.8019C170.263 19.6636 170.193 20.4359 170.174 21.2082C170.161 22.0316 170.219 22.855 170.212 23.6783C170.206 24.0868 170.174 24.5017 170.072 24.8974C169.874 25.6378 169.523 25.8931 168.84 25.8931C168.285 25.8931 167.698 25.491 167.538 24.923C167.429 24.5336 167.391 24.1124 167.359 23.7039C167.276 22.6826 167.219 21.655 167.129 20.6338C167.11 20.4487 167.002 20.2699 166.912 20.0274C166.198 20.4423 165.853 21.0742 165.515 21.6869C164.985 22.6507 164.206 23.3464 163.313 23.94C163.172 24.0358 163.019 24.157 162.859 24.1698C162.604 24.1953 162.247 24.2336 162.1 24.0932C161.953 23.9528 161.896 23.5507 161.991 23.3528C162.342 22.6124 162.693 21.8529 163.191 21.2146C164.449 19.6125 165.47 17.87 166.447 16.102C166.542 15.9233 166.625 15.7318 166.683 15.534C166.715 15.4127 166.689 15.2723 166.689 15.0489C166.166 15.0489 165.668 15.0489 165.176 15.0489C164.736 15.0489 164.283 15.0872 163.855 15.0233C163.3 14.934 162.745 14.7297 162.649 14.0787C162.54 13.3447 162.611 12.617 163.287 12.132C164.091 11.5575 164.998 11.2767 165.981 11.2639C166.53 11.2575 167.085 11.2894 167.627 11.2575C168.374 11.2128 169.121 11.1299 169.868 11.0597C170.723 10.9767 171.572 10.8809 172.402 11.2384C173.123 11.5511 173.359 12.0107 172.976 12.6936C172.676 13.2234 172.261 13.6957 171.853 14.1553C171.266 14.8127 171.285 15.1255 172 15.6233C172.28 15.8212 172.529 16.0573 172.817 16.2424C173.429 16.6445 173.787 17.1935 173.793 17.9594C174.891 18.2402 175.867 17.9339 176.838 17.602C177.221 17.4679 177.457 16.6828 177.323 16.2616C177.182 15.8148 176.85 15.6361 176.27 15.6999C175.963 15.7318 175.657 15.7893 175.35 15.7956C174.533 15.8084 174.131 15.502 173.927 14.7489C173.71 13.9383 173.876 13.3319 174.546 13.0128C175.248 12.6809 176.002 12.4192 176.748 12.2213C177.45 12.0362 177.616 11.9532 177.648 11.2256C177.674 10.6448 177.693 10.0448 177.572 9.48311C177.387 8.59591 177.853 8.05338 178.421 7.53638C178.593 7.37681 178.816 7.26192 179.027 7.15341C180.01 6.64279 180.578 6.84704 180.942 7.88105C181.197 8.62144 181.363 9.39375 181.127 10.1852C181.05 10.4469 180.98 10.7214 180.967 10.9894C180.923 11.7745 181.216 12.0617 181.995 12.0171C182.301 11.9979 182.608 11.9405 182.908 11.883C184.025 11.666 185.346 12.917 185.065 14.3659C184.95 14.9595 184.522 15.2595 184.018 15.3808C183.259 15.5595 182.474 15.6297 181.695 15.7318C181.427 15.7701 181.152 15.7829 180.827 15.8084C180.731 16.1084 180.603 16.3892 180.565 16.6828C180.495 17.3275 180.769 17.6275 181.433 17.653C183.316 17.7296 185.199 17.7807 187.082 17.87C188.276 17.9211 189.137 18.5721 189.763 19.5295C190.152 20.1231 190.05 20.6082 189.552 21.0997C188.62 22.0252 187.478 22.0954 186.297 21.8018C184.593 21.3742 182.876 21.0678 181.114 21.1827C180.061 21.2529 179.021 21.521 177.974 21.5593C176.525 21.6103 175.114 21.8465 173.729 22.2486C173.161 22.4145 172.593 22.606 172.108 22.0635C171.546 21.4316 171.285 20.7231 171.585 19.887C171.668 19.6508 171.783 19.4402 171.968 19.0317Z" fill="white"/>
<path d="M104.445 11.8894C104.017 12.017 103.736 12.1064 103.442 12.183C102.594 12.4192 101.706 11.9915 101.419 11.2128C101.081 10.2746 101.445 9.34906 102.338 9.00439C103.462 8.57675 104.636 8.3342 105.842 8.34059C106.117 8.34059 106.391 8.35973 106.666 8.32144C107.802 8.17463 107.84 8.08528 107.904 6.94277C107.955 6.03003 108.421 5.23857 108.995 4.56839C109.532 3.94926 110.597 4.11521 111.025 4.86199C111.325 5.38538 111.529 5.98535 111.663 6.57257C111.983 7.95124 112.168 8.12996 113.61 8.04698C114.121 8.01507 114.631 7.95762 115.136 7.89379C116.004 7.7789 116.776 8.06613 117.484 8.49377C118.563 9.14481 118.525 10.3894 117.453 11.0405C116.77 11.4554 116.023 11.4809 115.263 11.4362C113.891 11.3532 113.782 11.3915 113.221 12.6362C112.289 14.6914 112.391 14.7808 113.885 16.1914C115.997 18.17 118.372 19.7912 120.963 21.0805C121.64 21.4188 122.316 21.7571 122.935 22.1847C123.963 22.8932 123.803 24.1762 122.661 24.7123C122.565 24.757 122.476 24.8144 122.38 24.8336C120.746 25.1208 119.112 25.14 117.484 24.7953C117.216 24.7378 116.91 24.5081 116.757 24.2719C115.499 22.3316 113.7 20.8571 112.308 19.0381C112.085 18.7445 111.785 18.4955 111.497 18.2594C110.77 17.6658 110.393 17.6977 109.781 18.4572C108.612 19.9061 107.298 21.2018 105.772 22.2677C104.323 23.2826 102.74 23.9974 100.921 24.0421C100.685 24.0485 100.43 24.0421 100.213 23.9655C99.6639 23.7741 99.0703 23.6017 99.0256 22.8613C98.9809 22.1145 99.0511 21.4061 99.8043 20.9912C100.532 20.5954 101.279 20.2635 102.147 20.3338C103.008 20.404 103.768 20.1295 104.445 19.5997C105.396 18.8657 106.366 18.1636 107.298 17.4105C107.725 17.0658 108.095 16.5999 107.981 15.9999C107.866 15.4063 107.419 15.0871 106.825 14.9659C106.455 14.8893 106.098 14.7872 105.727 14.6978C104.572 14.4361 103.857 13.7468 104.355 12.5851C104.425 12.4319 104.406 12.2468 104.445 11.8894ZM108.172 11.6915C108.542 12.5213 109.104 12.7 109.666 12.8021C110.029 12.8723 110.393 12.4958 110.425 12.1128C110.47 11.6532 110.144 11.4745 109.793 11.4809C109.302 11.4873 108.81 11.6085 108.172 11.6915Z" fill="white"/>
<path d="M55.7123 19.7594C57.608 19.6062 59.2101 19.4466 60.8121 19.3637C61.4823 19.3254 62.1844 19.3509 62.8419 19.4977C63.8759 19.7339 64.2907 20.6083 63.7993 21.5529C63.0716 22.9571 61.9993 24.0358 60.5058 24.6422C60.41 24.6805 60.2951 24.6677 60.2122 24.7188C58.9995 25.4911 57.7357 25.3188 56.4527 24.9294C55.2464 24.5656 54.0209 24.2465 52.8146 23.8826C51.5763 23.5061 50.3445 23.0976 49.1126 22.7146C48.4935 22.5231 47.8743 22.3189 47.2424 22.1593C44.7659 21.5338 43.2788 19.2871 43.7894 16.8042C44.0447 15.5723 44.434 14.3596 44.7659 13.1405C44.817 12.9426 44.8808 12.7448 44.9191 12.5405C45.0468 11.9214 44.7979 11.6278 44.1787 11.6661C43.9745 11.6788 43.783 11.7618 43.5787 11.8001C42.583 11.9661 41.7533 11.615 41.2682 10.8235C40.9171 10.2427 41.0129 9.1768 41.5427 8.51938C42.3277 7.5492 43.2979 6.91093 44.6064 6.87263C46.1318 6.82795 47.6063 7.11518 49.0615 7.48537C50.4721 7.84919 50.8998 9.34275 49.9487 10.4725C49.1253 11.4491 48.3658 12.4575 47.9445 13.6766C47.7084 14.3532 47.5105 15.0425 47.3573 15.7446C47.1339 16.7659 48.1679 17.8956 49.1126 18.2531C50.0062 18.5913 50.9317 18.8722 51.8635 19.0701C53.2231 19.3764 54.6081 19.5679 55.7123 19.7594Z" fill="white"/>
<path d="M150.528 22.6443C149.749 22.4018 148.958 22.1975 148.198 21.9039C147.081 21.4763 145.983 21.0039 144.892 20.5189C143.328 19.8295 141.943 18.904 141.209 17.2828C141.056 16.9509 140.992 16.5616 140.967 16.1914C140.858 14.4489 140.864 12.6936 140.641 10.9639C140.513 9.96819 140.858 9.22779 141.33 8.48101C142.045 7.35126 142.862 7.28744 143.794 8.27676C144.03 8.52569 144.222 8.81291 144.4 9.10652C144.681 9.55969 145.064 9.75756 145.6 9.75117C146.494 9.73841 147.381 9.77671 148.275 9.78309C149.373 9.78947 150.241 10.4214 150.4 11.3405C150.541 12.1319 150.26 12.6936 149.475 12.9298C148.696 13.1659 147.879 13.2808 147.075 13.4532C146.309 13.6127 145.505 13.6766 144.79 13.9574C143.896 14.3085 143.807 14.9531 144.49 15.6424C144.924 16.0765 145.409 16.4786 145.932 16.7913C147.075 17.4743 148.205 18.0934 149.66 18.0296C150.975 17.9721 152.309 18.2721 153.636 18.4381C153.936 18.4764 154.236 18.5977 154.498 18.7508C155.321 19.2104 155.43 20.0274 154.766 20.7167C153.624 21.9103 152.251 22.5869 150.528 22.6443Z" fill="white"/>
<path d="M136.499 6.95557C137.367 7.05769 138.107 7.38321 138.535 8.17467C138.963 8.97251 138.65 9.69376 138.19 10.3767C138.152 10.4342 138.107 10.498 138.05 10.5235C136.288 11.4107 136.512 13.1341 136.448 14.6404C136.346 17.1297 136.422 19.6189 136.735 22.1018C136.824 22.7975 136.678 23.5379 136.531 24.2336C136.461 24.5719 136.173 24.8975 135.912 25.1464C135.478 25.5613 135.018 25.5102 134.546 25.1081C134.086 24.7251 133.92 24.2209 133.888 23.6592C133.767 21.3359 133.671 19.0126 133.525 16.6956C133.454 15.6425 133.32 14.5893 133.142 13.5553C132.995 12.7 132.925 12.7192 132.069 12.6234C131.635 12.5724 131.188 12.483 130.786 12.3107C129.982 11.966 129.472 11.1363 129.561 10.3512C129.663 9.4576 129.963 8.72359 130.984 8.44913C132.235 8.11723 133.454 7.6449 134.699 7.28109C135.286 7.10875 135.905 7.05769 136.499 6.95557Z" fill="white"/>
<path d="M169.063 6.72573C170.002 6.65552 170.799 6.90444 171.533 7.63846C172.165 8.27035 172.025 9.40648 171.272 9.71285C169.791 10.3064 168.246 10.6128 166.663 10.166C165.936 9.96178 165.591 9.33627 165.642 8.56396C165.693 7.81079 166.344 7.05125 167.097 6.89168C167.461 6.81509 167.838 6.76402 168.214 6.72573C168.489 6.70658 168.763 6.72573 169.063 6.72573Z" fill="white"/>
</svg>
