<svg id="footer_ico" xmlns="http://www.w3.org/2000/svg" width="120" height="40" viewBox="0 0 120 40">
  <rect id="사각형_34" data-name="사각형 34" width="40" height="40" fill="none"/>
  <g id="instagram-seeklogo.com" transform="translate(7.608 7.184)">
    <path id="패스_3" data-name="패스 3" d="M12.816,2.309c3.422,0,3.827.013,5.179.075a7.094,7.094,0,0,1,2.38.441,3.972,3.972,0,0,1,1.474.959,3.971,3.971,0,0,1,.959,1.474,7.093,7.093,0,0,1,.441,2.38c.062,1.351.075,1.757.075,5.179s-.013,3.827-.075,5.179a7.093,7.093,0,0,1-.441,2.38,4.244,4.244,0,0,1-2.432,2.432,7.091,7.091,0,0,1-2.38.441c-1.351.062-1.757.075-5.179.075s-3.828-.013-5.179-.075a7.09,7.09,0,0,1-2.38-.441,3.97,3.97,0,0,1-1.474-.959,3.971,3.971,0,0,1-.959-1.474,7.092,7.092,0,0,1-.441-2.38c-.062-1.351-.075-1.757-.075-5.179s.013-3.827.075-5.179a7.092,7.092,0,0,1,.441-2.38,3.971,3.971,0,0,1,.959-1.474,3.971,3.971,0,0,1,1.474-.959,7.093,7.093,0,0,1,2.38-.441c1.351-.062,1.757-.075,5.179-.075m0-2.309C9.335,0,8.9.015,7.532.077a9.407,9.407,0,0,0-3.111.6,6.282,6.282,0,0,0-2.27,1.478A6.282,6.282,0,0,0,.673,4.421a9.407,9.407,0,0,0-.6,3.111C.015,8.9,0,9.336,0,12.816S.015,16.733.077,18.1a9.407,9.407,0,0,0,.6,3.111,6.283,6.283,0,0,0,1.478,2.27,6.282,6.282,0,0,0,2.27,1.478,9.406,9.406,0,0,0,3.111.6c1.367.062,1.8.077,5.284.077s3.917-.015,5.284-.077a9.406,9.406,0,0,0,3.111-.6,6.553,6.553,0,0,0,3.748-3.748,9.408,9.408,0,0,0,.6-3.111c.062-1.367.077-1.8.077-5.284s-.015-3.917-.077-5.284a9.409,9.409,0,0,0-.6-3.111,6.282,6.282,0,0,0-1.478-2.27A6.282,6.282,0,0,0,21.211.673,9.407,9.407,0,0,0,18.1.077C16.733.015,16.3,0,12.816,0Zm0,6.235A6.581,6.581,0,1,0,19.4,12.816,6.581,6.581,0,0,0,12.816,6.235Zm0,10.853a4.272,4.272,0,1,1,4.272-4.272A4.272,4.272,0,0,1,12.816,17.088ZM21.2,5.975a1.538,1.538,0,1,1-1.538-1.538A1.538,1.538,0,0,1,21.2,5.975Z" transform="translate(0 0)" fill="#ccc"/>
  </g>
  <rect id="사각형_37" data-name="사각형 37" width="40" height="40" transform="translate(40)" fill="none"/>
  <g id="페이스북" transform="translate(19.788 -9.56)">
    <g id="그룹_1" data-name="그룹 1" transform="translate(33.2 15.5)">
      <path id="패스_29" data-name="패스 29" d="M37.627,43.618V30.19H33.2V25.544h4.427V20.531A5.164,5.164,0,0,1,42.567,15.5h4.958v4.208H45.238c-1.134,0-2.634.915-2.634,2.049v3.805h4.464V30.19H42.6V43.618Z" transform="translate(-33.2 -15.5)" fill="#ccc"/>
    </g>
  </g>
  <rect id="사각형_38" data-name="사각형 38" width="40" height="40" transform="translate(80)" fill="none"/>
  <path id="패스_31" data-name="패스 31" d="M108.23,92.16h8s7.263,11.24,7.483,11.542.243,0,.243,0a19.839,19.839,0,0,1-.7-5.3V92.16h7.971v20.823h-7.971s-7.116-10.642-7.332-10.936-.243,0-.243,0a14.229,14.229,0,0,1,.516,4.17v6.766H108.23Z" transform="translate(-19.229 -82.572)" fill="#ccc"/>
</svg>
