<svg width="99" height="33" viewBox="0 0 99 33" fill="none" xmlns="http://www.w3.org/2000/svg">
<path d="M78.8174 8.02134C78.8174 8.30038 78.858 8.58957 78.9696 8.86355C79.4618 10.0812 80.7149 10.8321 82.308 10.1979C82.6885 10.0457 93.2263 5.79913 93.2263 5.79913C93.2263 5.79913 89.0761 16.3216 88.9188 16.7123C88.3151 18.2192 89.0406 19.5839 90.2735 20.0406C90.5474 20.142 90.8316 20.1877 91.1106 20.1877C92.1202 20.1826 93.0081 19.589 93.4444 18.4018C93.5104 18.2242 98.7006 3.97265 98.8122 3.63273C98.8782 3.42979 99 2.95287 99 2.62309C99.005 1.91787 98.7412 1.25324 98.2389 0.750957C97.7366 0.25375 97.0822 -0.00500034 96.3871 7.31986e-05C96.0471 7.31986e-05 95.7732 0.0609557 95.3571 0.192868C95.1085 0.274044 81.7296 5.25119 80.5881 5.67736C79.4465 6.10354 78.8123 7.0117 78.8174 8.02134Z" fill="#ED1C24"/>
<path d="M53.7491 16.0573V15.7529H45.6365V17.828H50.3498C49.122 21.7143 44.7334 23.9974 44.7334 23.9974L45.9054 25.6362C45.9054 25.6362 53.7491 22.3993 53.7491 16.0573Z" fill="white"/>
<path d="M51.187 29.8321V25.8037H48.3103V30.3496C48.3103 31.7702 49.4417 32.795 50.9942 32.795H59.9084V30.725H52.1966C51.4965 30.725 51.2022 30.446 51.187 29.8321Z" fill="white"/>
<path d="M53.4243 19.5734V21.6535H56.8439V26.651H59.7206V15.5298H56.8439V19.5734H53.4243Z" fill="white"/>
<path d="M78.2137 23.8708H81.0904V15.4487H78.2137V18.0718H75.2102V20.1215H78.2137V23.8708Z" fill="white"/>
<path d="M13.6884 25.6465H2.73462V30.3497C2.73462 31.7702 3.86602 32.7951 5.41852 32.7951H14.3226V26.2857C14.3226 25.9306 14.0385 25.6465 13.6884 25.6465ZM11.451 30.72H6.62095C5.9208 30.7251 5.62146 30.4461 5.61132 29.8322V27.7216H11.451V30.72Z" fill="white"/>
<path d="M14.5205 15.7785V15.6821H2.58243V17.7572H11.5119C11.5119 17.8942 11.5119 18.0667 11.5119 18.2341C11.5119 20.1621 11.4155 21.4304 11.3647 21.9479H0V24.023H17.5088V21.9479H13.9269C14.0943 21.2935 14.5205 19.2894 14.5205 15.7785Z" fill="white"/>
<path d="M32.3945 26.6867C34.7841 26.1641 36.5497 24.3732 36.5497 22.2524C36.5497 21.1109 36.0373 20.0657 35.195 19.2591H38.2493V17.184H32.3945V15.2256H29.5228V17.184H23.668V19.2591H26.7222C25.88 20.0657 25.3676 21.1058 25.3676 22.2524C25.3676 24.3783 27.1332 26.1641 29.5279 26.6867V28.7872H22.2068V30.8622H39.7105V28.7872H32.3945V26.6867ZM28.3255 22.1865C28.3255 20.771 29.5076 19.6142 30.9586 19.6142C32.4097 19.6142 33.5918 20.7659 33.5918 22.1865C33.5918 23.6071 32.4097 24.7588 30.9586 24.7588C29.5076 24.7588 28.3255 23.6071 28.3255 22.1865Z" fill="white"/>
<path d="M72.714 23.6879H75.4994C75.3827 23.0131 74.3629 17.5641 71.7095 15.6768H68.4979L66.0271 23.7538H68.9139L70.5578 17.9396C71.9479 19.5631 72.6227 23.1602 72.714 23.6879Z" fill="white"/>
<path d="M73.2873 30.7962C72.5567 30.7962 72.4248 30.6084 72.4248 29.9895V29.7307H81.0955V25.3675C81.0955 24.992 80.8215 24.6978 80.4309 24.6978H69.5989V26.6967H78.3406V27.7672H69.6699V30.3497C69.6699 31.8464 70.7455 32.7951 72.3538 32.7951H81.2782V30.7962H73.2873Z" fill="white"/>
</svg>
