<svg width="130" height="33" viewBox="0 0 130 33" fill="none" xmlns="http://www.w3.org/2000/svg">
<path d="M112.135 32.0702C111.806 32.136 111.476 32.2568 111.147 32.2568C110.368 32.2458 109.6 32.158 108.82 32.136C107.767 32.1031 106.702 31.0934 106.724 30.0617C106.746 29.2605 106.834 28.4703 106.856 27.6691C106.878 26.7802 106.636 26.418 105.758 26.3521C105.1 26.3082 104.397 26.4289 103.75 26.5826C102.696 26.846 102.905 27.8008 103.234 28.7337C103.651 29.9191 104.738 30.4568 105.594 31.2251C105.769 31.3897 105.879 31.6202 106.022 31.8287C105.791 31.9824 105.561 32.2568 105.33 32.2568C104.233 32.2568 103.124 32.2677 102.049 32.0921C101.588 32.0153 101.193 31.4995 100.776 31.1702C99.9086 30.4459 99.1074 29.6117 98.1525 29.0301C97.7245 28.7667 96.9672 28.9093 96.3965 29.0191C95.8917 29.1179 95.6063 29.5459 95.6502 30.0947C95.6941 30.6105 95.727 31.1263 96.4294 31.2361C96.605 31.269 96.7258 31.5763 96.8794 31.7519C96.6709 31.8397 96.4733 31.9604 96.2648 32.0043C95.9794 32.0702 95.6831 32.1141 95.3978 32.1141C94.7063 32.1141 94.0149 32.0921 93.3235 32.0812C93.1698 32.0812 93.0271 32.0482 92.8735 32.0702C92.0833 32.136 91.7101 31.7848 91.7869 31.1702C91.8967 30.3032 92.0394 29.4361 92.2479 28.5801C92.4564 27.735 92.9174 26.9119 92.9613 26.0668C93.0162 25.2436 92.7418 24.3766 92.5223 23.5535C92.2698 22.6206 91.8089 21.7426 91.6113 20.8097C91.315 19.4597 91.2492 18.0988 92.193 16.8915C92.6211 16.3428 92.8625 15.6513 93.3235 15.1465C94.2563 14.1368 95.0356 13.0502 96.5063 12.5234C97.6257 12.1283 98.7342 12.0295 99.8427 11.799C99.9086 11.7881 99.9854 11.7771 100.051 11.799C101.215 12.249 102.433 12.3039 103.662 12.4027C104.244 12.4466 104.825 12.5783 105.418 12.6112C106.472 12.6771 107.525 12.7868 108.568 12.7429C110.061 12.6771 111.564 12.5454 113.046 12.3368C114.473 12.1283 115.845 12.2271 117.238 12.5344C118.292 12.7649 119.389 13.0612 120.443 12.9953C121.65 12.9185 122.759 13.0502 123.769 13.6209C125.799 14.7733 127.84 15.8928 129.662 17.3744C130.134 17.7586 130.134 18.3842 129.52 18.7024C128.653 19.1634 127.72 19.4926 126.787 19.8109C125.426 20.2829 123.988 20.5572 122.693 21.1609C121.299 21.8084 120.048 22.7852 118.698 23.5425C117.985 23.9486 117.326 24.3546 116.887 25.079C116.547 25.6387 116.459 26.1107 116.799 26.7143C117.14 27.3179 117.447 27.9764 117.612 28.6459C117.853 29.6117 118.533 30.1056 119.313 30.5666C119.686 30.7861 120.07 30.9617 120.432 31.2031C120.608 31.3239 120.816 31.5434 120.805 31.697C120.794 31.8617 120.553 32.1251 120.377 32.147C119.818 32.2348 119.258 32.2348 118.687 32.2458C118.413 32.2458 118.138 32.136 117.875 32.158C116.569 32.3007 115.68 31.6751 114.791 30.7971C114.012 30.0178 113.046 29.4361 112.135 28.8106C111.915 28.6569 111.564 28.5691 111.323 28.624C110.851 28.7337 110.225 28.7228 110.17 29.4471C110.115 30.1605 110.544 30.7532 111.235 31.0714C111.586 31.2361 111.871 31.5544 112.19 31.7958C112.179 31.8726 112.157 31.9714 112.135 32.0702Z" fill="white"/>
<path d="M6.53169 4.06152C7.43165 3.56763 8.21089 3.31521 8.55112 2.52499C9.0889 1.26285 10.1754 0.768967 11.3827 0.461662C11.7339 0.373861 12.14 0.560439 12.5241 0.571414C14.2911 0.62629 16.0691 0.867744 17.43 2.00916C18.6812 3.06278 19.9324 4.14932 20.6238 5.77364C21.2933 7.33212 21.6006 8.85766 21.4689 10.5588C21.3482 12.0844 21.0079 13.4672 20.3055 14.8282C19.7677 15.8708 19.7238 16.9464 20.4921 18.0768C21.0409 18.889 21.1506 20.0194 21.425 21.0072C21.864 22.6534 21.436 24.2668 21.1396 25.8801C21.1177 25.9899 21.0628 26.0996 21.0079 26.1875C20.4043 27.1862 19.9214 28.3057 19.1422 29.1507C18.2751 30.0946 17.1995 30.8738 15.9155 31.3129C14.346 31.8506 12.7436 32.0921 11.1193 32.125C8.00236 32.1799 4.89639 32.147 1.77944 32.136C1.53799 32.136 1.28556 32.0811 1.0441 32.0482C0.341694 31.9384 0.0892643 31.5653 0.0892643 30.819C0.111215 21.3364 0.111215 11.8539 0.10024 2.38232C0.10024 1.99819 0.0453638 1.61406 0.0014631 1.22992C-0.0314624 0.736042 0.495346 0.187283 1.17581 0.165333C2.02089 0.143383 2.86598 0.264109 3.71107 0.264109C4.183 0.264109 4.66591 0.209234 5.12687 0.121432C6.10365 -0.0651454 6.64144 0.516538 6.52071 1.51528C6.42194 2.29451 6.52071 3.08473 6.53169 4.06152ZM10.1535 18.9109C10.1535 18.9329 10.1535 18.9548 10.1535 18.9768C9.50596 18.9768 8.85842 18.9768 8.21089 18.9768C7.1024 18.9768 6.66339 19.306 6.50974 20.3706C6.44389 20.8645 6.53169 21.3803 6.55364 21.8742C6.57559 22.2364 6.61949 22.5986 6.60851 22.9608C6.59754 23.3888 6.47681 23.8168 6.49876 24.2448C6.54266 25.485 7.08044 26.1875 8.11211 26.1875C9.80229 26.1875 11.5144 26.2314 13.1607 25.957C13.907 25.8253 14.7631 25.0899 15.1472 24.3985C15.5313 23.7071 15.4764 22.7193 15.4764 21.8632C15.4764 20.5023 14.357 19.2731 13.029 19.1085C12.0741 19.0097 11.1083 18.9768 10.1535 18.9109ZM9.87911 6.5419C9.87911 6.57483 9.86814 6.61873 9.86814 6.65166C9.24255 6.65166 8.62794 6.65166 8.00236 6.65166C7.1463 6.66263 6.63046 7.15651 6.63046 8.0016C6.61949 9.15399 6.63046 10.3174 6.63046 11.4698C6.63046 12.5453 7.02557 12.9185 8.13406 12.8855C9.48401 12.8416 10.8449 12.7758 12.1949 12.7538C13.7972 12.7319 14.9277 11.8868 15.3118 10.3613C15.7289 8.73694 14.8948 7.25529 13.2704 6.93701C12.151 6.71751 11.0096 6.66263 9.87911 6.5419Z" fill="white"/>
<path d="M67.1257 16.8257C67.1257 12.3698 67.1257 7.91385 67.1257 3.46891C67.1257 2.65674 67.1257 1.84458 67.1257 1.03242C67.1257 0.439759 67.6745 -0.0211978 68.2562 0.000752482C69.5622 0.0556283 70.8683 0.110504 72.1743 0.132454C73.2389 0.154405 73.645 0.692188 73.4035 1.72385C73.3047 2.16286 73.2279 2.62382 73.2389 3.0738C73.2499 3.3372 73.4035 3.76523 73.5791 3.80913C73.8206 3.87499 74.2157 3.74328 74.4242 3.55671C75.0498 2.99697 75.6315 2.39334 76.2132 1.7897C77.3326 0.626337 78.7375 0.472685 80.2301 0.604387C80.7459 0.648287 81.3166 0.593411 81.7885 0.779989C83.5555 1.44947 85.3116 2.29456 86.442 3.82011C87.353 5.03835 88.0993 6.39927 88.3407 8.01262C88.7029 10.3833 88.3736 12.5673 87.2213 14.6636C86.6505 15.6952 85.9701 16.5952 85.0482 17.3305C84.4775 17.7805 84.4775 18.2854 84.9384 18.9988C86.0579 20.7109 86.7932 22.5657 86.903 24.618C87.0237 26.9558 87.7481 29.0191 89.2517 30.83C89.4492 31.0714 89.5919 31.6641 89.4602 31.7958C89.1858 32.0592 88.7139 32.2348 88.3297 32.2458C87.1554 32.2677 85.992 32.158 84.8177 32.147C83.9177 32.136 83.1604 31.9495 82.7544 31.0275C82.2934 30.0069 81.6349 29.041 81.3495 27.9764C81.0752 26.9558 81.2069 25.8473 81.0861 24.7827C80.8886 23.0376 80.1752 21.556 78.9789 20.228C77.6619 18.7573 76.0046 18.8341 74.3254 18.889C74.0291 18.9 73.5572 19.3061 73.5023 19.5914C73.3157 20.5243 73.2389 21.4792 73.2169 22.423C73.195 23.2901 73.3267 24.1571 73.3377 25.0241C73.3596 26.8021 73.3486 28.5801 73.3377 30.3581C73.3377 30.6983 73.2389 31.0275 73.206 31.3678C73.1621 31.9275 72.7779 32.1141 72.317 32.1251C70.9341 32.158 69.5512 32.147 68.1684 32.1251C67.455 32.1141 67.1147 31.6531 67.1147 30.7532C67.1147 28.3716 67.1147 26.0009 67.1147 23.6193C67.1257 21.3474 67.1257 19.0866 67.1257 16.8257ZM76.1254 7.06876C75.5766 7.06876 75.0059 7.00291 74.4681 7.09071C74.1169 7.15656 73.634 7.38704 73.5133 7.67239C73.2938 8.16628 73.2608 8.75893 73.2279 9.31867C73.184 10.076 73.2608 10.8442 73.206 11.6015C73.1621 12.2051 73.5572 12.8746 74.1279 12.8746C76.0156 12.8856 77.9143 12.9185 79.802 12.8636C81.2617 12.8197 81.7885 12.3917 82.1946 10.9869C82.3153 10.5589 82.3373 10.0979 82.3373 9.64792C82.3593 8.287 81.1081 7.05778 79.7362 7.05778C78.5399 7.06876 77.3326 7.06876 76.1254 7.06876Z" fill="white"/>
<path d="M43.452 25.551C43.452 23.7071 43.452 21.8633 43.452 20.0195C43.452 13.7417 43.452 7.46388 43.452 1.18609C43.452 0.439779 43.7264 0.154424 44.4727 0.154424C45.669 0.143449 46.8762 0.154424 48.0725 0.154424C48.325 0.154424 48.5993 0.176374 48.8189 0.0995483C49.4005 -0.119955 50.092 0.538555 50.092 1.20804C50.092 4.47864 50.092 7.76021 50.092 11.0308C50.092 11.2723 49.9712 11.5247 50.0151 11.7442C50.2237 12.8417 50.8273 13.1161 52.1882 12.8966C52.7589 12.7978 53.3516 12.8856 53.9333 12.8746C55.2832 12.8417 56.6332 12.8527 57.9721 12.721C58.5977 12.6551 58.8502 12.1283 58.7294 11.4479C58.6636 11.1076 58.8062 10.7345 58.8062 10.3833C58.8172 7.43096 58.8062 4.47864 58.8062 1.52632C58.8062 0.428803 59.3989 0.0227219 60.5074 0.132474C61.6159 0.23125 62.7354 0.154424 63.8548 0.165399C65.0511 0.165399 65.3145 0.483679 65.1938 1.64705C65.1499 2.09703 65.2816 2.55799 65.2816 3.00797C65.2816 3.5238 65.1828 4.05061 65.1828 4.56644C65.1718 12.1503 65.1828 19.7451 65.1828 27.3289C65.1828 28.5801 65.1938 29.8313 65.1828 31.0824C65.1718 31.9605 64.6121 32.3007 63.7451 32.2019C62.6915 32.0922 61.6269 32.147 60.5733 32.147C59.0038 32.1361 58.7075 31.8836 58.6855 30.3032C58.6745 29.6227 58.7843 28.9423 58.8062 28.2618C58.8282 27.5265 58.8172 26.7802 58.8172 26.0339C58.8172 24.2998 58.8172 22.5767 58.8172 20.8426C58.8172 19.0207 58.3233 19.0537 56.8856 18.9C55.6454 18.7573 54.3613 18.9768 53.0992 18.9878C52.4626 18.9988 51.826 18.922 51.1895 18.8561C50.6188 18.7903 50.3115 19.1305 50.1688 19.5805C50.0261 20.0304 49.9603 20.5134 49.9712 20.9853C49.9932 22.4779 50.081 23.9705 50.092 25.4522C50.092 26.8021 50.0042 28.1521 49.9712 29.502C49.9603 30.0837 50.0371 30.6764 49.9493 31.2361C49.8066 32.147 49.5542 32.2129 48.6213 32.169C47.3701 32.1031 46.119 32.1141 44.8678 32.158C43.6605 32.2019 43.3971 31.9714 43.441 30.6983C43.4849 28.9642 43.452 27.2631 43.452 25.551Z" fill="white"/>
<path d="M23.3787 15.9256C23.3787 10.9868 23.3787 6.04798 23.3787 1.12014C23.3787 0.242122 23.8725 0.000668359 24.7396 0.11042C25.8042 0.242122 26.9127 0.209197 27.9882 0.11042C29.0967 0.0116435 29.6235 0.549427 29.4479 1.63597C29.3491 2.26155 29.4589 2.93104 29.5357 3.57857C29.5577 3.7432 29.843 4.0066 29.9747 3.99563C30.2381 3.9627 30.5345 3.80905 30.7101 3.6115C31.5552 2.64568 32.3234 1.61402 33.2124 0.681129C33.4978 0.373824 34.0465 0.176271 34.4855 0.165296C36.5379 0.11042 38.5902 0.132371 40.6426 0.143346C41.4767 0.143346 41.7511 0.604303 41.7072 1.46037C41.6633 2.52496 41.773 3.60052 41.784 4.67609C41.784 5.12607 41.7511 5.58703 41.6413 6.02604C41.5096 6.56382 41.0487 6.65162 40.5548 6.64064C37.3939 6.64064 34.2331 6.65162 31.0722 6.62967C29.865 6.62967 29.6235 6.8821 29.5247 7.85889C29.393 9.12103 29.415 10.4051 29.5247 11.6673C29.6016 12.5892 30.0516 12.8636 31.0174 12.8636C33.5087 12.8636 36.0001 12.8636 38.4915 12.8636C39.4463 12.8636 39.6987 13.1379 39.7207 14.0708C39.7536 15.2561 39.8085 16.4524 39.8524 17.6378C39.8853 18.4828 39.15 19.0755 38.3268 18.878C38.1293 18.8341 37.9207 18.8121 37.7122 18.8121C36.3074 18.856 34.9136 18.9109 33.5087 18.9438C32.6746 18.9658 31.8405 18.9109 31.0064 18.9548C29.8979 19.0206 29.4699 19.5035 29.4699 20.5901C29.4699 21.8083 29.4589 23.0375 29.4808 24.2558C29.4918 24.7058 29.5357 25.1667 29.6345 25.6057C29.7662 26.1655 30.2052 26.2862 30.743 26.2862C33.8599 26.2752 36.9659 26.2862 40.0829 26.2752C41.4657 26.2752 41.8279 26.6813 41.795 28.0093C41.773 28.9312 41.795 29.8531 41.784 30.775C41.773 31.7409 41.4109 32.0921 40.456 32.0921C35.1221 32.0921 29.7882 32.0921 24.4652 32.0921C23.6421 32.0921 23.3787 31.8287 23.3787 30.9836C23.3677 25.9899 23.3787 20.9523 23.3787 15.9256Z" fill="white"/>
</svg>
