<svg width="20" height="20" viewBox="0 0 20 20" fill="none" xmlns="http://www.w3.org/2000/svg">
<path d="M17.666 5.87404C17.4816 5.13691 16.9397 4.55541 16.2517 4.35878C15.0035 4 10.0004 4 10.0004 4C10.0004 4 4.99647 4 3.74917 4.35878C3.06116 4.55541 2.5184 5.13691 2.334 5.87404C2 7.21131 2 10.0005 2 10.0005C2 10.0005 2 12.7896 2.334 14.1269C2.5184 14.865 3.06029 15.4455 3.74917 15.6422C4.99734 16 10.0004 16 10.0004 16C10.0004 16 15.0035 16 16.2517 15.6422C16.9397 15.4446 17.4825 14.864 17.666 14.1269C18 12.7896 18 10.0005 18 10.0005C18 10.0005 18 7.21131 17.666 5.87404ZM8.4 12.5716V7.42844L12.5568 10.0005L8.4 12.5716Z" fill="#666666"/>
</svg>
