<svg width="20" height="20" viewBox="0 0 20 20" fill="none" xmlns="http://www.w3.org/2000/svg">
<path d="M7.39274 3.05108C6.59251 3.08513 6.04767 3.21283 5.57094 3.40011C5.0857 3.59591 4.66856 3.85131 4.25142 4.26844C3.83428 4.68558 3.57889 5.10272 3.3916 5.59648C3.20431 6.07321 3.08513 6.61805 3.04257 7.41827C3.00851 8.2185 3 8.47389 3 10.5085C3.00851 12.5431 3.01703 12.7985 3.05108 13.5988C3.08513 14.399 3.21283 14.9438 3.40011 15.412C3.59591 15.9058 3.85131 16.3229 4.26845 16.7401C4.68558 17.1572 5.10272 17.4126 5.59648 17.5999C6.07321 17.7872 6.61805 17.9064 7.41827 17.9489C8.2185 17.983 8.47389 17.9915 10.5085 17.9915C12.5431 17.983 12.7985 17.983 13.5988 17.9404C14.399 17.9064 14.9438 17.7787 15.4205 17.5914C15.9143 17.3956 16.3314 17.1402 16.7486 16.723C17.1657 16.3059 17.4211 15.8888 17.6084 15.395C17.7957 14.9183 17.9149 14.3734 17.9574 13.5732C17.9915 12.773 18 12.5176 18 10.483C17.9915 8.44835 17.9915 8.19296 17.9489 7.39274C17.9149 6.59251 17.7872 6.04767 17.5999 5.57094C17.4041 5.07719 17.1487 4.66005 16.7316 4.24291C16.3144 3.82577 15.8973 3.57037 15.4035 3.38309C14.9268 3.1958 14.382 3.07662 13.5817 3.03405C12.773 3.00851 12.5176 3 10.483 3C8.44835 3.00851 8.19296 3.01703 7.39274 3.05108ZM7.47787 16.5953C6.74574 16.5613 6.35414 16.4421 6.09024 16.34C5.7412 16.2037 5.49432 16.042 5.23042 15.7781C4.96652 15.5142 4.80477 15.2673 4.66856 14.9183C4.5664 14.6544 4.43871 14.2543 4.40465 13.5306C4.3706 12.7389 4.36209 12.5006 4.35358 10.5C4.35358 8.49943 4.35358 8.26107 4.38763 7.46935C4.42168 6.73723 4.54086 6.34563 4.64302 6.08173C4.77923 5.73269 4.94098 5.48581 5.20488 5.22191C5.46879 4.958 5.71566 4.79625 6.0647 4.66005C6.3286 4.55789 6.72872 4.43871 7.45233 4.39614C8.24404 4.36209 8.48241 4.35358 10.4745 4.34506C12.475 4.34506 12.7134 4.34506 13.5051 4.37911C14.2372 4.41317 14.6288 4.53235 14.8927 4.63451C15.2418 4.77072 15.4972 4.93246 15.7526 5.19637C16.0165 5.46027 16.1782 5.70715 16.3144 6.05619C16.4166 6.32009 16.5358 6.7202 16.5783 7.44381C16.6124 8.23553 16.6209 8.47389 16.6294 10.4659C16.6379 12.4665 16.6294 12.7049 16.5953 13.4966C16.5613 14.2287 16.4421 14.6203 16.34 14.8927C16.2037 15.2418 16.042 15.4886 15.7781 15.7526C15.5142 16.0165 15.2673 16.1782 14.9183 16.3144C14.6544 16.4166 14.2543 16.5358 13.5306 16.5783C12.7389 16.6124 12.5006 16.6209 10.5 16.6294C8.50795 16.6379 8.26958 16.6294 7.47787 16.5953ZM13.5902 6.49035C13.5902 6.98411 13.9989 7.38422 14.4926 7.38422C14.9864 7.38422 15.395 6.9756 15.3865 6.48184C15.3865 5.98808 14.9779 5.58797 14.4841 5.58797C13.9904 5.58797 13.5902 5.99659 13.5902 6.49035ZM6.6521 10.5C6.6521 12.6283 8.38025 14.3394 10.5085 14.3394C12.6283 14.3309 14.3479 12.6112 14.3479 10.483C14.3394 8.36322 12.6198 6.63507 10.4915 6.64359C8.36322 6.6521 6.64359 8.38025 6.6521 10.5ZM7.99716 10.5C7.99716 9.12089 9.11237 8.00568 10.4915 7.99716C11.8706 7.99716 12.9943 9.11237 12.9943 10.4915C12.9943 11.8706 11.8791 12.9943 10.5 12.9943C9.12089 12.9943 8.00568 11.8791 7.99716 10.5Z" fill="#666666"/>
</svg>
