<svg width="191" height="42" viewBox="0 0 191 42" fill="none" xmlns="http://www.w3.org/2000/svg">
<path d="M18.0505 21.1728L16.4214 3.18738C13.4646 4.21372 11.3386 7.02396 11.3386 10.3311C11.3386 11.1293 11.4689 11.895 11.697 12.62C10.4589 11.7321 8.94379 11.2108 7.30653 11.2108C4.74881 11.2108 2.49248 12.4815 1.12402 14.4201L18.0505 21.1728Z" fill="#00AE4D"/>
<path d="M17.5782 22.8426L0 18.7209C0.0407279 21.8488 2.03639 24.7487 5.18059 25.7913C5.93813 26.0438 6.71195 26.1579 7.46949 26.1741C6.23951 27.0702 5.27019 28.3409 4.74887 29.8967C3.94246 32.3241 4.43933 34.8655 5.84852 36.7715L17.5782 22.8426Z" fill="#00AE4D"/>
<path d="M19.0366 23.6816L9.75879 39.1745C12.7564 40.0868 16.1205 39.0686 18.0754 36.3969C18.5479 35.7534 18.89 35.0529 19.1343 34.3361C19.6149 35.7778 20.5272 37.0974 21.855 38.0586C23.9158 39.5655 26.4898 39.8669 28.738 39.1094L19.0366 23.6816Z" fill="#00AE4D"/>
<path d="M19.8428 21.1728L36.4597 14.0943C34.57 11.5936 31.2466 10.4369 28.1024 11.4551C27.3449 11.6995 26.6525 12.0579 26.0334 12.5059C26.4977 11.056 26.5303 9.45128 26.0253 7.89548C25.2433 5.46809 23.3372 3.70867 21.0728 3L19.8428 21.1728Z" fill="#00AE4D"/>
<path d="M20.3398 22.7123L32.2161 36.3154C34.0081 33.7495 34.0733 30.2225 32.1346 27.5507C31.6622 26.9072 31.1083 26.3615 30.4974 25.9053C32.0206 25.8972 33.552 25.4248 34.8797 24.4636C36.9487 22.9648 38.032 20.6107 37.9994 18.2404L20.3398 22.7123Z" fill="#00AE4D"/>
<path d="M46.98 10.56H51.2V8.42H44.38V20.58H45.66C48.02 20.58 49.98 20.5 52.22 20.08L52.02 17.94C50.26 18.26 48.7 18.36 46.98 18.4V10.56ZM57.16 6.28V13.38H55.5V6.64H53.04V23.86H55.5V15.5H57.16V24.72H59.66V6.28H57.16ZM72.1384 11.06V13.2H75.0184V19.74H77.6584V6.3H75.0184V11.06H72.1384ZM73.3584 15.3C70.4584 14.32 69.1984 12.06 69.1984 9.88V9.64H72.7784V7.54H62.8784V9.64H66.4984V9.9C66.4984 12.22 65.1784 14.64 62.1584 15.62L63.4984 17.72C65.6384 17 67.0784 15.54 67.8984 13.72C68.6984 15.38 70.0584 16.7 72.0784 17.36L73.3584 15.3ZM68.1584 22.3V18.62H65.5184V24.4H78.0784V22.3H68.1584ZM88.9369 22.74C86.4769 22.74 85.2169 22.32 85.2169 21.36C85.2169 20.4 86.4769 19.96 88.9369 19.96C91.3969 19.96 92.6569 20.4 92.6569 21.36C92.6569 22.32 91.3969 22.74 88.9369 22.74ZM88.9369 17.96C84.9569 17.96 82.5569 19.18 82.5569 21.36C82.5569 23.52 84.9569 24.74 88.9369 24.74C92.9169 24.74 95.3369 23.52 95.3369 21.36C95.3369 19.18 92.9169 17.96 88.9369 17.96ZM90.3169 14.96V13.44H95.4369V11.34H85.3169V9.18H95.3369V7.08H82.6969V13.44H87.6769V14.96H80.6769V17.06H97.3369V14.96H90.3169ZM110.995 10.6H103.695V8.86H110.995V10.6ZM113.575 6.84H101.115V12.62H113.575V6.84ZM115.695 15.68V13.6H99.0553V15.68H106.035V16.84H100.955V18.78H111.075V19.74H100.975V24.58H114.155V22.6H103.595V21.56H113.675V16.84H108.675V15.68H115.695ZM121.834 12.38H129.714V14.96H121.834V12.38ZM127.094 20.44V17.06H132.314V7.44H129.714V10.3H121.834V7.44H119.214V17.06H124.454V20.44H117.454V22.58H134.134V20.44H127.094ZM151.772 8.6H145.472V6.48H142.832V8.6H136.572V10.7H151.772V8.6ZM140.612 15.08C140.612 14.04 141.852 13.52 144.132 13.52C146.452 13.52 147.692 14.04 147.692 15.08C147.692 16.14 146.452 16.62 144.132 16.62C141.852 16.62 140.612 16.14 140.612 15.08ZM145.472 20.74V18.62C148.532 18.32 150.392 17.06 150.392 15.08C150.392 12.82 147.992 11.48 144.132 11.48C140.312 11.48 137.892 12.82 137.892 15.08C137.892 17.06 139.772 18.34 142.832 18.62V20.74H135.852V22.88H152.552V20.74H145.472ZM169.951 6.3H167.451V20.08H169.951V6.3ZM163.771 19.54H166.231V6.62H163.771V10.5H161.571V12.64H163.771V19.54ZM163.231 15.26C160.931 14.14 160.051 12.06 160.051 9.9V7.54H157.491V9.9C157.491 12.1 156.531 14.48 154.011 15.72L155.451 17.72C157.071 16.96 158.151 15.64 158.811 14.08C159.391 15.46 160.351 16.6 161.791 17.28L163.231 15.26ZM160.191 22.3V18.48H157.551V24.4H170.411V22.3H160.191ZM176.109 15.02H181.389V12.96H176.109V9.96H182.009V7.84H173.489V20.58H174.989C178.089 20.58 180.449 20.52 183.109 20.1L182.869 17.98C180.609 18.34 178.589 18.44 176.109 18.46V15.02ZM185.469 6.28V12.78H182.309V14.9H185.469V24.76H188.109V6.28H185.469Z" fill="white"/>
<path d="M44.2 39H46.456C49.108 39 50.56 37.356 50.56 34.572C50.56 31.776 49.108 30.192 46.408 30.192H44.2V39ZM45.316 38.088V31.104H46.312C48.388 31.104 49.408 32.34 49.408 34.572C49.408 36.792 48.388 38.088 46.312 38.088H45.316ZM53.8423 39.156C54.6463 39.156 55.3783 38.736 56.0023 38.22H56.0383L56.1343 39H57.0343V34.992C57.0343 33.384 56.3623 32.316 54.7783 32.316C53.7343 32.316 52.8103 32.784 52.2103 33.168L52.6423 33.924C53.1583 33.576 53.8423 33.228 54.5983 33.228C55.6663 33.228 55.9423 34.032 55.9423 34.872C53.1703 35.184 51.9343 35.892 51.9343 37.308C51.9343 38.484 52.7503 39.156 53.8423 39.156ZM54.1543 38.28C53.5063 38.28 53.0023 37.98 53.0023 37.236C53.0023 36.396 53.7463 35.856 55.9423 35.592V37.416C55.3063 37.98 54.7903 38.28 54.1543 38.28ZM61.7437 39.156C62.6317 39.156 63.3277 38.856 63.9037 38.484L63.5077 37.764C63.0277 38.088 62.5117 38.28 61.8757 38.28C60.6397 38.28 59.7877 37.392 59.7157 36H64.1077C64.1317 35.844 64.1557 35.616 64.1557 35.376C64.1557 33.516 63.2197 32.316 61.5637 32.316C60.0517 32.316 58.6237 33.636 58.6237 35.748C58.6237 37.896 60.0157 39.156 61.7437 39.156ZM59.7037 35.208C59.8357 33.936 60.6517 33.192 61.5757 33.192C62.5957 33.192 63.1957 33.9 63.1957 35.208H59.7037ZM65.0883 41.916C66.3723 41.916 66.8643 41.076 66.8643 39.744V32.484H65.7723V39.744C65.7723 40.536 65.6163 41.028 64.9683 41.028C64.7283 41.028 64.5122 40.968 64.3442 40.908L64.1282 41.748C64.3562 41.832 64.6923 41.916 65.0883 41.916ZM66.3123 31.14C66.7323 31.14 67.0323 30.852 67.0323 30.408C67.0323 29.988 66.7323 29.7 66.3123 29.7C65.8803 29.7 65.5803 29.988 65.5803 30.408C65.5803 30.852 65.8803 31.14 66.3123 31.14ZM71.7047 39.156C72.5927 39.156 73.2887 38.856 73.8647 38.484L73.4687 37.764C72.9887 38.088 72.4727 38.28 71.8367 38.28C70.6007 38.28 69.7487 37.392 69.6767 36H74.0687C74.0927 35.844 74.1167 35.616 74.1167 35.376C74.1167 33.516 73.1807 32.316 71.5247 32.316C70.0127 32.316 68.5847 33.636 68.5847 35.748C68.5847 37.896 69.9767 39.156 71.7047 39.156ZM69.6647 35.208C69.7967 33.936 70.6127 33.192 71.5367 33.192C72.5567 33.192 73.1567 33.9 73.1567 35.208H69.6647ZM78.2532 39.156C79.8492 39.156 81.2772 37.908 81.2772 35.748C81.2772 33.576 79.8492 32.316 78.2532 32.316C76.6572 32.316 75.2292 33.576 75.2292 35.748C75.2292 37.908 76.6572 39.156 78.2532 39.156ZM78.2532 38.244C77.1252 38.244 76.3692 37.248 76.3692 35.748C76.3692 34.248 77.1252 33.228 78.2532 33.228C79.3812 33.228 80.1492 34.248 80.1492 35.748C80.1492 37.248 79.3812 38.244 78.2532 38.244ZM82.9985 39H84.0905V34.272C84.7505 33.612 85.2065 33.276 85.8785 33.276C86.7425 33.276 87.1145 33.792 87.1145 35.016V39H88.2065V34.872C88.2065 33.204 87.5825 32.316 86.2145 32.316C85.3265 32.316 84.6545 32.808 84.0305 33.42H83.9945L83.8985 32.484H82.9985V39ZM93.1141 39H94.1221V34.128C94.1221 33.372 94.0381 32.304 93.9901 31.536H94.0381L94.7341 33.54L96.4021 38.112H97.1461L98.8141 33.54L99.5101 31.536H99.5581C99.4981 32.304 99.4141 33.372 99.4141 34.128V39H100.458V30.192H99.1141L97.4341 34.908C97.2301 35.52 97.0381 36.132 96.8341 36.744H96.7741C96.5581 36.132 96.3541 35.52 96.1501 34.908L94.4581 30.192H93.1141V39ZM105.384 39.156C106.272 39.156 106.968 38.856 107.544 38.484L107.148 37.764C106.668 38.088 106.152 38.28 105.516 38.28C104.28 38.28 103.428 37.392 103.356 36H107.748C107.772 35.844 107.796 35.616 107.796 35.376C107.796 33.516 106.86 32.316 105.204 32.316C103.692 32.316 102.264 33.636 102.264 35.748C102.264 37.896 103.656 39.156 105.384 39.156ZM103.344 35.208C103.476 33.936 104.292 33.192 105.216 33.192C106.236 33.192 106.836 33.9 106.836 35.208H103.344ZM111.324 39.156C111.72 39.156 112.152 39.036 112.524 38.916L112.308 38.1C112.092 38.184 111.792 38.268 111.564 38.268C110.808 38.268 110.556 37.812 110.556 37.008V33.372H112.32V32.484H110.556V30.648H109.644L109.512 32.484L108.492 32.544V33.372H109.464V36.984C109.464 38.28 109.932 39.156 111.324 39.156ZM113.795 39H114.887V34.812C115.319 33.696 115.991 33.312 116.531 33.312C116.795 33.312 116.951 33.336 117.167 33.42L117.371 32.46C117.167 32.352 116.963 32.316 116.675 32.316C115.943 32.316 115.283 32.844 114.827 33.672H114.791L114.695 32.484H113.795V39ZM120.851 39.156C122.447 39.156 123.875 37.908 123.875 35.748C123.875 33.576 122.447 32.316 120.851 32.316C119.255 32.316 117.827 33.576 117.827 35.748C117.827 37.908 119.255 39.156 120.851 39.156ZM120.851 38.244C119.723 38.244 118.967 37.248 118.967 35.748C118.967 34.248 119.723 33.228 120.851 33.228C121.979 33.228 122.747 34.248 122.747 35.748C122.747 37.248 121.979 38.244 120.851 38.244ZM125.596 41.748H126.688V39.54L126.664 38.4C127.252 38.88 127.876 39.156 128.464 39.156C129.964 39.156 131.296 37.872 131.296 35.64C131.296 33.636 130.384 32.316 128.704 32.316C127.948 32.316 127.216 32.748 126.628 33.228H126.592L126.496 32.484H125.596V41.748ZM128.284 38.244C127.852 38.244 127.276 38.064 126.688 37.56V34.14C127.324 33.552 127.888 33.24 128.44 33.24C129.676 33.24 130.156 34.212 130.156 35.652C130.156 37.272 129.364 38.244 128.284 38.244ZM135.57 39.156C137.166 39.156 138.594 37.908 138.594 35.748C138.594 33.576 137.166 32.316 135.57 32.316C133.974 32.316 132.546 33.576 132.546 35.748C132.546 37.908 133.974 39.156 135.57 39.156ZM135.57 38.244C134.442 38.244 133.686 37.248 133.686 35.748C133.686 34.248 134.442 33.228 135.57 33.228C136.698 33.228 137.466 34.248 137.466 35.748C137.466 37.248 136.698 38.244 135.57 38.244ZM141.467 39.156C141.767 39.156 141.947 39.12 142.103 39.06L141.947 38.22C141.827 38.244 141.779 38.244 141.719 38.244C141.551 38.244 141.407 38.112 141.407 37.776V29.448H140.315V37.704C140.315 38.628 140.651 39.156 141.467 39.156ZM143.737 39H144.829V32.484H143.737V39ZM144.289 31.14C144.721 31.14 145.021 30.852 145.021 30.408C145.021 29.988 144.721 29.7 144.289 29.7C143.857 29.7 143.557 29.988 143.557 30.408C143.557 30.852 143.857 31.14 144.289 31.14ZM149.094 39.156C149.49 39.156 149.922 39.036 150.294 38.916L150.078 38.1C149.862 38.184 149.562 38.268 149.334 38.268C148.578 38.268 148.326 37.812 148.326 37.008V33.372H150.09V32.484H148.326V30.648H147.414L147.282 32.484L146.262 32.544V33.372H147.234V36.984C147.234 38.28 147.701 39.156 149.094 39.156ZM152.772 39.156C153.576 39.156 154.308 38.736 154.932 38.22H154.968L155.064 39H155.964V34.992C155.964 33.384 155.292 32.316 153.708 32.316C152.664 32.316 151.74 32.784 151.14 33.168L151.572 33.924C152.088 33.576 152.772 33.228 153.528 33.228C154.596 33.228 154.872 34.032 154.872 34.872C152.1 35.184 150.864 35.892 150.864 37.308C150.864 38.484 151.68 39.156 152.772 39.156ZM153.084 38.28C152.436 38.28 151.932 37.98 151.932 37.236C151.932 36.396 152.676 35.856 154.872 35.592V37.416C154.236 37.98 153.72 38.28 153.084 38.28ZM158.045 39H159.137V34.272C159.797 33.612 160.253 33.276 160.925 33.276C161.789 33.276 162.161 33.792 162.161 35.016V39H163.253V34.872C163.253 33.204 162.629 32.316 161.261 32.316C160.373 32.316 159.701 32.808 159.077 33.42H159.041L158.945 32.484H158.045V39ZM170.633 39.156C171.413 39.156 172.157 38.856 172.745 38.328L172.265 37.596C171.857 37.968 171.329 38.244 170.729 38.244C169.529 38.244 168.713 37.248 168.713 35.748C168.713 34.248 169.577 33.228 170.765 33.228C171.281 33.228 171.677 33.468 172.061 33.804L172.625 33.084C172.157 32.676 171.569 32.316 170.717 32.316C169.049 32.316 167.573 33.576 167.573 35.748C167.573 37.908 168.905 39.156 170.633 39.156ZM174.17 39H175.262V32.484H174.17V39ZM174.722 31.14C175.154 31.14 175.454 30.852 175.454 30.408C175.454 29.988 175.154 29.7 174.722 29.7C174.29 29.7 173.99 29.988 173.99 30.408C173.99 30.852 174.29 31.14 174.722 31.14ZM179.527 39.156C179.923 39.156 180.355 39.036 180.727 38.916L180.511 38.1C180.295 38.184 179.995 38.268 179.767 38.268C179.011 38.268 178.759 37.812 178.759 37.008V33.372H180.523V32.484H178.759V30.648H177.847L177.715 32.484L176.695 32.544V33.372H177.667V36.984C177.667 38.28 178.135 39.156 179.527 39.156ZM182.107 41.808C183.403 41.808 184.087 40.824 184.531 39.54L186.991 32.484H185.923L184.759 36.108C184.579 36.684 184.387 37.344 184.207 37.932H184.147C183.943 37.344 183.715 36.672 183.523 36.108L182.191 32.484H181.051L183.667 39.012L183.523 39.504C183.259 40.308 182.791 40.908 182.047 40.908C181.879 40.908 181.687 40.848 181.555 40.8L181.339 41.676C181.543 41.76 181.795 41.808 182.107 41.808Z" fill="white"/>
</svg>
