<svg xmlns="http://www.w3.org/2000/svg" width="164.117" height="19.98" viewBox="0 0 164.117 19.98">
  <g id="flogo" transform="translate(13.616 -5413.145)" opacity="0.7">
    <path id="패스_78" data-name="패스 78" d="M337.543,323.488c.662-3.44,1.386-6.869,1.966-10.324.216-1.284.647-1.828,2.028-1.663a20.867,20.867,0,0,0,3.8.01c.934-.062,1.119.221.9,1.094-1.268,5.124-2.49,10.263-3.748,15.392-.708,2.89-.729,2.885-3.758,2.885-1.222,0-2.449-.056-3.666.021-.914.056-1.284-.246-1.5-1.165-.893-3.717-1.889-7.413-2.952-11.526-.837,3.373-1.586,6.356-2.321,9.339-.816,3.332-.811,3.332-4.251,3.332h-1.55c-3.147,0-3.127-.005-3.809-3-1.16-5.062-2.326-10.119-3.542-15.166-.221-.909-.18-1.263.888-1.206a40.169,40.169,0,0,0,4.651-.005c1-.062,1.248.38,1.4,1.242.642,3.589,1.345,7.162,2.11,11.172.76-2.962,1.412-5.529,2.079-8.1.365-1.4.226-3.255,1.227-4.056s2.8-.216,4.241-.231c2.67-.036,2.665-.005,3.317,2.68.75,3.086,1.52,6.166,2.285,9.251A1.977,1.977,0,0,0,337.543,323.488Z" transform="translate(-263.368 5101.936)" fill="#fff"/>
    <path id="패스_79" data-name="패스 79" d="M227.61,321.345c0-2.86.036-5.724-.021-8.584-.021-.888.257-1.114,1.109-1.083,1.781.062,3.568.051,5.355.005.724-.021,1,.18.97.934-.051,1.592.026,3.193-.031,4.785-.031.821.262,1.063,1.052,1.017,1.258-.077,2.89.406,3.681-.216.842-.662.252-2.367.267-3.609.046-2.9.015-2.9,2.916-2.9,1.222,0,2.444.031,3.661-.01.621-.021.8.19.8.8q-.031,8.864-.005,17.733c0,.57-.128.852-.775.842-1.925-.031-3.85-.041-5.776.005-.76.021-.821-.349-.811-.945.026-1.689-.036-3.378.026-5.067.031-.832-.262-1.058-1.032-.981-1.289.128-3.014-.56-3.758.288-.637.724-.216,2.4-.221,3.661-.015,3.024-.005,3.024-2.962,3.024-1.078,0-2.167-.072-3.24.021-1.032.087-1.237-.329-1.222-1.273C227.645,326.977,227.61,324.158,227.61,321.345Z" transform="translate(-220.818 5101.774)" fill="#fff"/>
    <path id="패스_80" data-name="패스 80" d="M397.05,321.1a3.938,3.938,0,0,0,.508.339c2.582,1.063,3.589,2.567,3.332,5.011-.257,2.464-1.622,3.943-4.415,4.282-4.626.56-9.282.19-13.923.277-.616.01-.662-.344-.662-.811q.008-8.864,0-17.723c0-.436-.036-.842.621-.821,4.641.149,9.3-.37,13.918.288a4.554,4.554,0,0,1,3.876,6.4C399.746,319.841,398.483,320.509,397.05,321.1Zm-8.255,3.871c.077.914-.56,2.2,1.376,2.069,2.346-.159,3.358-.652,3.368-2.069s-.847-1.812-3.229-1.971C388.579,322.891,388.656,323.82,388.795,324.976Zm-.005-7.737c.036.873-.436,1.971,1.294,1.853,2.269-.149,3.353-.652,3.327-1.946-.026-1.222-1.063-1.694-3.116-1.864C388.543,315.139,388.682,316.119,388.79,317.239Z" transform="translate(-295.901 5101.809)" fill="#fff"/>
    <path id="패스_81" data-name="패스 81" d="M432.943,311.15c3.378.077,6.628.652,8.774,3.563,2.526,3.424,2.567,7.27,1.027,11.069-1.612,3.979-5.149,5.1-9.026,5.278-3.548.164-7.044-.344-9.405-3.378-2.742-3.517-2.711-7.521-1.073-11.439,1.54-3.686,4.893-4.78,8.579-5.088C432.188,311.125,432.568,311.15,432.943,311.15Zm-2.962,9.837a8.864,8.864,0,0,0,.477,3.584,2.522,2.522,0,0,0,2.516,1.838,2.424,2.424,0,0,0,2.521-1.833,10.885,10.885,0,0,0-.2-7.141,2.393,2.393,0,0,0-2.377-1.648,2.454,2.454,0,0,0-2.372,1.648A8,8,0,0,0,429.981,320.987Z" transform="translate(-315.473 5102.034)" fill="#fff"/>
    <path id="패스_82" data-name="패스 82" d="M270.97,320.987c.036-5.884,3.512-9.5,9.452-9.842a16.465,16.465,0,0,1,4.759.344c6.022,1.438,7.819,6.289,7.121,11.469-.873,6.453-6,8.389-11.8,8.071a13.913,13.913,0,0,1-3.306-.611C273.1,329.144,270.944,325.828,270.97,320.987Zm7.706-.144a9.08,9.08,0,0,0,.775,4.22,2.611,2.611,0,0,0,4.426.241c1.155-1.761,1.088-6.613-.118-8.379a2.464,2.464,0,0,0-4.333.252A8.834,8.834,0,0,0,278.676,320.843Z" transform="translate(-241.927 5102.049)" fill="#fff"/>
    <path id="패스_83" data-name="패스 83" d="M473.488,324.467c-1,1.91-2,3.645-2.829,5.457a1.648,1.648,0,0,1-1.823,1.1c-2.156-.067-4.318-.021-6.767-.021.9-1.309,1.694-2.475,2.5-3.64,1.253-1.807,2.469-3.645,3.789-5.4a1.334,1.334,0,0,0,.021-1.823c-1.812-2.726-3.563-5.488-5.493-8.487,2.254,0,4.328.123,6.387-.041a2.636,2.636,0,0,1,3.152,1.925,33.981,33.981,0,0,0,1.884,3.779c.981-1.776,1.874-3.337,2.706-4.934a1.129,1.129,0,0,1,1.165-.75c2.249.041,4.5.015,7,.015-1.171,1.725-2.228,3.3-3.3,4.857-.765,1.119-1.5,2.274-2.346,3.332a1.644,1.644,0,0,0-.036,2.392c1.941,2.582,3.743,5.268,5.591,7.917.149.216.436.38.293.852-2.567,0-5.175-.01-7.783.005-.7.005-.806-.585-1.037-.991C475.542,328.24,474.571,326.438,473.488,324.467Z" transform="translate(-334.917 5101.814)" fill="#fff"/>
    <path id="패스_84" data-name="패스 84" d="M204.288,316.672a18.87,18.87,0,0,0-6.628-.888c-.9.062-2.151-.036-2.249,1.171-.1,1.186,1.181,1.16,1.977,1.36a38.675,38.675,0,0,1,4.487,1.109,5.031,5.031,0,0,1,3.573,4.425,5.563,5.563,0,0,1-2.865,5.8,12.134,12.134,0,0,1-5.545,1.386,33.116,33.116,0,0,1-8.107-.724c-.59-.118-.786-.329-.775-.9.026-1.355.01-2.706.01-4.2a18.467,18.467,0,0,0,6.926,1.155c.375-.021.755.005,1.124-.051.8-.123,1.756-.252,1.828-1.207.072-.939-.909-1.094-1.607-1.278a44.413,44.413,0,0,1-4.754-1.2,5.614,5.614,0,0,1-2.516-8.861,7.378,7.378,0,0,1,4.549-2.305,27.087,27.087,0,0,1,9.8.169c.719.128.785.477.775,1.047C204.278,313.941,204.288,315.209,204.288,316.672Z" transform="translate(-201.496 5102.062)" fill="#fff"/>
  </g>
</svg>
