<svg xmlns="http://www.w3.org/2000/svg" width="193.906" height="44.39" viewBox="0 0 193.906 44.39">
  <g id="logo" transform="translate(1475.79 242.094)">
    <path id="패스_35" data-name="패스 35" d="M335.267,322.26c.6-3.092,1.246-6.175,1.767-9.281.194-1.154.581-1.643,1.823-1.5a18.756,18.756,0,0,0,3.415.009c.84-.055,1.006.2.812.983-1.14,4.606-2.238,9.225-3.369,13.835-.637,2.6-.655,2.594-3.378,2.594-1.1,0-2.2-.051-3.3.018-.821.051-1.154-.222-1.352-1.048-.8-3.341-1.7-6.664-2.654-10.36-.752,3.032-1.426,5.713-2.086,8.394-.734,3-.729,3-3.821,3h-1.394c-2.829,0-2.81,0-3.424-2.7-1.043-4.55-2.091-9.1-3.184-13.632-.2-.817-.161-1.135.8-1.084a36.1,36.1,0,0,0,4.181,0c.9-.055,1.121.341,1.26,1.117.577,3.226,1.209,6.438,1.9,10.042.683-2.663,1.269-4.97,1.869-7.278.328-1.255.2-2.926,1.1-3.646s2.515-.194,3.812-.208c2.4-.032,2.4,0,2.981,2.409.674,2.774,1.366,5.542,2.054,8.316A1.777,1.777,0,0,0,335.267,322.26Z" transform="translate(-1685.758 -541.977)" fill="#1d1d1d"/>
    <path id="패스_36" data-name="패스 36" d="M227.607,320.367c0-2.57.032-5.146-.018-7.716-.018-.8.231-1,1-.974,1.6.055,3.207.046,4.813,0,.651-.018.9.162.872.84-.046,1.431.023,2.87-.028,4.3-.028.738.235.955.946.914,1.131-.069,2.6.365,3.309-.194.757-.6.226-2.127.24-3.244.042-2.6.014-2.6,2.621-2.6,1.1,0,2.2.028,3.29-.009.558-.018.72.171.715.72q-.028,7.968,0,15.94c0,.512-.115.766-.7.757-1.731-.028-3.461-.037-5.192,0-.683.018-.738-.314-.729-.849.023-1.518-.032-3.037.023-4.555.028-.748-.235-.951-.928-.881-1.158.115-2.709-.5-3.378.258-.572.651-.194,2.16-.2,3.29-.014,2.718,0,2.718-2.663,2.718-.969,0-1.947-.065-2.912.018-.928.078-1.112-.3-1.1-1.145C227.64,325.43,227.607,322.9,227.607,320.367Z" transform="translate(-1638.669 -542.156)" fill="#1d1d1d"/>
    <path id="패스_37" data-name="패스 37" d="M395.517,320.144a3.535,3.535,0,0,0,.457.3c2.321.955,3.226,2.307,3,4.5-.231,2.215-1.458,3.544-3.969,3.849-4.158.5-8.344.171-12.516.249-.554.009-.6-.309-.6-.729q.007-7.968,0-15.931c0-.392-.032-.757.558-.738,4.172.134,8.358-.332,12.511.258a4.094,4.094,0,0,1,3.484,5.75A4.566,4.566,0,0,1,395.517,320.144Zm-7.421,3.48c.069.821-.5,1.98,1.237,1.86,2.109-.143,3.018-.586,3.027-1.86s-.761-1.629-2.9-1.772C387.9,321.75,387.972,322.585,388.1,323.623Zm0-6.955c.032.785-.392,1.772,1.163,1.666,2.04-.134,3.014-.586,2.99-1.749-.023-1.1-.955-1.523-2.8-1.675C387.871,314.781,388,315.663,388.092,316.669Z" transform="translate(-1721.762 -542.118)" fill="#1d1d1d"/>
    <path id="패스_38" data-name="패스 38" d="M431.848,311.149c3.037.069,5.958.586,7.887,3.2,2.271,3.078,2.307,6.535.923,9.95-1.449,3.577-4.629,4.583-8.113,4.744-3.189.148-6.332-.309-8.454-3.037-2.464-3.161-2.437-6.761-.964-10.282,1.384-3.313,4.4-4.3,7.711-4.573C431.169,311.126,431.511,311.149,431.848,311.149Zm-2.663,8.842a7.968,7.968,0,0,0,.429,3.221,2.267,2.267,0,0,0,2.261,1.652,2.179,2.179,0,0,0,2.266-1.647,9.784,9.784,0,0,0-.175-6.419,2.151,2.151,0,0,0-2.137-1.481A2.206,2.206,0,0,0,429.7,316.8,7.2,7.2,0,0,0,429.185,319.992Z" transform="translate(-1743.422 -541.869)" fill="#1d1d1d"/>
    <path id="패스_39" data-name="패스 39" d="M270.97,319.988c.032-5.289,3.157-8.542,8.5-8.847a14.8,14.8,0,0,1,4.278.309c5.413,1.292,7.028,5.653,6.4,10.31-.785,5.8-5.39,7.541-10.61,7.255a12.507,12.507,0,0,1-2.972-.549C272.88,327.321,270.947,324.339,270.97,319.988Zm6.927-.129a8.162,8.162,0,0,0,.7,3.793,2.347,2.347,0,0,0,3.978.217c1.038-1.583.978-5.944-.106-7.531a2.215,2.215,0,0,0-3.895.226A7.941,7.941,0,0,0,277.9,319.858Z" transform="translate(-1662.03 -541.851)" fill="#1d1d1d"/>
    <path id="패스_40" data-name="패스 40" d="M472.333,323.165c-.9,1.717-1.8,3.277-2.543,4.906a1.481,1.481,0,0,1-1.638.988c-1.938-.06-3.881-.018-6.082-.018.808-1.177,1.523-2.224,2.243-3.272,1.126-1.624,2.22-3.277,3.406-4.855a1.2,1.2,0,0,0,.018-1.638c-1.629-2.451-3.2-4.933-4.938-7.628,2.026,0,3.89.111,5.741-.037a2.369,2.369,0,0,1,2.834,1.731,30.553,30.553,0,0,0,1.694,3.4c.881-1.6,1.684-3,2.432-4.435a1.015,1.015,0,0,1,1.048-.674c2.021.037,4.043.014,6.29.014-1.052,1.551-2,2.963-2.963,4.366-.688,1.006-1.348,2.044-2.109,3a1.478,1.478,0,0,0-.032,2.151c1.744,2.321,3.364,4.735,5.026,7.116.134.194.392.341.263.766-2.307,0-4.652-.009-7,0-.628,0-.725-.526-.932-.891C474.179,326.557,473.307,324.937,472.333,323.165Z" transform="translate(-1764.94 -542.112)" fill="#1d1d1d"/>
    <path id="패스_41" data-name="패스 41" d="M202.629,316.107a16.961,16.961,0,0,0-5.958-.8c-.808.055-1.934-.032-2.021,1.052-.092,1.066,1.061,1.043,1.777,1.223a34.769,34.769,0,0,1,4.033,1,4.522,4.522,0,0,1,3.212,3.978,5,5,0,0,1-2.575,5.21,10.907,10.907,0,0,1-4.984,1.246,29.768,29.768,0,0,1-7.287-.651c-.531-.106-.706-.3-.7-.812.023-1.218.009-2.432.009-3.78a16.6,16.6,0,0,0,6.225,1.038c.337-.018.678,0,1.011-.046.715-.111,1.578-.226,1.643-1.085s-.817-.983-1.444-1.149a39.907,39.907,0,0,1-4.273-1.075,5.046,5.046,0,0,1-2.261-7.965,6.632,6.632,0,0,1,4.089-2.072,24.349,24.349,0,0,1,8.805.152c.646.115.706.429.7.941C202.62,313.652,202.629,314.792,202.629,316.107Z" transform="translate(-1617.285 -541.838)" fill="#1d1d1d"/>
    <g id="그룹_18" data-name="그룹 18" transform="translate(-1475.79 -242.094)">
      <path id="패스_42" data-name="패스 42" d="M155.416,331.925c2.252-1.149,2.224-3.581,3.115-5.653.286.734.526,1.343.8,2.058l2.026-1.74c-.171,1.648-.314,3.009-.443,4.375a.789.789,0,0,1-.374.618c-2.677,1.749-5.206,3.72-8,5.284a20.308,20.308,0,0,1-.254-4.13,4.17,4.17,0,0,0-.268-2.224c.369-.457.752-.9,1.1-1.375a13.688,13.688,0,0,0,2.746-9.7c-.129-1.4-.9-1.7-2.086-.891-.517.351-.978.785-1.468,1.186-.18-.365-.36-.734-.54-1.1,3.6-2.483,7.195-4.966,11.034-7.619-.152,1.878-.272,3.48-.425,5.081a.945.945,0,0,1-.337.646c-1.864,1.186-2.118,3.235-2.774,5.146-.623-.4-.328-1.2-.812-1.624a2.107,2.107,0,0,0-.309.2c-2.114,1.938-2.141,1.948-1.034,4.587a1.969,1.969,0,0,1-.078,1.564q-.907,2.554-1.823,5.109c-.018.111-.088.277-.046.318C155.291,332.165,155.351,332.013,155.416,331.925Z" transform="translate(-122.05 -299.71)" fill="#f8bb1d"/>
      <path id="패스_43" data-name="패스 43" d="M115.511,317.3c-.277.254-.457,0-.641-.134-2.354-1.767-4.689-3.558-7.061-5.3-.646-.471-.521-.683.092-1,1.006-.521,1.975-1.117,2.986-1.634.531-.272.637-.545.328-1.075a1.6,1.6,0,0,1,.014-2.091.93.93,0,0,1,1.278-.014,1.946,1.946,0,0,1,.577,2.284,11.592,11.592,0,0,1-.545,1.135,3.2,3.2,0,0,0-.346,1.708c.254,1.892.891,2.215,2.492,1.269.577-.341,1.144-.715,1.749-1,.78-.369,1.251-.78,1.02-1.791-.171-.729.434-1.32.868-1.887,1.057.72,2.626.452,3.378,1.758-.134.914-.258,1.832-.411,2.741-.111.651.028.983.794,1.071,2.778.323,2.774.351,3.3-2.414.009-.042.023-.083.032-.12a3.02,3.02,0,0,1,.868.014c1.057.323,2.307.314,2.884,1.541q-4.4,3.7-8.81,7.393a2.038,2.038,0,0,1-2.852-.651c-.157-.351.125-.434.318-.554.743-.475,1.477-.969,2.247-1.4.609-.341.858-.651.4-1.352-.729-1.121-1.126-3-2.067-3.3-1.075-.351-2.312,1.191-3.544,1.786-.688.328-.858.688-.374,1.338.4.54.706,1.14,1.057,1.717Z" transform="translate(-98.145 -296.9)" fill="#e75627"/>
      <path id="패스_44" data-name="패스 44" d="M117.224,333.5c1.3,1.066,2.607,2.132,3.9,3.207a1.636,1.636,0,0,1,.785,1.338c-.028,5.464-.014,10.923-.014,16.706-2.058-1.518-3.927-2.894-5.8-4.273a2.415,2.415,0,0,1,.508-1.421c.655-.411.554-1.085.558-1.7a14.346,14.346,0,0,0-.826-4.024c.517.221.886.378,1.315.558v-4.2a25.344,25.344,0,0,1,1.251,4.038c.286,1.375,1.246,1.8,2.446,2.16v-4.033c0-1.223,0-2.446,0-3.664,0-1-.881-.992-1.44-1.052-.8-.088-.374.651-.378,1,0,1.084.078,2.169.129,3.253a14.182,14.182,0,0,1-1.149-3.48,2.4,2.4,0,0,0-1.661-2.068C117,335.06,116.495,334.183,117.224,333.5Z" transform="translate(-102.839 -311.815)" fill="#e75d29"/>
      <path id="패스_45" data-name="패스 45" d="M93.236,323.714c-.84-1.048-1.708-2.077-2.51-3.152-.258-.346-.711-.858-.328-1.228.457-.438.881.134,1.274.4.166.111.328.226.531.365-.078-2.57-.849-3.475-3.157-3.673-.323-.028-.323-.148-.355-.328-.531-3.1-1.061-6.193-1.32-9.474q2.582,2.264,5.169,4.527a8.779,8.779,0,0,0-.032,3.364c-.415.078-.743-.4-1.237-.166q1.232,4.278,2.46,8.542C93.212,322.947,93.282,323.363,93.236,323.714Z" transform="translate(-87.37 -297.34)" fill="#f8bb1d"/>
      <path id="패스_46" data-name="패스 46" d="M134.448,307.684c-.748-1.306-2.321-1.038-3.378-1.758a4.25,4.25,0,0,0,.125-3.184c.4-.6.854-.281,1.334-.12a6.22,6.22,0,0,0,2.5.766.383.383,0,0,1,.014.125c-.4,2.644-.009,3.037,2.755,2.926.512-.018.637-.272.752-.641.171-.549.337-1.1.5-1.652a1.243,1.243,0,0,1,1.329.78,1.516,1.516,0,0,0,.083,1.874,2.316,2.316,0,0,1,.808,2.635c.711-.752,1.421-1.5,2.132-2.252.688-.065,1.186.411,1.781.609-.06.051-.125.1-.189.148-.106.074-.208.148-.314.221a18.506,18.506,0,0,1-2.774,2.358c-.577-1.223-1.827-1.214-2.884-1.541a3.023,3.023,0,0,0-.868-.014c-.125-.355.475-.974-.175-1.066C136.825,307.735,135.657,307.176,134.448,307.684Z" transform="translate(-110.903 -295.063)" fill="#e86226"/>
      <path id="패스_47" data-name="패스 47" d="M112.126,329.11c-.729.683-.222,1.56-.374,2.335-.618-.009-.471.438-.471.794,0,1.084,0,2.169,0,3.175a14.817,14.817,0,0,1-.951-3.5,1.489,1.489,0,0,0-1.648-1.371c.628,2.381,1.241,4.707,1.9,7.185-1.966-1.343-2.28-1.324-2.667.046-.535-.1-.457-.526-.457-.9,0-.715,0-1.431,0-2.146.471.171.941.346,1.532.563-.817-3.166-1.592-6.152-2.363-9.137.374-.18.3-.84.868-.812A24.979,24.979,0,0,1,112.126,329.11Z" transform="translate(-97.742 -307.426)" fill="#eb7326"/>
      <path id="패스_48" data-name="패스 48" d="M123.866,297.409a6.22,6.22,0,0,1-2.5-.766c-.475-.161-.937-.48-1.334.12-.152-.245-.318-.485-.452-.738a4.142,4.142,0,0,0-5.03-2.289c-.808.189-1.6.471-2.4.711a3.069,3.069,0,0,0-1.814-.637,36.908,36.908,0,0,1,4.541-2.52c2.912.891,5.621,2.349,8.588,3.087.438.111.355.526.586.748C124,295.886,123.931,296.648,123.866,297.409Z" transform="translate(-99.74 -289.085)" fill="#eb7326"/>
      <path id="패스_49" data-name="패스 49" d="M142.2,348.111a8.275,8.275,0,0,0,.521-2.561c-.009-.328.009-.886-.138-.951-1.306-.526-.388-1.214-.148-1.8a6.825,6.825,0,0,0,.508-2.81c-.023-.725-.332-.992-1.034-.8a1.411,1.411,0,0,0,.651-1.412c-.226-1.551-.088-3.1-.171-4.647-.018-.309-.231-.42-.5-.475a9.091,9.091,0,0,1,1.975-1.3,1.22,1.22,0,0,1,.5,1.4,1.368,1.368,0,0,0,.369,1.44c-.138.434-.291.863-.415,1.3-.628,2.215-1.094,4.444-.378,6.738a49.563,49.563,0,0,0,.245,7.675,4.8,4.8,0,0,1-1.514,1.034,4.721,4.721,0,0,1-.051-1.837C142.735,348.762,142.818,348.24,142.2,348.111Z" transform="translate(-116.73 -310.658)" fill="#f19025"/>
      <path id="패스_50" data-name="패스 50" d="M100.458,296.745a3.049,3.049,0,0,1,1.814.637,14.88,14.88,0,0,0-3.5,2.326c-1.869,1.629-2.123,3.014-.983,5.939-2.044-1.541-3.849-2.9-5.806-4.375C94.915,299.7,97.689,298.222,100.458,296.745Z" transform="translate(-89.853 -292.02)" fill="#e75627"/>
      <path id="패스_51" data-name="패스 51" d="M149.709,304.04a1.243,1.243,0,0,0-1.329-.78,10.993,10.993,0,0,1,.618-2.52c2.94.549,5.616,1.874,8.408,2.843a.649.649,0,0,1,.392.6q-1.641,1.364-3.286,2.723c-.6-.2-1.1-.674-1.781-.609a1.818,1.818,0,0,0-.258-2.681C151.472,302.821,150.521,303.186,149.709,304.04Z" transform="translate(-120.225 -294.174)" fill="#eb7326"/>
      <path id="패스_52" data-name="패스 52" d="M134.99,343.475q-1.516,1.661-3.027,3.327c-.148-.1-.3-.189-.443-.286.148-2.483.18-4.975.508-7.435.125-.946,1.357-1.232,2.164-1.721a5.745,5.745,0,0,1,.609,2.875C134.88,341.315,134.58,342.418,134.99,343.475Z" transform="translate(-111.145 -313.894)" fill="#eb7326"/>
      <path id="패스_53" data-name="패스 53" d="M105.8,341.306c0,.715-.009,1.431,0,2.146,0,.369-.078.789.457.9a18.191,18.191,0,0,0,.378,3.277c-.941.7-.452,1.735-.6,2.617-.757-.521-1.509-1.043-2.266-1.564a25.493,25.493,0,0,0,.231-5.778c-.032-.914-.3-1.814.249-2.658a11.236,11.236,0,0,1-.674-2.7,1.476,1.476,0,0,1,1.3,1.232A5.1,5.1,0,0,0,105.8,341.306Z" transform="translate(-96.094 -313.991)" fill="#ef8524"/>
      <path id="패스_54" data-name="패스 54" d="M129.354,293.7c-.231-.217-.143-.637-.586-.748-2.967-.734-5.676-2.192-8.588-3.087q1.094-.609,2.183-1.214c1.569.115,2.93.914,4.4,1.352a6.456,6.456,0,0,1,2.7,1.218Q129.417,292.46,129.354,293.7Z" transform="translate(-105.039 -287.663)" fill="#ef8524"/>
      <path id="패스_55" data-name="패스 55" d="M158.531,301.974a.649.649,0,0,0-.392-.6c-2.8-.969-5.473-2.294-8.408-2.843.5-2.238.508-2.252,2.566-1.274,2.5,1.186,4.979,2.391,7.49,3.6A3.726,3.726,0,0,1,158.531,301.974Z" transform="translate(-120.952 -291.965)" fill="#ef8524"/>
      <path id="패스_56" data-name="패스 56" d="M138.1,341.762c-.411-1.057-.111-2.16-.194-3.24a5.745,5.745,0,0,0-.609-2.875l2.118-1.468c.268.055.48.166.5.475.083,1.546-.051,3.1.171,4.647a1.408,1.408,0,0,1-.651,1.412C138.989,341.065,138.546,341.416,138.1,341.762Z" transform="translate(-114.258 -312.182)" fill="#ef8524"/>
      <path id="패스_57" data-name="패스 57" d="M102.37,342.571c-.554.845-.282,1.744-.249,2.658a25.5,25.5,0,0,1-.231,5.778c-.5-.374-1.006-.743-1.5-1.117a6.27,6.27,0,0,0,0-2.926c.909-.734.531-1.666.346-2.529a12.918,12.918,0,0,0-.637-1.74c.046-.351-.023-.766.5-.826A5.72,5.72,0,0,0,102.37,342.571Z" transform="translate(-94.22 -316.323)" fill="#f29722"/>
      <path id="패스_58" data-name="패스 58" d="M132.022,290.069a6.541,6.541,0,0,0-2.7-1.218c-1.472-.438-2.834-1.237-4.4-1.352a3.33,3.33,0,0,1,4.393-.309c1.864,1.1,3.895,1.911,6.193,3C134.094,290.364,133.061,289.764,132.022,290.069Z" transform="translate(-107.591 -286.512)" fill="#f29722"/>
      <path id="패스_59" data-name="패스 59" d="M150.523,353.26a4.126,4.126,0,0,1,.268,2.224,20.285,20.285,0,0,0,.254,4.13,6.135,6.135,0,0,1-1.781,1.283c0-1.463.046-2.93,0-4.393-.023-.725.281-1.5-.258-2.174C149.508,353.975,150.015,353.615,150.523,353.26Z" transform="translate(-120.559 -322.456)" fill="#f4aa21"/>
      <path id="패스_60" data-name="패스 60" d="M147.534,355.235c.545.669.235,1.449.258,2.174.051,1.463.009,2.93,0,4.393a3.6,3.6,0,0,1-1.246.812,49,49,0,0,1-.245-7.675A1.542,1.542,0,0,0,147.534,355.235Z" transform="translate(-119.092 -323.361)" fill="#f29722"/>
      <path id="패스_61" data-name="패스 61" d="M98.32,319.794a8.779,8.779,0,0,1,.032-3.364l2.035,1.717c-.014.8-.028,1.606-.037,2.409-.392,1.149.669,2.123.443,3.267a1.491,1.491,0,0,1-1.324-1.177C99.137,321.682,99.114,320.579,98.32,319.794Z" transform="translate(-93.179 -302.623)" fill="#f4aa21"/>
      <path id="패스_62" data-name="패스 62" d="M94.506,346.912a2.05,2.05,0,0,1-1.334-1.791c-.291-2.2-.715-4.38-1.112-6.692.891,1.117,1.717,2.118,2.492,3.152.263.346.66.835.217,1.214-.36.3-.614-.272-.918-.448-.175-.1-.341-.217-.6-.388a3.409,3.409,0,0,0,2.04,3.124C94.289,345.371,94.6,346.229,94.506,346.912Z" transform="translate(-89.896 -314.47)" fill="#f8c02f"/>
      <path id="패스_63" data-name="패스 63" d="M147.038,332.14a1.361,1.361,0,0,1-.369-1.44,1.223,1.223,0,0,0-.5-1.4,12.007,12.007,0,0,1,2.58-1.767c.18.365.36.734.54,1.1A27.5,27.5,0,0,0,147.038,332.14Z" transform="translate(-119.035 -308.601)" fill="#f4aa21"/>
      <path id="패스_64" data-name="패스 64" d="M108.9,362.007c.152-.886-.337-1.915.6-2.617a8.549,8.549,0,0,0,.378,1.029c.618,1.214,1.228,2.455,2.843,2.584a2.446,2.446,0,0,0-.508,1.421A27.964,27.964,0,0,1,108.9,362.007Z" transform="translate(-98.964 -325.758)" fill="#eb7326"/>
      <path id="패스_65" data-name="패스 65" d="M172.288,326.835c-.208,2.155-.42,4.31-.651,6.705-.965-1.3-1.449-2.344-.7-3.724a22.571,22.571,0,0,0,1.14-3.037C172.15,326.794,172.219,326.817,172.288,326.835Z" transform="translate(-132.175 -308.197)" fill="#f8c02f"/>
      <path id="패스_66" data-name="패스 66" d="M133.783,373.415c.055-.06.111-.125.166-.185.106.554.217,1.112.323,1.666q-1.924,1.35-3.849,2.7l-.323-.309c.66-1.583,2.271-2.391,3.378-3.6C133.58,373.595,133.681,373.5,133.783,373.415Z" transform="translate(-110.381 -333.211)" fill="#eb7326"/>
      <path id="패스_67" data-name="패스 67" d="M138.773,371.907c-.106-.554-.217-1.112-.323-1.666a13.557,13.557,0,0,0,1.9-2.561c.614.125.535.651.429,1a4.718,4.718,0,0,0,.051,1.837A9.792,9.792,0,0,1,138.773,371.907Z" transform="translate(-114.877 -330.222)" fill="#ef8524"/>
      <path id="패스_68" data-name="패스 68" d="M102.9,322.549c.014-.8.028-1.606.037-2.409.872.775,1.98,1.3,2.538,2.4-.568-.028-.494.632-.868.812C104.04,323.089,103.472,322.821,102.9,322.549Z" transform="translate(-95.733 -304.621)" fill="#f19025"/>
      <path id="패스_69" data-name="패스 69" d="M97.36,354.672c.1-.683-.217-1.537.785-1.832.254.009.508.023.766.032a6.27,6.27,0,0,1,0,2.926Z" transform="translate(-92.75 -322.23)" fill="#f4aa21"/>
      <path id="패스_70" data-name="패스 70" d="M135.909,358.586c-.074-1.08-.166-2,.766-2.612.171-.111.351-.332.535-.171a.746.746,0,0,1,.166.554A3.107,3.107,0,0,1,135.909,358.586Z" transform="translate(-113.486 -323.795)" fill="#ef8524"/>
      <path id="패스_71" data-name="패스 71" d="M135.364,367.929c-.143-1.3-.106-2.4,1.214-2.949C137.034,366.055,136.771,366.734,135.364,367.929Z" transform="translate(-113.185 -328.768)" fill="#eb7326"/>
      <path id="패스_72" data-name="패스 72" d="M125.008,330.738l-.028.023.009-.051Z" transform="translate(-107.623 -310.313)" fill="#e75627"/>
      <path id="패스_73" data-name="패스 73" d="M160.59,314.632c.106-.074.208-.148.314-.222C160.844,314.553,160.77,314.668,160.59,314.632Z" transform="translate(-126.8 -301.535)" fill="#eb7326"/>
      <path id="패스_74" data-name="패스 74" d="M137.725,373.63c-.1.092-.2.18-.3.272C137.522,373.81,137.623,373.718,137.725,373.63Z" transform="translate(-114.323 -333.426)" fill="#ef8524"/>
      <path id="패스_75" data-name="패스 75" d="M159.362,356.094c-.065.088-.125.24-.249.125-.046-.042.028-.208.046-.318C159.223,355.965,159.293,356.029,159.362,356.094Z" transform="translate(-125.996 -323.878)" fill="#f0efee"/>
      <path id="패스_76" data-name="패스 76" d="M153.027,335.791c-.217,1.412-.152,2.87-.9,4.149-.189.323-.369.748-.808.683-.489-.074-.438-.577-.434-.923a11.681,11.681,0,0,1,.641-4.195c.2-.508.489-1.214,1.025-1.108C153.124,334.508,152.962,335.279,153.027,335.791Z" transform="translate(-121.572 -312.293)" fill="#f8bb1d"/>
      <path id="패스_77" data-name="패스 77" d="M112.21,355.164c.074-.3-.138-.706.217-.808.425-.12.568.309.641.609.226.881.406,1.777.586,2.672.051.254.028.572-.235.646-.351.1-.5-.245-.6-.494A10.882,10.882,0,0,1,112.21,355.164Z" transform="translate(-100.747 -323.035)" fill="#f8c02f"/>
    </g>
  </g>
</svg>
