<svg xmlns="http://www.w3.org/2000/svg" width="18.839" height="18.811" viewBox="0 0 18.839 18.811">
  <path id="search_ico_b" d="M24.5,25.339l-6.742-6.714a6.148,6.148,0,0,1-1.928,1.124,6.59,6.59,0,0,1-2.289.4,6.509,6.509,0,0,1-4.786-1.956A6.477,6.477,0,0,1,6.8,13.436a6.444,6.444,0,0,1,1.956-4.73A6.477,6.477,0,0,1,13.514,6.75a6.477,6.477,0,0,1,4.758,1.956,6.444,6.444,0,0,1,1.956,4.73,6.627,6.627,0,0,1-.4,2.275,6.514,6.514,0,0,1-1.151,2l6.77,6.742a.611.611,0,0,1,.194.444.578.578,0,0,1-.222.444.6.6,0,0,1-.472.222.527.527,0,0,1-.444-.222ZM13.542,18.9a5.192,5.192,0,0,0,3.829-1.6,5.294,5.294,0,0,0,1.581-3.87A5.4,5.4,0,0,0,13.542,8a5.4,5.4,0,0,0-5.466,5.438A5.424,5.424,0,0,0,13.542,18.9Z" transform="translate(-6.8 -6.75)" fill="#1d1d1d"/>
</svg>
