<svg xmlns="http://www.w3.org/2000/svg" width="26.516" height="18.562" viewBox="0 0 26.516 18.562">
  <path id="sns_youtube" d="M157.572,236.149a3.322,3.322,0,0,0-2.344-2.344c-2.068-.555-10.36-.555-10.36-.555s-8.293,0-10.36.555a3.324,3.324,0,0,0-2.345,2.344,37.078,37.078,0,0,0,0,12.766,3.319,3.319,0,0,0,2.345,2.344c2.069.554,10.36.554,10.36.554s8.291,0,10.36-.554a3.322,3.322,0,0,0,2.344-2.344,37.077,37.077,0,0,0,0-12.766Zm-15.356,10.36v-7.955l6.889,3.978Z" transform="translate(-131.61 -233.25)" fill="#fff"/>
</svg>
