<svg xmlns="http://www.w3.org/2000/svg" width="23.699" height="23.686" viewBox="0 0 23.699 23.686">
  <g id="인스타" transform="translate(-6.3 -9)" opacity="0.7">
    <g id="그룹_2" data-name="그룹 2" transform="translate(6.3 9)">
      <path id="SVGID_1_" d="M13.24,9.081a8.521,8.521,0,0,0-2.878.551A5.971,5.971,0,0,0,8.277,11a5.684,5.684,0,0,0-1.358,2.1,8.865,8.865,0,0,0-.551,2.878c-.054,1.264-.067,1.668-.067,4.882s.027,3.618.081,4.882a8.364,8.364,0,0,0,.551,2.865,5.9,5.9,0,0,0,1.372,2.1,5.684,5.684,0,0,0,2.1,1.358,8.865,8.865,0,0,0,2.878.551c1.264.054,1.668.067,4.882.067s3.618-.013,4.882-.081a8.52,8.52,0,0,0,2.878-.551,5.9,5.9,0,0,0,2.1-1.372,5.684,5.684,0,0,0,1.358-2.1,8.865,8.865,0,0,0,.551-2.878c.054-1.264.067-1.668.067-4.882s-.013-3.618-.081-4.882a8.52,8.52,0,0,0-.551-2.878A5.9,5.9,0,0,0,28,10.964a5.684,5.684,0,0,0-2.1-1.358,8.865,8.865,0,0,0-2.878-.551C21.741,9.013,21.337,9,18.123,9s-3.618.027-4.882.081m.135,21.4a6.568,6.568,0,0,1-2.192-.4A3.956,3.956,0,0,1,8.936,27.83a6.554,6.554,0,0,1-.417-2.192c-.054-1.251-.067-1.627-.081-4.788s0-3.537.054-4.788a6.568,6.568,0,0,1,.4-2.192,3.956,3.956,0,0,1,2.246-2.246,6.925,6.925,0,0,1,2.192-.417c1.251-.054,1.627-.067,4.775-.081s3.537,0,4.788.054a6.568,6.568,0,0,1,2.192.4,3.561,3.561,0,0,1,1.358.888,3.666,3.666,0,0,1,.888,1.358,6.925,6.925,0,0,1,.417,2.192c.054,1.251.067,1.627.081,4.775s0,3.537-.054,4.788a6.753,6.753,0,0,1-.4,2.206,3.956,3.956,0,0,1-2.246,2.246,6.925,6.925,0,0,1-2.192.417c-1.251.054-1.627.067-4.788.081s-3.524,0-4.775-.054m9.657-15.966a1.419,1.419,0,1,0,1.412-1.426,1.424,1.424,0,0,0-1.412,1.426M12.07,20.85a6.08,6.08,0,1,0,6.066-6.093A6.073,6.073,0,0,0,12.07,20.85m2.125,0a3.948,3.948,0,1,1,3.954,3.941A3.958,3.958,0,0,1,14.2,20.85" transform="translate(-6.3 -9)" fill="#fff"/>
    </g>
  </g>
</svg>
