<svg xmlns="http://www.w3.org/2000/svg" width="28.485" height="19.638" viewBox="0 0 28.485 19.638">
  <path id="sns_twitter" d="M277.985,23.086a6.9,6.9,0,0,1-3.224-.328,3.455,3.455,0,0,0,3.1-1.848,5.1,5.1,0,0,1-3.358.372c-.05-.234-.1-.455-.157-.653-.753-2.772-3.335-5-6.036-4.731.218-.087.439-.171.663-.244.3-.107,2.042-.392,1.768-1.008-.234-.542-2.367.408-2.769.536.529-.2,1.409-.542,1.5-1.152a4.22,4.22,0,0,0-2.226,1.055,1.524,1.524,0,0,0,.429-.847c-2.166,1.386-3.435,4.178-4.46,6.89a10.64,10.64,0,0,0-2.159-1.738,56.617,56.617,0,0,0-7.309-3.221c-.1,1.115.552,2.6,2.434,3.586a5.951,5.951,0,0,0-1.751.208c.244,1.279,1.038,2.334,3.191,2.839a2.6,2.6,0,0,0-1.952.773,3.308,3.308,0,0,0,3.509,1.721c-2.186.944-.894,2.692.887,2.431a7.544,7.544,0,0,1-10.563.281c7.171,9.783,22.76,5.785,25.083-3.636A4.32,4.32,0,0,0,277.985,23.086Z" transform="translate(-249.5 -14.03)" fill="#fff" fill-rule="evenodd"/>
</svg>
