<svg xmlns="http://www.w3.org/2000/svg" width="191.517" height="38.922" viewBox="0 0 191.517 38.922">
  <g id="logo" transform="translate(-1079.914 -522.134)">
    <path id="패스_1" data-name="패스 1" d="M1125.686,542.249a9.776,9.776,0,0,0-4.046-1.157c-1.156,0-1.891.421-1.891,1.1,0,1.944,6.515,1.366,6.515,5.883,0,2.47-2.049,3.889-4.938,3.889a8.357,8.357,0,0,1-4.623-1.261v-2.785c1.839,1.261,2.941,1.681,4.36,1.681,1.261,0,1.891-.42,1.891-1.208,0-2.1-6.514-1.313-6.514-5.937,0-2.258,1.891-3.73,4.886-3.73a10.154,10.154,0,0,1,4.36,1.05v2.47Z" transform="translate(5.263 2.391)" fill-rule="evenodd"/>
    <path id="패스_2" data-name="패스 2" d="M1134.252,549.6c-.263,0-.474-.157-.474-.577V545.03c0-1.892-1.47-2.628-3.677-2.628a7,7,0,0,0-3.73,1.051v2.207a4.842,4.842,0,0,1,3.2-1.419c1.156,0,1.524.63,1.471,1.419-3.626,1.155-5.148,1.575-5.148,3.624a2.334,2.334,0,0,0,2.416,2.154,4.8,4.8,0,0,0,2.889-1c.158.736.63,1,1.524,1a5.588,5.588,0,0,0,2.574-.788v-1.524c-.63.42-.841.472-1.05.472Zm-3.2-.42a2.449,2.449,0,0,1-1.471.63.886.886,0,0,1-.893-.893c0-.892.735-1.26,2.365-1.839v2.1Z" transform="translate(6.626 2.92)" fill-rule="evenodd"/>
    <path id="패스_3" data-name="패스 3" d="M1133.8,542.541h2.942l1.839,4.781,1.891-4.781h2.89l-3.993,8.878h-1.523l-4.045-8.878Z" transform="translate(7.763 2.94)" fill-rule="evenodd"/>
    <path id="패스_4" data-name="패스 4" d="M1145.313,547.341h6.253a4.553,4.553,0,1,0-9.089-.367c0,2.678,2,4.465,5.043,4.465a6.292,6.292,0,0,0,3.887-1.156v-1.734a5.13,5.13,0,0,1-3.257,1.261,2.537,2.537,0,0,1-2.838-2.469Zm1.944-3.31a1.847,1.847,0,0,1,1.891,1.891h-3.782a1.819,1.819,0,0,1,1.891-1.891Z" transform="translate(9.014 2.92)" fill-rule="evenodd"/>
    <path id="패스_5" data-name="패스 5" d="M1162.249,544.775H1159.1v3.573a1.271,1.271,0,0,0,1.312,1.419,3.946,3.946,0,0,0,1.84-.526v2a6.573,6.573,0,0,1-2.523.526c-1.839,0-3.414-.841-3.414-3.257v-3.731H1155.1v-.525l3.624-4.1h.368v2.733h3.152v1.89Z" transform="translate(10.834 2.596)" fill-rule="evenodd"/>
    <path id="패스_6" data-name="패스 6" d="M1165,544.376h.053a3.4,3.4,0,0,1,2.785-1.471,3.015,3.015,0,0,1,3.152,3.311v5.568h-2.732v-4.99c0-1.313-.525-1.892-1.419-1.892-.63,0-1.156.421-1.839,1.315v5.568h-2.732V538.913H1165v5.463Z" transform="translate(11.866 2.418)" fill-rule="evenodd"/>
    <path id="패스_7" data-name="패스 7" d="M1174.013,547.341h6.252a4.553,4.553,0,1,0-9.09-.367c0,2.678,1.944,4.465,5.044,4.465a6.294,6.294,0,0,0,3.888-1.156v-1.734a5.131,5.131,0,0,1-3.257,1.261c-1.733,0-2.785-.893-2.837-2.469Zm1.944-3.31c1.051,0,1.734.683,1.891,1.891h-3.782a1.819,1.819,0,0,1,1.891-1.891Z" transform="translate(13.149 2.92)" fill-rule="evenodd"/>
    <path id="패스_8" data-name="패스 8" d="M1196.91,550.708a10.271,10.271,0,0,1-5.043,1.261c-5.043,0-7.512-3.257-7.512-6.567,0-3.415,2.837-6.672,7.721-6.672a9.2,9.2,0,0,1,4.677,1.156v2.89a9.048,9.048,0,0,0-4.414-1.366c-2.732,0-4.676,1.628-4.676,3.94s1.891,3.94,4.571,3.94a9.959,9.959,0,0,0,4.676-1.419v2.837Z" transform="translate(15.048 2.391)" fill-rule="evenodd"/>
    <path id="패스_9" data-name="패스 9" d="M1199.714,544.376h.053a3.4,3.4,0,0,1,2.785-1.471,3.014,3.014,0,0,1,3.152,3.311v5.568h-2.732v-4.99c0-1.313-.578-1.892-1.419-1.892-.629,0-1.156.421-1.839,1.315v5.568h-2.731V538.913h2.731v5.463Z" transform="translate(16.868 2.418)" fill-rule="evenodd"/>
    <path id="패스_10" data-name="패스 10" d="M1206.3,542.541h2.732v8.721H1206.3v-8.721Z" transform="translate(18.211 2.94)" fill-rule="evenodd"/>
    <path id="패스_11" data-name="패스 11" d="M1209.214,540.253a1.524,1.524,0,1,1-1.524-1.524,1.525,1.525,0,0,1,1.524,1.524Z" transform="translate(18.191 2.391)" fill-rule="evenodd"/>
    <path id="패스_12" data-name="패스 12" d="M1210.437,538.913h2.732v12.871h-2.732V538.913Z" transform="translate(18.806 2.418)" fill-rule="evenodd"/>
    <path id="패스_13" data-name="패스 13" d="M1220.626,538.913v4.518a4.924,4.924,0,0,0-2.26-.526,4.533,4.533,0,0,0-.158,9.037,3.766,3.766,0,0,0,2.418-.841v.683h2.732V538.913Zm0,10.506a2.45,2.45,0,0,1-1.628.683c-1.262,0-2.1-1.05-2.1-2.626,0-1.734.841-2.732,2.207-2.732a3.23,3.23,0,0,1,1.524.472v4.2Z" transform="translate(19.335 2.418)" fill-rule="evenodd"/>
    <path id="패스_14" data-name="패스 14" d="M1226.624,545.083h.051c.788-1.84,1.734-2.681,2.785-2.681a2.986,2.986,0,0,1,1.786.789l-.736,2.416a3.042,3.042,0,0,0-1.628-.63c-1,0-1.628.945-2.258,2.522v3.782h-2.732v-8.72h2.732v2.522Z" transform="translate(20.745 2.92)" fill-rule="evenodd"/>
    <path id="패스_15" data-name="패스 15" d="M1233.341,547.341h6.251a4.553,4.553,0,1,0-9.089-.367c0,2.678,2,4.465,5.043,4.465a6.293,6.293,0,0,0,3.888-1.156v-1.734a4.906,4.906,0,0,1-3.2,1.261,2.554,2.554,0,0,1-2.889-2.469Zm1.944-3.31a1.849,1.849,0,0,1,1.891,1.891h-3.783a1.849,1.849,0,0,1,1.892-1.891Z" transform="translate(21.698 2.92)" fill-rule="evenodd"/>
    <path id="패스_16" data-name="패스 16" d="M1242.42,543.821a3.433,3.433,0,0,1,2.836-1.419,3.055,3.055,0,0,1,3.153,3.311v5.568h-2.732v-5.306c0-1.261-.578-1.733-1.366-1.733-.683,0-1.209.367-1.891,1.419v5.621h-2.732v-8.72h2.732v1.26Z" transform="translate(23.021 2.92)" fill-rule="evenodd"/>
    <path id="패스_17" data-name="패스 17" d="M1114.5,532.714c1.733-1.786,2.522-2.574,2.416-3.1a1.763,1.763,0,0,0-1-.946,2.6,2.6,0,0,0-1.839-.211,4.661,4.661,0,0,0-1,.893l-.525.525h0c-.316-.367-.63-.683-.946-1a17.306,17.306,0,0,0-8.458-4.676,5.2,5.2,0,0,0-4.518-2.048,5.059,5.059,0,0,0-3.677,2.1,19.8,19.8,0,0,0-9.037,4.885h0a4.052,4.052,0,0,0-2.416.262c-.42.212-.683.474-.736.737-.1.262,0,.578.841,1.681h0a19.068,19.068,0,0,0-3.677,12.136,17.412,17.412,0,0,0,5.043,11.5,16.4,16.4,0,0,0,3.573,2.785,21.428,21.428,0,0,0,19.858.683v-.053a1.025,1.025,0,0,0,.525-1.366l-.051-.158c-.841-2.311-3.415-9.351-1.313-15.393.892-2.575,3.152-5.2,5.043-7.25h0a17.027,17.027,0,0,1,2.049,9.981,15.317,15.317,0,0,1-3.731,8.512h0a.4.4,0,0,0-.052.263v.1l.157.474a.353.353,0,0,0,.368.209.288.288,0,0,0,.262-.105h0a18.7,18.7,0,0,0,2.837-21.434ZM1091.494,545.9a36.308,36.308,0,0,0-1.156,10.3h0a16.87,16.87,0,0,1-3.415-2.627,17.5,17.5,0,0,1-4.991-10.349,15.953,15.953,0,0,1,2.469-10.4h0c.578.734,1.367,1.575,2.154,2.469a54.83,54.83,0,0,1,5.1,6.409c.63,1,.315,2.207-.158,4.2Zm19.071-14.133c-4.1,3.52-7.828,5.359-11.138,5.412a13.4,13.4,0,0,1-7.723-2.785,27.345,27.345,0,0,1-4.781-4.36l-.105-.105h0a15,15,0,0,1,7.145-3.782h0a8.161,8.161,0,0,0-.367,3.2,7.274,7.274,0,0,0,2.469,5.043,5.029,5.029,0,0,0,7.2-.63,7.569,7.569,0,0,0,1.577-5.359q-.079-.551-.158-1.1h0a17.226,17.226,0,0,1,4.99,3.52,7.9,7.9,0,0,1,.894.945Z" transform="translate(0 0)" fill="#e00d26" fill-rule="evenodd"/>
  </g>
</svg>
