<svg xmlns="http://www.w3.org/2000/svg" width="258.042" height="291.545" viewBox="0 0 258.042 291.545">
  <g id="circle_txt" transform="translate(-1278.811 -310.66)">
    <g id="그룹_3" data-name="그룹 3" transform="translate(1278.811 310.66)">
      <path id="패스_13" data-name="패스 13" d="M1286.651,360.264a19.9,19.9,0,0,1,.455,6.717,14.653,14.653,0,0,1-1.78,5.779l-2.776-.985a13.034,13.034,0,0,0,1.8-5.126,17.554,17.554,0,0,0-.175-5.984,15.6,15.6,0,0,0-2.2-5.5l-3.167-4.818,1.933-1.27,3.166,4.818A19.734,19.734,0,0,1,1286.651,360.264Zm1.671-2.61a17,17,0,0,0,5.311,2.4,13.1,13.1,0,0,0,5.356.324l-.217,2.782a14.592,14.592,0,0,1-5.918-.518,18.972,18.972,0,0,1-5.867-2.871,18.2,18.2,0,0,1-4.653-4.842l-3.166-4.818,1.962-1.29,3.167,4.818A14.267,14.267,0,0,0,1288.322,357.654Zm21.118,7.219-2.349,1.544-17.415-26.495,2.35-1.544Z" transform="translate(-1278.811 -317.336)" fill="#fff"/>
      <path id="패스_14" data-name="패스 14" d="M1334.027,338.179l-13.971,5-4.941-13.8,13.97-5Zm-12.146,1.967,8.811-3.153-3.406-9.515-8.812,3.154Zm8.543,11.834-2.612.934-2.915-8.14,2.614-.936Zm18.012-5.012-20.17,7.22-.78-2.178,20.169-7.219Zm-3.564-7-2.614.935-7.663-21.408,2.613-.935Z" transform="translate(-1287.555 -312.563)" fill="#fff"/>
      <path id="패스_15" data-name="패스 15" d="M1375.635,334.213a89.47,89.47,0,0,0,9.662-1.886l.424,2.031a68.225,68.225,0,0,1-6.826,1.623q-3.565.66-6.678,1.07t-6.955.8l-.633-2.331Q1370.523,334.935,1375.635,334.213Zm1.537-19.171a7.3,7.3,0,0,1,3.279,2.311,7.412,7.412,0,0,1,.789,7.681,7.3,7.3,0,0,1-2.74,2.929,10.773,10.773,0,0,1-8.77.9,7.276,7.276,0,0,1-3.287-2.309,7.407,7.407,0,0,1-.788-7.682,7.264,7.264,0,0,1,2.748-2.93,10.023,10.023,0,0,1,4.3-1.39A9.918,9.918,0,0,1,1377.172,315.043Zm-7.127,2.878a4.91,4.91,0,0,0-1.873,1.972,4.634,4.634,0,0,0-.477,2.651,4.55,4.55,0,0,0,1.005,2.491,5.1,5.1,0,0,0,2.235,1.541,7.272,7.272,0,0,0,5.937-.61,4.956,4.956,0,0,0,1.865-1.962,4.623,4.623,0,0,0,.462-2.641,4.682,4.682,0,0,0-3.216-4.052,7.465,7.465,0,0,0-5.938.61Zm21.166,24.28-2.762.284-3.239-31.541,2.761-.283Z" transform="translate(-1299.48 -310.66)" fill="#fff"/>
      <path id="패스_16" data-name="패스 16" d="M1440.129,323.469a5.421,5.421,0,0,1,1.929,2.368,4.887,4.887,0,0,1,.2,2.982,4.75,4.75,0,0,1-1.45,2.555,5.613,5.613,0,0,1-2.759,1.312,8.749,8.749,0,0,1-3.6-.119,8.659,8.659,0,0,1-3.28-1.432,5.605,5.605,0,0,1-1.921-2.366,4.745,4.745,0,0,1-.215-2.93,4.884,4.884,0,0,1,1.464-2.607,5.417,5.417,0,0,1,2.749-1.314,8.86,8.86,0,0,1,3.572.131A8.992,8.992,0,0,1,1440.129,323.469Zm4.947-1.312-15.83-3.566.493-2.188,15.829,3.567Zm2.6,16.125a8.026,8.026,0,0,1,3.149,2.652,4.1,4.1,0,0,1,.569,3.22,3.943,3.943,0,0,1-1.878,2.595,8.262,8.262,0,0,1-3.986,1.008,25.827,25.827,0,0,1-11.152-2.514,8.188,8.188,0,0,1-3.149-2.615,3.888,3.888,0,0,1-.559-3.144,4.049,4.049,0,0,1,1.868-2.671,7.972,7.972,0,0,1,3.975-1.046,25.827,25.827,0,0,1,11.161,2.515Zm-13.548-14.306a3.5,3.5,0,0,0-1.733.813,2.93,2.93,0,0,0-.926,1.6,2.806,2.806,0,0,0,.162,1.788,3.565,3.565,0,0,0,1.222,1.461,5.6,5.6,0,0,0,2.062.884,5.722,5.722,0,0,0,2.26.09,3.416,3.416,0,0,0,1.729-.8,2.858,2.858,0,0,0,.9-1.549,3,3,0,0,0-.134-1.836,3.374,3.374,0,0,0-1.217-1.477,5.718,5.718,0,0,0-2.079-.888A5.613,5.613,0,0,0,1434.124,323.976Zm3.428,14a6.388,6.388,0,0,0-2.883.526,2.251,2.251,0,0,0-1.3,1.587,2.129,2.129,0,0,0,.509,1.911,6.687,6.687,0,0,0,2.39,1.7,22.782,22.782,0,0,0,8.21,1.85,6.69,6.69,0,0,0,2.887-.507,2.236,2.236,0,0,0,1.313-1.5,2.348,2.348,0,0,0-.523-2,6.453,6.453,0,0,0-2.38-1.7,24.562,24.562,0,0,0-8.228-1.853Zm1.208-18.231-2.708-.61,1.065-4.721,2.706.61Zm7.31,15.8-2.57-.578,4.014-17.809,2.57.578Zm6.639-6.639-5.971-1.345.509-2.255,5.972,1.344Zm-.156,9.268-2.6-.587,4.405-19.545,2.6.588Z" transform="translate(-1314.961 -311.565)" fill="#fff"/>
      <path id="패스_17" data-name="패스 17" d="M1496.591,355.557l-25.82-12.814,1.03-2.072,25.818,12.814Zm-8.946,10.021-2.517-1.25,3.368-6.79-17.244-8.558,1-2.009,19.762,9.809Zm-4.6-32.673,14.024,6.961,1.63-3.283,2.486,1.234-5.252,10.582-19-9.429,5.253-10.582,2.485,1.234Zm11.4,12.252,1.677-3.379-14.024-6.961-1.677,3.379Zm-8.822,3.209-2.486-1.234,2.452-4.941,2.485,1.234Z" transform="translate(-1325.046 -314.93)" fill="#fff"/>
      <path id="패스_18" data-name="패스 18" d="M1521.795,392.275l-17.213-14.529,1.423-1.686,17.213,14.529Zm2.8-4.808-14.358-12.119-2.479,2.937-2.12-1.79,3.809-4.515,14.385,12.142,1.86-2.2-14.44-12.188,1.379-1.632,16.532,13.955Zm9.162-5.117-22.026-18.592,1.47-1.74,22.025,18.591Zm3.127-16.71a8.556,8.556,0,0,1,1.736,3.887,3.918,3.918,0,0,1-.91,3.12,4.012,4.012,0,0,1-2.957,1.462,8.481,8.481,0,0,1-4.134-1.034,28.32,28.32,0,0,1-9.225-7.786,8.629,8.629,0,0,1-1.72-3.907,3.986,3.986,0,0,1,.931-3.172,3.889,3.889,0,0,1,2.936-1.41,8.673,8.673,0,0,1,4.13,1.064,29.453,29.453,0,0,1,9.212,7.776Zm-9.239-5.331a7.357,7.357,0,0,0-2.921-.952,2.135,2.135,0,0,0-1.889.734,2.248,2.248,0,0,0-.458,2.046,6.947,6.947,0,0,0,1.423,2.728,22.029,22.029,0,0,0,3.167,3.185,22.252,22.252,0,0,0,3.686,2.6,6.926,6.926,0,0,0,2.928.959,2.3,2.3,0,0,0,1.953-.8,2.194,2.194,0,0,0,.4-1.99,7.332,7.332,0,0,0-1.443-2.732,21.436,21.436,0,0,0-3.163-3.205A21.14,21.14,0,0,0,1527.646,360.31Z" transform="translate(-1333.19 -321.772)" fill="#fff"/>
      <path id="패스_19" data-name="패스 19" d="M1550.722,426.706l-1.437-2.374,10.8-6.546,1.438,2.373Zm11.182-7.982a98.487,98.487,0,0,0,6.011,8.133l-1.7,1.24q-2.135-2.389-4.143-5.136t-3.724-5.357q-1.717-2.61-3.585-5.659l-.3-.495-.291-.48L1556,409.4Q1558.932,414.263,1561.9,418.723Zm-4.731,20.551-1.419-2.344,27.053-16.394,1.42,2.343Zm19.131-24.99a6.708,6.708,0,0,1-.454,3.645,6.021,6.021,0,0,1-5.767,3.5,6.763,6.763,0,0,1-3.449-1.281,10.264,10.264,0,0,1-2.875-3.167,10.134,10.134,0,0,1-1.468-4,6.931,6.931,0,0,1,.461-3.65,5.94,5.94,0,0,1,5.768-3.494,6.848,6.848,0,0,1,3.441,1.284,10.053,10.053,0,0,1,2.844,3.166A10.184,10.184,0,0,1,1576.3,414.284Zm-5.323-4.941a4.4,4.4,0,0,0-2.267-.873,3.548,3.548,0,0,0-2.2.554,3.479,3.479,0,0,0-1.5,1.686,4.538,4.538,0,0,0-.272,2.4,6.956,6.956,0,0,0,.992,2.665,7.052,7.052,0,0,0,1.917,2.135,4.619,4.619,0,0,0,2.257.891,3.526,3.526,0,0,0,2.208-.527,3.623,3.623,0,0,0,1.5-1.719,4.469,4.469,0,0,0,.266-2.428,7,7,0,0,0-1.023-2.668A6.875,6.875,0,0,0,1570.981,409.343Z" transform="translate(-1343.957 -333.579)" fill="#fff"/>
      <path id="패스_20" data-name="패스 20" d="M1572.58,478.894l-6.416-20.252,2.239-.71,6.417,20.252Zm-4.266-18.059-.827-2.611,7.362-2.332.827,2.611Zm21.677-.8a6.127,6.127,0,0,1-1.16,3.177,5.323,5.323,0,0,1-2.674,1.864,5.245,5.245,0,0,1-3.237.007,6.021,6.021,0,0,1-2.75-1.936,10.342,10.342,0,0,1-1.877-3.569,10.463,10.463,0,0,1-.531-4.03,5.964,5.964,0,0,1,1.136-3.159,5.179,5.179,0,0,1,2.658-1.832,5.256,5.256,0,0,1,3.254-.042,6.054,6.054,0,0,1,2.774,1.921,11.266,11.266,0,0,1,2.408,7.6Zm-10.967,15.289-.837-2.646,22.594-7.159.837,2.646Zm7.148-20.974a3.746,3.746,0,0,0-1.754-1.265,3.292,3.292,0,0,0-2.057.017,3.147,3.147,0,0,0-1.65,1.158,3.9,3.9,0,0,0-.688,2.037,7.966,7.966,0,0,0,1.571,4.962,3.959,3.959,0,0,0,1.744,1.287,3.21,3.21,0,0,0,2.023.022,3.369,3.369,0,0,0,1.683-1.2,3.828,3.828,0,0,0,.7-2.061,7.832,7.832,0,0,0-1.572-4.96ZM1594,464.493l-5.7-17.979,2.171-.687,5.7,17.979Zm-3.116,12.075-1.709-5.394,2.239-.709,1.71,5.393Zm1.739-20.075-.838-2.646,4.816-1.527.839,2.646Z" transform="translate(-1348.022 -343.216)" fill="#fff"/>
      <path id="패스_21" data-name="패스 21" d="M1577.762,538.8l.394-21.205,2.349.045-.4,21.2Zm1.481-18.373.052-2.81,8.29.154-.051,2.811Zm5.828,17.62.052-2.81,23.624.44-.052,2.811Zm11.178-16.795a12.663,12.663,0,0,1-4.159-3.192,13.483,13.483,0,0,1-2.608-4.667l2.2-1.347a12.837,12.837,0,0,0,2.2,4.178,10.715,10.715,0,0,0,3.434,2.867,9.259,9.259,0,0,0,4.179,1.075l1.636.03-.042,2.312-1.637-.03A12.6,12.6,0,0,1,1596.249,521.252Zm1.232,2.612a10.778,10.778,0,0,0-3.327,2.785,12.971,12.971,0,0,0-2.22,4.123l-2.215-1.429a13.54,13.54,0,0,1,2.648-4.6,12.382,12.382,0,0,1,4.1-3.073,11.24,11.24,0,0,1,5.021-1.045l1.637.03-.043,2.277-1.635-.03A7.991,7.991,0,0,0,1597.482,523.864Zm-.823,13.082.152-8.076,2.311.043-.149,8.076Zm5.681-6.869.319-17.042,2.276.043-.317,17.042Zm1.52-7.054.053-2.811,4.945.093-.052,2.81Z" transform="translate(-1350.816 -359.165)" fill="#fff"/>
      <path id="패스_22" data-name="패스 22" d="M1568.309,580.7l5.428-20.539,2.27.6-5.428,20.539Zm6.1-17.526.7-2.649,8.325,2.2-.7,2.649Zm1.631,18.061.709-2.683,22.568,5.965-.708,2.684Zm22.4-6.061a7.456,7.456,0,0,1-3.435,2.175,7.972,7.972,0,0,1-7.793-2.06,7.453,7.453,0,0,1-1.913-3.588,9.52,9.52,0,0,1,2.167-8.2,7.667,7.667,0,0,1,13.144,3.465,8.9,8.9,0,0,1-.118,4.348A9.028,9.028,0,0,1,1598.44,575.178ZM1585.8,588.75l1.445-5.47,2.27.6-1.446,5.47Zm12.383-20.955a5.036,5.036,0,0,0-1.328-2.422,5.3,5.3,0,0,0-2.48-1.41,5.146,5.146,0,0,0-5.186,1.454,5.786,5.786,0,0,0-1.392,2.548,5.876,5.876,0,0,0-.06,2.939,5.157,5.157,0,0,0,3.793,3.827,5.293,5.293,0,0,0,2.862,0,5.04,5.04,0,0,0,2.343-1.451,5.976,5.976,0,0,0,1.383-2.587A5.9,5.9,0,0,0,1598.183,567.8Z" transform="translate(-1348.539 -370.755)" fill="#fff"/>
      <path id="패스_23" data-name="패스 23" d="M1548.65,618.21l1.325-2.439,27.864,15.128-1.326,2.439Zm15.383-8.351a89.085,89.085,0,0,0-3.894,9.041l-1.915-.8a67.766,67.766,0,0,1,2.513-6.551q1.465-3.314,2.885-6.117t3.262-6.2l2.282.793Q1566.325,605.232,1564.033,609.86Zm14.959,12.089a7.289,7.289,0,0,1-3.757,1.4,7.409,7.409,0,0,1-6.787-3.685,7.3,7.3,0,0,1-.871-3.914,10.781,10.781,0,0,1,4.208-7.748,7.275,7.275,0,0,1,3.76-1.409,7.411,7.411,0,0,1,6.787,3.684,7.285,7.285,0,0,1,.867,3.922,10.772,10.772,0,0,1-4.206,7.749Zm1.646-7.508a4.9,4.9,0,0,0-.569-2.659,4.644,4.644,0,0,0-1.918-1.892,4.546,4.546,0,0,0-2.626-.575,5.087,5.087,0,0,0-2.531.973,7.274,7.274,0,0,0-2.848,5.247,4.944,4.944,0,0,0,.566,2.646,4.618,4.618,0,0,0,1.92,1.873,4.716,4.716,0,0,0,2.623.594,4.769,4.769,0,0,0,2.537-.961,7.457,7.457,0,0,0,2.847-5.246Z" transform="translate(-1343.804 -380.167)" fill="#fff"/>
      <path id="패스_24" data-name="패스 24" d="M1519.7,665.571q-2.921,1-4.555-.733-1.611-1.759-.4-4.584a20.937,20.937,0,0,1,5.031-6.425,21.167,21.167,0,0,1,6.822-4.591q2.914-1.008,4.524.75,1.635,1.734.418,4.579a20.531,20.531,0,0,1-5.1,6.43A20.289,20.289,0,0,1,1519.7,665.571Zm8.309-9.29a7.354,7.354,0,0,0,1.367-2.582,1.828,1.828,0,0,0-.34-1.773,1.788,1.788,0,0,0-1.732-.454,7.571,7.571,0,0,0-2.663,1.187,29.783,29.783,0,0,0-6.386,5.936,7.386,7.386,0,0,0-1.364,2.556,1.8,1.8,0,0,0,.339,1.75,1.838,1.838,0,0,0,1.733.478,7.176,7.176,0,0,0,2.666-1.168,29.663,29.663,0,0,0,6.38-5.929ZM1517.359,672.4l21.112-19.622,1.5,1.616-21.114,19.622Zm13.35,4.341q-2.754.944-4.267-.685t-.366-4.3a25.554,25.554,0,0,1,11.136-10.351q2.753-.956,4.269.673t.365,4.312a25.015,25.015,0,0,1-11.137,10.351Zm7.719-8.644a6.448,6.448,0,0,0,1.213-2.353,1.725,1.725,0,0,0-.35-1.631,1.651,1.651,0,0,0-1.57-.435,6.784,6.784,0,0,0-2.418,1.058,25.885,25.885,0,0,0-5.786,5.378,6.765,6.765,0,0,0-1.232,2.334,1.65,1.65,0,0,0,.321,1.6,1.724,1.724,0,0,0,1.6.468,6.423,6.423,0,0,0,2.436-1.038,25.879,25.879,0,0,0,5.787-5.378Zm-9.79,13.982,18.793-17.466,1.477,1.589-18.792,17.467Zm8.9-7.1,2.032-1.89,3.078,3.311-2.034,1.889Z" transform="translate(-1335.512 -392.12)" fill="#fff"/>
    </g>
  </g>
</svg>
