<svg width="74" height="32" viewBox="0 0 74 32" fill="none" xmlns="http://www.w3.org/2000/svg">
<path d="M16.2384 32C25.1991 32 32.4768 24.8447 32.4768 16.0035C32.4768 7.16198 25.1991 0 16.2384 0C7.26379 0 0 7.16198 0 16.0035C0 24.8447 7.26379 32 16.2384 32Z" fill="#A50034"/>
<path d="M15.585 8.98035V23.0197H20.1111V21.7573H16.8895V8.98035H15.585Z" fill="white"/>
<path d="M11.0532 12.8109C12.13 12.8109 12.998 11.9475 12.998 10.8932C12.998 9.83793 12.13 8.97122 11.0532 8.97122C9.97641 8.97122 9.1084 9.83793 9.1084 10.8932C9.1084 11.9484 9.97641 12.8109 11.0532 12.8109Z" fill="white"/>
<path d="M16.8893 2.61175C16.7196 2.60347 16.3969 2.59311 16.2428 2.59311C8.74747 2.59311 2.64746 8.61038 2.64746 15.9969C2.64746 19.5847 4.06123 22.9476 6.62198 25.4765C9.19323 27.9996 12.6052 29.3937 16.2428 29.3937C19.8665 29.3937 23.2776 27.9996 25.8442 25.4765C28.4113 22.9476 29.8317 19.5847 29.8317 15.9969V15.4007H29.2818H20.124V16.6345H28.5369C28.5369 16.6614 28.5369 16.7924 28.531 16.8263C28.1033 23.1411 22.7549 28.1425 16.2428 28.1425C12.9463 28.1425 9.85537 26.8785 7.52906 24.5828C5.19519 22.2967 3.90914 19.2512 3.90914 15.9965C3.90914 12.7604 5.19519 9.69916 7.52906 7.40601C9.85537 5.11494 12.9463 3.85092 16.2428 3.85092C16.3848 3.85092 16.7301 3.85092 16.8893 3.85921V2.61175Z" fill="white"/>
<path d="M44.6891 5.3867H39.8096V26.2168H54.7968V22.1621H44.6891V5.3867V5.3867ZM65.5309 18.2788H69.505V21.9209C68.7723 22.196 67.3434 22.4703 65.9838 22.4703C61.5921 22.4703 60.1292 20.2708 60.1292 15.8034C60.1292 11.5432 61.5224 9.03129 65.9141 9.03129C68.3547 9.03129 69.7487 9.7878 70.8974 11.2316L73.9312 8.4811C72.0834 5.87102 68.8412 5.08054 65.8099 5.08054C58.9768 5.08054 55.3875 8.75785 55.3875 15.7686C55.3875 22.7454 58.6289 26.5259 65.7754 26.5259C69.0513 26.5259 72.2582 25.7014 74.0001 24.4987V14.394H65.5309V18.2788Z" fill="#6B6B6B"/>
</svg>
