<svg xmlns="http://www.w3.org/2000/svg" width="32.4" height="40.45" viewBox="0 0 32.4 40.45">
  <path id="find" d="M24,23.55a3.536,3.536,0,0,0,2.5-6.05,3.536,3.536,0,1,0-5,5A3.414,3.414,0,0,0,24,23.55Zm0,16.2a57.422,57.422,0,0,0,9.675-10.8Q36.8,24.1,36.8,20.4a12.861,12.861,0,0,0-3.7-9.5A12.369,12.369,0,0,0,24,7.2a12.369,12.369,0,0,0-9.1,3.7,12.861,12.861,0,0,0-3.7,9.5q0,3.7,3.2,8.55A62.415,62.415,0,0,0,24,39.75Zm0,4.5A66.561,66.561,0,0,1,11.825,31.4Q7.8,25.45,7.8,20.4q0-7.6,4.875-12.1A16.182,16.182,0,0,1,24,3.8,16.182,16.182,0,0,1,35.325,8.3Q40.2,12.8,40.2,20.4q0,5.05-4.025,11A66.561,66.561,0,0,1,24,44.25ZM24,20.4Z" transform="translate(-7.8 -3.8)" fill="#fff"/>
</svg>
