<svg xmlns="http://www.w3.org/2000/svg" width="153.033" height="18.678" viewBox="0 0 153.033 18.678">
  <g id="flogo" transform="translate(-477.086 -404.66)" opacity="0.7">
    <g id="그룹_1" data-name="그룹 1" transform="translate(477.086 404.66)">
      <path id="패스_1" data-name="패스 1" d="M540.955,500.858c-6.76,0-10.823,4.189-10.823,9.343s4.063,9.335,10.823,9.335c6.776,0,10.832-4.17,10.832-9.335S547.731,500.858,540.955,500.858ZM660.382,503.4a3.847,3.847,0,0,0-.727-1.191,2.18,2.18,0,0,0-.894-.563,2.047,2.047,0,0,0-.561-.1h-3.321a2.357,2.357,0,0,0-.586.1,2.16,2.16,0,0,0-.872.563,3.57,3.57,0,0,0-.738,1.191l-6.955,15.363h2.808l2.176-4.934h8.97l2.162,4.934h5.488Zm-28.775,10.442c-.792-1.632-1.507-2.74-3.28-3a4.419,4.419,0,0,0,3.822-4.37c0-2.722-1.906-4.957-6.58-4.927h-8.045a1.962,1.962,0,0,0-1.957,2.047v15.167h4.788v-7.215h2.062a4.028,4.028,0,0,1,3.819,2.4l2.317,4.817h5.464Zm-112.155,1.831V501.549H514.3v15.171a2.042,2.042,0,0,0,2.048,2.045h13.173v-2.06h-9.047A1.029,1.029,0,0,1,519.451,515.677Zm118.118-14.127h5.371v17.217h-5.371Zm-64.4,2.069h6v15.147h5.373V503.618h7.121v-2.07h-18.5Zm-20.464,0h7.13v15.147h5.356V503.618h6.014v-2.07h-18.5Zm41.887-.026v13.129a2.051,2.051,0,0,0,2.05,2.044h14.041v-2.033h-9.909a1.024,1.024,0,0,1-1.023-1.024v-5.074h10.785v-2.017H599.753v-4.011a1.026,1.026,0,0,1,1.023-1.023h9.909v-2.035H596.644A2.048,2.048,0,0,0,594.594,503.593Zm-53.639,13.941c-3.244,0-5.713-3.285-5.713-7.332s2.469-7.333,5.713-7.333,5.71,3.284,5.71,7.333S544.2,517.533,540.955,517.533Zm110.628-5.705,3.6-8.17,3.605,8.17Zm-27.47-2.289h-3.759v-4.933a1.029,1.029,0,0,1,1.032-1.023h2.856a2.855,2.855,0,0,1,2.977,2.948A2.989,2.989,0,0,1,624.113,509.539Z" transform="translate(-514.3 -500.858)" fill="#fff" fill-rule="evenodd"/>
    </g>
  </g>
</svg>
