<svg xmlns="http://www.w3.org/2000/svg" width="40.813" height="36.7" viewBox="0 0 40.813 36.7">
  <path id="fran" d="M42.35,22.1V39a3.234,3.234,0,0,1-1.025,2.4,3.3,3.3,0,0,1-2.375,1H9a3.3,3.3,0,0,1-2.375-1A3.234,3.234,0,0,1,5.6,39V22.15a6.049,6.049,0,0,1-1.825-3.075A6.693,6.693,0,0,1,3.9,15.5L6.05,8.75A4.294,4.294,0,0,1,7.575,6.5a4.035,4.035,0,0,1,2.475-.8H37.7a4.287,4.287,0,0,1,4.2,3.05l2.2,6.75a6.425,6.425,0,0,1,.1,3.55,5.934,5.934,0,0,1-1.85,3.05ZM28.5,20.4a3.374,3.374,0,0,0,2.375-.9,2.409,2.409,0,0,0,.775-2.25L30.4,9.1H25.6v8.15a3.254,3.254,0,0,0,.825,2.2,2.632,2.632,0,0,0,2.075.95Zm-9.35,0a3.176,3.176,0,0,0,2.3-.925,2.994,2.994,0,0,0,.95-2.225V9.1H17.6l-1.25,8.15a2.546,2.546,0,0,0,.65,2.2,2.76,2.76,0,0,0,2.15.95Zm-9.1,0a2.823,2.823,0,0,0,2-.8,3.166,3.166,0,0,0,1-1.95l1.3-8.55H9.55l-2.3,7.2a3.076,3.076,0,0,0,.375,2.825A2.782,2.782,0,0,0,10.05,20.4Zm27.85,0a2.861,2.861,0,0,0,2.45-1.25,3.063,3.063,0,0,0,.4-2.85l-2.3-7.2H33.7l1.25,8.55a3.166,3.166,0,0,0,1,1.95A2.764,2.764,0,0,0,37.9,20.4ZM9,39H38.95V23.75q.05.05-.3.05H37.9a5.667,5.667,0,0,1-2.325-.5A8.627,8.627,0,0,1,33.3,21.75a5.649,5.649,0,0,1-2,1.5,6.285,6.285,0,0,1-2.65.55,7.4,7.4,0,0,1-2.575-.4A6.154,6.154,0,0,1,24,22.05a4.833,4.833,0,0,1-1.9,1.3,7.089,7.089,0,0,1-2.6.45,6.8,6.8,0,0,1-2.75-.525A5.606,5.606,0,0,1,14.7,21.75a11.34,11.34,0,0,1-2.425,1.525,5.464,5.464,0,0,1-2.225.525H9.4a1.04,1.04,0,0,1-.4-.05Zm29.95,0h0Z" transform="translate(-3.59 -5.7)" fill="#1d1d1d"/>
</svg>
