<svg xmlns="http://www.w3.org/2000/svg" width="30.806" height="30.806" viewBox="0 0 30.806 30.806">
  <path id="language_icon" d="M20.4,35.806a15.024,15.024,0,0,1-6.019-1.216,15.607,15.607,0,0,1-4.9-3.3A15.386,15.386,0,0,1,5,20.322a15.1,15.1,0,0,1,1.2-6A15.389,15.389,0,0,1,9.479,9.438a15.058,15.058,0,0,1,4.9-3.263A15.472,15.472,0,0,1,20.4,5a15.472,15.472,0,0,1,6.019,1.175,15.058,15.058,0,0,1,4.9,3.263,15.388,15.388,0,0,1,3.283,4.884,15.1,15.1,0,0,1,1.2,6,15.386,15.386,0,0,1-4.479,10.964,15.607,15.607,0,0,1-4.9,3.3A15.024,15.024,0,0,1,20.4,35.806Zm0-1.743A16.546,16.546,0,0,0,22.875,30.5,21.388,21.388,0,0,0,24.5,26.037H16.349A21,21,0,0,0,17.93,30.5,15.322,15.322,0,0,0,20.4,34.063ZM17.849,33.7A15.33,15.33,0,0,1,15.8,30.273a21.579,21.579,0,0,1-1.358-4.236H8A13.642,13.642,0,0,0,11.891,31a15.969,15.969,0,0,0,5.958,2.7ZM23,33.7a14.679,14.679,0,0,0,5.776-2.716,13.954,13.954,0,0,0,4.033-4.945H26.4a29.645,29.645,0,0,1-1.459,4.216A18.2,18.2,0,0,1,23,33.7ZM7.391,24.213H14.08q-.122-1.135-.162-2.067t-.041-1.824q0-.973.041-1.844a16.978,16.978,0,0,1,.2-1.885H7.391a13.844,13.844,0,0,0-.426,1.8,12.027,12.027,0,0,0-.142,1.925,13.1,13.1,0,0,0,.142,2.006A14.943,14.943,0,0,0,7.391,24.213Zm8.593,0h8.877q.162-1.257.223-2.108t.061-1.783q0-.851-.061-1.682t-.223-2.047H15.985q-.162,1.216-.223,2.047T15.7,20.322q0,.932.061,1.783t.223,2.108Zm10.7,0h6.729a14.943,14.943,0,0,0,.426-1.885,13.1,13.1,0,0,0,.142-2.006A12.027,12.027,0,0,0,33.84,18.4a13.843,13.843,0,0,0-.426-1.8H26.726q.122,1.338.182,2.169t.061,1.561q0,.932-.061,1.8t-.223,2.087Zm-.324-9.485h6.445a13.32,13.32,0,0,0-3.952-5.046,13.691,13.691,0,0,0-5.9-2.614,16.568,16.568,0,0,1,2.006,3.445A26.131,26.131,0,0,1,26.361,14.728Zm-10.012,0h8.188a17.662,17.662,0,0,0-1.6-4.3A17.072,17.072,0,0,0,20.4,6.824a10.843,10.843,0,0,0-2.331,3.121A24.3,24.3,0,0,0,16.349,14.728Zm-8.35,0h6.445A23.693,23.693,0,0,1,15.8,10.614a19.033,19.033,0,0,1,2.006-3.506,13.652,13.652,0,0,0-5.857,2.574A13.431,13.431,0,0,0,8,14.728Z" transform="translate(-5 -5)" fill="#666"/>
</svg>
