<svg xmlns="http://www.w3.org/2000/svg" width="31.13" height="21.792" viewBox="0 0 31.13 21.792">
  <path id="sns2" d="M162.09,236.653a3.9,3.9,0,0,0-2.752-2.752c-2.428-.652-12.162-.652-12.162-.652s-9.736,0-12.162.652a3.9,3.9,0,0,0-2.753,2.752,43.529,43.529,0,0,0,0,14.987,3.9,3.9,0,0,0,2.753,2.752c2.428.65,12.162.65,12.162.65s9.734,0,12.162-.65a3.9,3.9,0,0,0,2.752-2.752,43.529,43.529,0,0,0,0-14.987Zm-18.028,12.162v-9.34l8.087,4.671Z" transform="translate(-131.61 -233.25)" fill="#fff" opacity="0.7"/>
</svg>
