<svg xmlns="http://www.w3.org/2000/svg" width="27.311" height="27.296" viewBox="0 0 27.311 27.296">
  <g id="sns3" transform="translate(-6.3 -9)" opacity="0.7">
    <g id="그룹_28" data-name="그룹 28" transform="translate(6.3 9)">
      <path id="SVGID_1_" d="M14.3,9.093a9.819,9.819,0,0,0-3.317.636,6.881,6.881,0,0,0-2.4,1.581,6.551,6.551,0,0,0-1.566,2.418,10.216,10.216,0,0,0-.636,3.317C6.315,18.5,6.3,18.967,6.3,22.671c.016,3.7.031,4.17.093,5.627a9.639,9.639,0,0,0,.636,3.3A6.8,6.8,0,0,0,8.61,34.017a6.55,6.55,0,0,0,2.418,1.566,10.216,10.216,0,0,0,3.317.636c1.457.062,1.922.078,5.627.078,3.7-.016,4.17-.016,5.627-.093a9.819,9.819,0,0,0,3.317-.636,6.8,6.8,0,0,0,2.418-1.581A6.551,6.551,0,0,0,32.9,31.568a10.216,10.216,0,0,0,.636-3.317c.062-1.457.077-1.922.077-5.627-.016-3.7-.016-4.17-.093-5.627a9.819,9.819,0,0,0-.636-3.317A6.8,6.8,0,0,0,31.3,11.263,6.551,6.551,0,0,0,28.884,9.7a10.216,10.216,0,0,0-3.317-.636C24.094,9.016,23.629,9,19.925,9c-3.7.016-4.17.031-5.627.093m.155,24.661a7.569,7.569,0,0,1-2.527-.465A4.559,4.559,0,0,1,9.338,30.7a7.553,7.553,0,0,1-.481-2.527C8.8,26.732,8.78,26.3,8.765,22.656c0-3.643,0-4.077.062-5.518a7.569,7.569,0,0,1,.465-2.527,4.558,4.558,0,0,1,2.589-2.589,7.98,7.98,0,0,1,2.527-.481c1.442-.062,1.876-.078,5.5-.093,3.643,0,4.077,0,5.518.062a7.569,7.569,0,0,1,2.527.465A4.1,4.1,0,0,1,29.519,13a4.225,4.225,0,0,1,1.023,1.566,7.98,7.98,0,0,1,.481,2.527c.062,1.442.077,1.876.093,5.5.015,3.643,0,4.077-.062,5.518a7.782,7.782,0,0,1-.465,2.542A4.558,4.558,0,0,1,28,33.242a7.98,7.98,0,0,1-2.527.481c-1.442.062-1.876.077-5.518.093-3.627.016-4.061,0-5.5-.062m11.129-18.4a1.635,1.635,0,1,0,1.628-1.643,1.641,1.641,0,0,0-1.628,1.643m-12.633,7.3a7.006,7.006,0,1,0,6.991-7.022,7,7,0,0,0-6.991,7.022m2.449,0A4.549,4.549,0,1,1,19.956,27.2,4.561,4.561,0,0,1,15.4,22.656" transform="translate(-6.3 -9)" fill="#fff"/>
    </g>
  </g>
</svg>
