<svg xmlns="http://www.w3.org/2000/svg" width="107.313" height="13.217" viewBox="0 0 107.313 13.217">
  <g id="subsi4" transform="translate(-78.937 -239.303)">
    <g id="그룹_22" data-name="그룹 22" transform="translate(78.937 241.61)">
      <path id="패스_37" data-name="패스 37" d="M216.561,266.51c-4.1,0-6.551,2.441-6.551,5.454s2.455,5.455,6.551,5.455,6.557-2.444,6.557-5.455S220.662,266.51,216.561,266.51Zm0,9.74c-1.894,0-3.334-1.917-3.334-4.283s1.44-4.283,3.334-4.283,3.337,1.92,3.337,4.283S218.455,276.25,216.561,276.25Z" transform="translate(-201.182 -266.51)" fill="#e50012"/>
      <path id="패스_38" data-name="패스 38" d="M268.879,267.95H257.42v1.211h4.1v8.856h3.253v-8.856h4.107Z" transform="translate(-235.365 -267.548)" fill="#e50012"/>
      <path id="패스_39" data-name="패스 39" d="M313.659,267.95H302.2v1.211h4.1v8.856h3.248v-8.856h4.107Z" transform="translate(-267.651 -267.548)" fill="#e50012"/>
      <path id="패스_40" data-name="패스 40" d="M351.2,269.126h5.41V267.94h-8.1a1.416,1.416,0,0,0-1.529,1.61v6.836a1.413,1.413,0,0,0,1.529,1.61h8.1v-1.186H351.2c-.689-.042-.977-.332-.977-1.127v-2.723h6.291v-1.18h-6.289V270.25C350.222,269.458,350.509,269.17,351.2,269.126Z" transform="translate(-299.937 -267.541)" fill="#e50012"/>
      <path id="패스_41" data-name="패스 41" d="M182.586,276.81c-.686-.042-.974-.312-.974-1.11v-7.74H178.37V276.4a1.416,1.416,0,0,0,1.529,1.613h7.357V276.81Z" transform="translate(-178.37 -267.555)" fill="#e50012"/>
    </g>
    <g id="그룹_24" data-name="그룹 24" transform="translate(142.031 239.303)">
      <g id="그룹_23" data-name="그룹 23" transform="translate(17.775)">
        <path id="패스_42" data-name="패스 42" d="M524.693,263.276v-2.3h-2.478v-2.726l-3.44-.008v2.734h-2.2a4.188,4.188,0,0,0-3.206,1.261v-1.258h-3.5v2.6c.006.22.006.452.006.7l-.006.619v6.11h3.493v-5.067c0-.011,0-.022,0-.033a3.2,3.2,0,0,1,.061-.667s.477-1.97,3.144-1.97h2.2v4.129A3.2,3.2,0,0,0,522,271.228v.006h2.7v-2.542h-1.216c-.943-.042-1.264-.6-1.264-1.76v-3.655h2.48Z" transform="translate(-498.249 -258.24)" fill="#e50012"/>
        <path id="패스_43" data-name="패스 43" d="M478.359,275.1v-3.51c0-.126,0-.248-.006-.374-.125-2.19-1.37-3.962-4.936-3.962a10.21,10.21,0,0,0-4.389.9l.647,1.986a7.332,7.332,0,0,1,3.119-.734c1.733,0,2.056.759,2.056,1.292v.123c-4,0-6.632,1.233-6.632,3.842,0,1.6,1.364,3.08,3.649,3.08a4.42,4.42,0,0,0,3.083-1.08v.84h3.418v-1.819C478.364,275.495,478.359,275.294,478.359,275.1Zm-3.39-1.314a2.072,2.072,0,0,1-.07.536,1.946,1.946,0,0,1-1.833,1.152c-.787,0-1.387-.393-1.387-1.191,0-1.194,1.434-1.585,3.289-1.585Z" transform="translate(-468.22 -264.736)" fill="#e50012"/>
      </g>
      <path id="패스_44" data-name="패스 44" d="M419.66,258.26h-3.951l-2.8,7.678-2.639-7.678h-3.956l-1.808,12.764h2.815l1.1-7.617,2.609,7.617h2.578l2.787-7.74,1.071,7.74h3.917Z" transform="translate(-404.51 -258.254)" fill="#e50012"/>
    </g>
  </g>
</svg>
