<svg xmlns="http://www.w3.org/2000/svg" width="120.186" height="16.684" viewBox="0 0 120.186 16.684">
  <g id="subsi5" transform="translate(-175.94 -275.55)">
    <path id="패스_45" data-name="패스 45" d="M254.821,278.579a6.82,6.82,0,0,0,3.773,4.473l-.768.905a8.973,8.973,0,0,1-4.316-3.225,9.081,9.081,0,0,1-4.341,3.313l-.749-.91a6.727,6.727,0,0,0,3.749-4.561H248.89v-1.16h3.4V275.55h2.4v1.865h3.45v1.16h-3.313Zm5.6,9.157V286h-9v-1.17H262.7v4.028h-9.015v1.326c0,.269.108.4.4.4h8.853v1.155H252.849a1.293,1.293,0,0,1-1.409-1.414v-2.579h8.985Zm2.271-3.881h-2.29V275.99h2.29Z" transform="translate(-37.009)" fill="#ed1c24"/>
    <path id="패스_46" data-name="패스 46" d="M288.634,278.275c0,2.765,1.742,4.507,3.886,5.608l-.768.92a8.7,8.7,0,0,1-4.316-3.122,8.992,8.992,0,0,1-4.341,3.294l-.754-.91a6.474,6.474,0,0,0,3.837-5.745V276.89h2.457Zm7.209,10.865c0,2.139-1.879,3.553-4.341,3.553s-4.331-1.414-4.331-3.553c0-2.114,1.884-3.538,4.331-3.538s4.341,1.424,4.341,3.538m-6.367,0a2.061,2.061,0,1,0,2.031-2.369,2.116,2.116,0,0,0-2.031,2.369m7.067-12.69V285.5h-2.285v-4.86H291.09v-1.165h3.166V276.45Z" transform="translate(-54.328 -0.46)" fill="#ed1c24"/>
    <path id="패스_47" data-name="패스 47" d="M332.017,285.043H316.67v-1.16h15.347Zm-2.095,1.361v5.422H319.9a1.3,1.3,0,0,1-1.414-1.414v-4h11.432Zm-.969-7.194c0,2.4-2.442,3.465-4.674,3.465s-4.669-1.082-4.669-3.465c0-2.427,2.422-3.48,4.669-3.48s4.674,1.057,4.674,3.48m-8.212,11.065c0,.269.108.4.4.4h6.573v-3.113h-6.974Zm1.1-11.065a2.443,2.443,0,1,0,2.437-2.32,2.319,2.319,0,0,0-2.437,2.32" transform="translate(-71.857 -0.092)" fill="#ed1c24"/>
    <path id="패스_48" data-name="패스 48" d="M362.765,287.754v2.736h3.778v1.175H351.23v-1.175h3.837v-2.736h-.876a1.141,1.141,0,0,1-1.165-1.145v-3.651h9.235v-2.423h-9.235V279.38h11.452v4.747h-9.191v1.982c0,.343.122.47.436.47h8.951v1.175Zm-5.422,2.736h3.137v-2.736h-3.137Z" transform="translate(-89.504 -1.956)" fill="#ed1c24"/>
    <path id="패스_49" data-name="패스 49" d="M225.371,292.239h2.354V276.49h-2.354ZM221.6,282.172h-2.946v1.4H221.6v3.318a4.7,4.7,0,0,1-1.855.347H216.4a.57.57,0,0,1-.568-.563v-7.845h4.307V277.7H213.4v9.548a1.13,1.13,0,0,0,1.126,1.131h5.232a3.642,3.642,0,0,0,1.855-.4v4.263h2.349V276.495h-2.349v5.677Z" transform="translate(-19.127 -0.48)" fill="#ed1c24"/>
    <path id="패스_50" data-name="패스 50" d="M184.832,285.081v-1.551h5.188V282.4h-9.763a.569.569,0,0,1-.573-.568v-.984H189.8V277.04H177.252v1.126h10.116v1.546H177.252V282.4a1.127,1.127,0,0,0,1.131,1.126H182.4v1.551H175.94v1.135h15.387v-1.135h-6.494Zm.069,1.869h-2.726c-.724,3-4.277,4.5-5.574,4.684l.68,1a11.761,11.761,0,0,0,6.259-3.323,11.739,11.739,0,0,0,6.25,3.323l.68-1c-1.3-.191-4.845-1.693-5.569-4.684" transform="translate(0 -0.761)" fill="#ed1c24"/>
    <path id="패스_51" data-name="패스 51" d="M390.331,292.428a8.415,8.415,0,0,1-1.1-1.473,13.468,13.468,0,0,1-.949-1.9,13.083,13.083,0,0,1-.67-2.207,11.753,11.753,0,0,1-.255-2.447,13.276,13.276,0,0,1,.7-4.365,9.642,9.642,0,0,1,2.266-3.617H391.7a10.443,10.443,0,0,0-1.894,3.812,18,18,0,0,0-.529,4.512,14.2,14.2,0,0,0,.548,4.072,11.5,11.5,0,0,0,1.879,3.607h-1.375Zm10.835-6.509v1.086h-4.419v4.747h-2.276v-4.747h-4.336v-1.086Zm-10.728-2.653.015.054h-.029Zm.01.25a6.29,6.29,0,0,0,1.537-.773,6.746,6.746,0,0,0,1.248-1.091,5.014,5.014,0,0,0,.847-1.228,3.164,3.164,0,0,0,.328-1.268H391.2v-1.082h8.829v1.082h-3.245a2.988,2.988,0,0,0,.347,1.282,5.767,5.767,0,0,0,.876,1.277,7.092,7.092,0,0,0,1.253,1.086,5.089,5.089,0,0,0,1.522.695c-.083.152-.166.313-.254.47s-.176.323-.264.47a6.2,6.2,0,0,1-1.091-.352,7.663,7.663,0,0,1-1.209-.622,10.257,10.257,0,0,1-1.219-.861,8.009,8.009,0,0,1-1.111-1.082,8.193,8.193,0,0,1-1.086,1.13,7.513,7.513,0,0,1-1.214.856,7.788,7.788,0,0,1-1.223.6,6.376,6.376,0,0,1-1.126.338Zm9.294,8.912a11.086,11.086,0,0,0,1.874-3.783,15.952,15.952,0,0,0,.548-4.243,22.56,22.56,0,0,0-.122-2.29,12.113,12.113,0,0,0-.421-2.046,11.967,11.967,0,0,0-.754-1.889,11.442,11.442,0,0,0-1.126-1.757h1.375a9.582,9.582,0,0,1,2.266,3.617,13.234,13.234,0,0,1,.695,4.365,11.6,11.6,0,0,1-.259,2.462,13.056,13.056,0,0,1-.661,2.232,12.854,12.854,0,0,1-.954,1.889,9.325,9.325,0,0,1-1.091,1.444Z" transform="translate(-107.952 -0.444)" fill="#ed1c24"/>
  </g>
</svg>
