<svg xmlns="http://www.w3.org/2000/svg" xmlns:xlink="http://www.w3.org/1999/xlink" width="61.338" height="61.337" viewBox="0 0 61.338 61.337">
  <defs>
    <clipPath id="clip-path">
      <path id="use16990" d="M.1.1H61.438V61.438H.1Z" transform="translate(-0.1 -0.1)"/>
    </clipPath>
  </defs>
  <g id="subsi3" transform="translate(-0.1 -0.1)">
    <g id="그룹_19" data-name="그룹 19" transform="translate(0.1 0.1)" clip-path="url(#clip-path)">
      <path id="path16993" d="M43.484,56.3a17.866,17.866,0,0,1-25.328,0L5.339,43.484a17.866,17.866,0,0,1,0-25.328L18.156,5.339a17.866,17.866,0,0,1,25.328,0L56.3,18.156a17.866,17.866,0,0,1,0,25.328Z" transform="translate(-0.151 -0.151)" fill="#ed1d24"/>
    </g>
    <g id="그룹_20" data-name="그룹 20" transform="translate(0.1 0.1)" clip-path="url(#clip-path)">
      <path id="path16995" d="M8.931,18.762A1.969,1.969,0,0,1,7.1,16.931a1.585,1.585,0,0,1,.61-1.221,2.313,2.313,0,0,1,1.221-.61,1.969,1.969,0,0,1,1.831,1.831,1.969,1.969,0,0,1-1.831,1.831" transform="translate(14.261 30.674)" fill="#fff"/>
    </g>
    <g id="그룹_21" data-name="그룹 21" transform="translate(0.1 0.1)" clip-path="url(#clip-path)">
      <path id="path16997" d="M15.234,7.362a3.465,3.465,0,0,0-2.441.915c-1.526,1.526-2.136,4.272-2.136,8.239,0,4.883,1.221,14.343,5.188,19.53a4.1,4.1,0,0,0,2.136,1.831,5.793,5.793,0,0,0,2.746.915h.915c2.136-.61,4.883-3.052,7.019-6.1a1.678,1.678,0,0,1,1.526-.915,1.121,1.121,0,0,1,.915.305c.305.305.61.61.61.915a1.835,1.835,0,0,1-.305,1.221c-2.746,4.272-6.1,7.019-9.155,7.629-.61,0-1.221.305-1.831.305a9,9,0,0,1-4.577-1.526A11.653,11.653,0,0,1,13.1,37.878C7.605,30.859,7.3,17.737,7.3,16.517c0-3.357.305-8.239,3.052-10.986A6.93,6.93,0,0,1,15.234,3.7h.305a6.93,6.93,0,0,1,4.883,1.831c2.746,2.746,3.357,7.324,3.052,10.986,0,3.662-.61,10.681-4.577,16.784a1.678,1.678,0,0,1-1.526.915,1.121,1.121,0,0,1-.915-.305,1.914,1.914,0,0,1-.61-2.441c2.746-4.272,3.967-9.155,3.967-15.258,0-3.967-.61-7.019-2.136-8.239-.305-.305-.915-.61-2.441-.61Z" transform="translate(14.672 7.286)" fill="#fff"/>
    </g>
  </g>
</svg>
