<svg xmlns="http://www.w3.org/2000/svg" width="101.891" height="71.413" viewBox="0 0 101.891 71.413">
  <path id="subsi7" d="M154.942,446.4H146.6a.667.667,0,0,1-.671-.671v-3.4h9.015Zm2.907-5.369H143.016v5.037a1.623,1.623,0,0,0,1.621,1.629h13.212Zm-44.794-12.12v4.33h-1.427v-4.33h-2.7v10.645h2.7v-4.993h1.427v4.993h2.7V428.906h-2.7Zm2.693,12.12h-14.8v1.354h12.1V447.7h2.693v-6.671ZM101.5,434.2h3v3.6h-2.458a.539.539,0,0,1-.542-.542Zm0-4.827H98.8v8.138a1.626,1.626,0,0,0,1.629,1.625H107.2v-9.763h-2.7v3.5h-3Zm-6.566-.469h-2.81v18.787h2.81ZM56.766,446.634l.813,1.2a14.055,14.055,0,0,0,7.459-3.958,13.992,13.992,0,0,0,7.463,3.958l.813-1.2c-1.552-.226-5.785-2.025-6.646-5.6H63.413c-.865,3.57-5.094,5.373-6.646,5.6m-.8-6.46H74.328v-1.35H66.582v-1.852H72.76v-1.346H61.121a.677.677,0,0,1-.679-.675V433.77H72.513v-4.548H57.543v1.35H69.606v1.844H57.543v3.21a1.347,1.347,0,0,0,1.346,1.35h4.783v1.852h-7.7Zm29.9-9.832H77.825V441.73a1.347,1.347,0,0,0,1.35,1.346H85.41a4.284,4.284,0,0,0,2.211-.481v5.094h2.81V428.9h-2.81v6.776H84.1v1.678h3.517v3.95a5.517,5.517,0,0,1-2.211.42H81.415a.681.681,0,0,1-.679-.679v-9.355h5.134v-1.35Zm32.051-23.836c-1.884,2.992-4.37,5.1-6.65,5.624l-.057.012a6.819,6.819,0,0,1-1.225.117,5.712,5.712,0,0,1-3.246-1.051,8.614,8.614,0,0,1-2.029-1.92c-3.926-5.041-4.192-14.489-4.213-15.549-.04-2.519.319-5.923,2.288-7.871a4.891,4.891,0,0,1,3.566-1.435h.23a4.9,4.9,0,0,1,3.574,1.435c1.965,1.949,2.329,5.357,2.288,7.871a25.411,25.411,0,0,1-3.242,12.242,1.231,1.231,0,1,1-2.114-1.261,21.357,21.357,0,0,0,2.895-11.021c.049-2.874-.505-5.037-1.556-6.08a2.479,2.479,0,0,0-1.844-.72h-.218a2.486,2.486,0,0,0-1.844.72c-1.051,1.047-1.6,3.21-1.556,6.08.061,3.546.9,10.5,3.691,14.077a6.229,6.229,0,0,0,1.447,1.379,3.216,3.216,0,0,0,1.9.643,4.467,4.467,0,0,0,.744-.069c1.6-.384,3.6-2.163,5.09-4.532a1.232,1.232,0,0,1,2.244.38,1.247,1.247,0,0,1-.162.93m-17.562,3.432a1.362,1.362,0,0,1,.954-.445,1.372,1.372,0,1,1,.117,2.741h-.061a1.37,1.37,0,0,1-1.011-2.3m24.932-2.2a12.959,12.959,0,0,0,0-18.273l-9.282-9.282a12.959,12.959,0,0,0-18.273,0l-9.282,9.282a12.959,12.959,0,0,0,0,18.273l9.282,9.286a12.959,12.959,0,0,0,18.273,0Zm.332,30.729a3.186,3.186,0,1,1,2.555-3.121,2.882,2.882,0,0,1-2.555,3.121m10.649-1.063h3.052V436.05h-3.052V428.9h-2.931v12.561a10.942,10.942,0,0,1-2.676.3h-3.541v-2.211a4.611,4.611,0,0,0,3.841-4.2,4.313,4.313,0,0,0-2.68-3.8h3.2V430.2h-4.362v-1.884h-2.931V430.2h-4.346v1.35h3.121a4.327,4.327,0,0,0-2.676,3.8,4.609,4.609,0,0,0,3.905,4.217v2.2h-4.6v1.294h11.069a9.5,9.5,0,0,0,2.676-.323v4.952h2.931V437.408Zm12.088-6.557h4.006V429.5h-11.15v1.35h4.059a7.686,7.686,0,0,1-4.625,6.925l.93,1.116a10.913,10.913,0,0,0,5.235-3.994,10.973,10.973,0,0,0,5.239,3.994l.93-1.116a7.679,7.679,0,0,1-4.625-6.925m9.5,8.7V428.906h-2.935v4.346h-3.4v1.326h3.4v4.973Z" transform="translate(-55.97 -376.417)" fill="#af9b73"/>
</svg>
