<svg xmlns="http://www.w3.org/2000/svg" width="80.463" height="43.387" viewBox="0 0 80.463 43.387">
  <g id="subsi6" transform="translate(-30.507 -39.51)">
    <g id="그룹_25" data-name="그룹 25" transform="translate(33.81 39.51)">
      <path id="패스_52" data-name="패스 52" d="M45.842,39.51c-5.234,0-8.352,3.23-8.352,7.216s3.14,7.216,8.352,7.216c5.234,0,8.375-3.23,8.375-7.216-.022-3.987-3.14-7.216-8.375-7.216m0,12.9c-2.495,0-4.41-2.539-4.41-5.657,0-3.14,1.915-5.657,4.41-5.657,2.517,0,4.41,2.539,4.41,5.657s-1.915,5.657-4.41,5.657" transform="translate(-25.24 -39.51)" fill="#ed1c24"/>
      <path id="패스_53" data-name="패스 53" d="M59.676,39.75H45.31v1.6h5.5V53.069h4.165V41.354h4.7Z" transform="translate(-15.643 -39.215)" fill="#ed1c24"/>
      <path id="패스_54" data-name="패스 54" d="M66.746,39.75H52.38v1.6H57.1V53.069h4.143V41.354h5.5Z" transform="translate(-6.966 -39.215)" fill="#ed1c24"/>
      <path id="패스_55" data-name="패스 55" d="M36.779,51.465a.8.8,0,0,1-.8-.8V39.75H31.99V51.465a1.587,1.587,0,0,0,1.581,1.581H43.75V51.465H36.779Z" transform="translate(-31.99 -39.215)" fill="#ed1c24"/>
      <path id="패스_56" data-name="패스 56" d="M64.316,41.321h7.662V39.74H61.131a1.587,1.587,0,0,0-1.581,1.581V51.455a1.587,1.587,0,0,0,1.581,1.581H71.978V51.455H64.316a.8.8,0,0,1-.8-.8V46.778h8.33V45.219h-8.33v-3.1a.8.8,0,0,1,.8-.8" transform="translate(1.834 -39.228)" fill="#ed1c24"/>
    </g>
    <g id="그룹_27" data-name="그룹 27" transform="translate(30.507 61.07)">
      <g id="그룹_26" data-name="그룹 26">
        <path id="패스_57" data-name="패스 57" d="M32.941,55.337h0c0,1.67,1.225,3.074,3.653,4.165l.267.111c1.18.535,3.185,1.4,3.14,2.517a1.361,1.361,0,0,1-.49,1,4.612,4.612,0,0,1-3.341.579,15.509,15.509,0,0,1-4.388-1.18c-.111-.045-.312-.111-.379.111-.2.6-.668,2.049-.869,2.74-.089.29.045.423.178.468a16.617,16.617,0,0,0,6.08,1.314c5.145,0,8.219-2.361,8.219-6.3,0-2.517-2.495-3.786-3.831-4.455l-.067-.045-.49-.245c-1.136-.557-2.428-1.2-2.517-2.071a1.251,1.251,0,0,1,.334-.935,3.228,3.228,0,0,1,2.361-.78,14.8,14.8,0,0,1,4.5.958.308.308,0,0,0,.468-.2c.156-.646.468-1.893.624-2.561.089-.356-.089-.468-.178-.49a20,20,0,0,0-5.368-.846c-.846.045-7.885.223-7.907,6.147" transform="translate(-30.507 -49.19)" fill="#ed1c24"/>
      </g>
      <path id="패스_58" data-name="패스 58" d="M52.692,52.3a1.993,1.993,0,0,0-.624-2.16c-.757-.535-2.227-.379-3.363-.134-.022.29-.089,1.18-.379,3.074-.312,2.027-2.806,15.1-3.207,17.061-.045.267-.022.4.4.4h4.165c.356,0,.445-.156.468-.4l.757-4.9a10.364,10.364,0,0,0,8.775-2.316c2.829-2.584,3.541-6.749,3.541-8.553,0-1.782-.6-4.789-4.633-4.789-4.544.022-5.969,3.23-5.9,2.717m-.869,9.488-.089-.045.022-.111c.846-3.9,1.537-5.9,2.495-6.994a2.907,2.907,0,0,1,2.784-1.091c.668.245.98.846.98,1.915,0,3.074-2.227,6.481-4.677,6.57a3.364,3.364,0,0,1-1.515-.245" transform="translate(-12.594 -48.711)" fill="#ed1c24"/>
      <path id="패스_59" data-name="패스 59" d="M59.879,50.421h0c-5.813,2.316-6.259,8.04-6.259,9.733,0,3.72,2.339,5.613,6.927,5.613a16.47,16.47,0,0,0,5.813-1.18.4.4,0,0,0,.245-.468c-.022-.512-.111-1.67-.134-2.339-.022-.334-.178-.334-.312-.267a10.2,10.2,0,0,1-3.875.824c-2.428,0-3.786-1.114-3.786-3.319V58.84l.178.045c.045,0,3.742.69,6.392-.535s3.786-2.94,3.7-5.234a3.391,3.391,0,0,0-1.581-2.65c-1.782-1.18-4.432-1.2-7.305-.045m-1.136,6.214-.045-.045.022-.067c.356-1.448,1.938-3.608,3.875-3.608.824,0,1.381.334,1.537.958A2.018,2.018,0,0,1,63,56.012a5.83,5.83,0,0,1-4.254.624" transform="translate(-2.141 -48.728)" fill="#ed1c24"/>
      <path id="패스_60" data-name="패스 60" d="M73.88,49.732c.111.045.245.134.156.49-.178.757-.713,2.873-.869,3.586-.089.29-.245.356-.379.334a4.646,4.646,0,0,0-4.833,2.25c-1.091,1.581-1.982,5.925-2.383,8.486a.432.432,0,0,1-.468.4H60.962c-.379,0-.4-.223-.379-.4.356-1.871,1.893-9.822,2.205-11.849.29-1.871.356-2.784.379-3.074,1.581-.334,2.762-.29,3.363.134.735.512.713,1.626.334,3.029,2.584-3.675,5.746-3.809,7.016-3.385" transform="translate(6.398 -48.73)" fill="#ed1c24"/>
      <path id="패스_61" data-name="패스 61" d="M49.755,50.183c-.267,2.027-1.849,11.47-5.323,11.47a1.166,1.166,0,0,1-.913-.29,1.243,1.243,0,0,1-.223-.846,14.259,14.259,0,0,1,.312-2.361s1.27-6.348,1.581-7.974c.022-.2.022-.4-.379-.4H40.556a.44.44,0,0,0-.49.4c-.267,1.381-1.96,10.357-1.96,10.357a8.68,8.68,0,0,0-.156,1.425,3.332,3.332,0,0,0,.69,2.227c.713.846,1.938,1.225,3.786,1.247a6.738,6.738,0,0,0,6.014-3.3c-.067.223-.49,1.826.089,2.539a2.141,2.141,0,0,0,1.96.535,11.763,11.763,0,0,0,1.559-.29c.089-.49.668-4.21,1.091-6.1.423-1.871,1.4-7.15,1.67-8.664.022-.2.022-.4-.379-.4H50.178c-.334.022-.379.2-.423.423" transform="translate(-21.372 -48.49)" fill="#ed1c24"/>
    </g>
  </g>
</svg>
