<svg xmlns="http://www.w3.org/2000/svg" width="130.835" height="32.263" viewBox="0 0 130.835 32.263">
  <g id="subsi1" transform="translate(-21.779 -46.245)">
    <path id="패스_16" data-name="패스 16" d="M373.265,46.3c-.062.062,0,.231.139.385.185.215.308.231.508.108.215-.138.369-.062.831.4a2.639,2.639,0,0,1,.569.708c0,.292-.323.154-.8-.354-.462-.492-.462-.492-.369-.092a.631.631,0,0,1-.215.677c-.277.246-.369.262-.923.077a2,2,0,0,1-.785-.415c-.2-.231-1.062-.277-1.062-.046a1.416,1.416,0,0,0,.185.462c.154.246.154.385-.062.723-.2.339-.4.446-.923.508-.631.077-.662.092-.616.539a3.925,3.925,0,0,0,.108.662c.108.323.385.046.385-.369,0-.246.077-.369.2-.339.246.092.323,1.17.092,1.447-.262.308-.123.385.431.231a1.053,1.053,0,0,1,.646-.031,7.035,7.035,0,0,0,2.277-.046c.046-.031-.077-.138-.246-.246a.635.635,0,0,1-.323-.539c0-.2-.062-.415-.154-.462a.666.666,0,0,1-.154-.477c0-.231-.092-.369-.246-.369-.2,0-.231.123-.185.616.061.677-.2.846-.492.323-.231-.446-.185-.785.123-.893a.859.859,0,0,0,.385-.308c.169-.277.415-.262.415.031s.215.292.462,0c.138-.169.246-.2.354-.092s.077.246-.092.446a1.028,1.028,0,0,0-.262.462c0,.292.277.215.462-.123.262-.477.462-.369.462.246a.963.963,0,0,1-.262.769c-.154.108-.231.246-.154.308.138.138.846-.492.954-.877.077-.231.154-.246.477-.108a.618.618,0,0,1,.138,1.046c-.308.246-.046.462.554.462a.891.891,0,0,1,.6.231c.277.339.923.308.923-.046,0-.4-.169-.523-.4-.323a.308.308,0,0,1-.523-.185c0-.077.108-.138.231-.138a.237.237,0,0,0,.231-.231c0-.123-.077-.231-.154-.231-.092,0-.2.108-.246.231-.138.339-.523.277-.523-.062a.906.906,0,0,0-.246-.554.48.48,0,0,1-.154-.462c.062-.169.169-.185.539-.062a1.033,1.033,0,0,1,.539.385.442.442,0,0,0,.4.215.449.449,0,0,1,.4.262,3.335,3.335,0,0,0,.231.539c.169.339.185.846,0,.954-.185.123.169,1.17.4,1.17.108,0,.246.185.292.415.123.523.308.662.877.662.262,0,.415.077.415.231a.231.231,0,0,0,.462,0,.222.222,0,0,0-.185-.231c-.277,0-.569-.692-.416-.954a2.12,2.12,0,0,0-.769-2.37,3.361,3.361,0,0,1-1.108-2.016c-.015-.354-.046-.369-.092-.092-.108.539-.462.754-.785.446a1.347,1.347,0,0,0-.769-.246c-.369,0-.492-.077-.492-.277a3.521,3.521,0,0,0-.092-.616c-.077-.262-.031-.339.215-.339a.472.472,0,0,1,.4.231.368.368,0,0,0,.308.231.3.3,0,0,1,.277.169c.031.108.062-.077.077-.385.015-.523-.046-.6-.539-.831a4.462,4.462,0,0,1-.846-.477C375.035,46.546,373.481,46.084,373.265,46.3Zm1.77,2.093c.431.339.4.769-.062.908-.4.108-.415.092-.385-.492C374.6,48.162,374.666,48.116,375.035,48.393Zm-3.355,1.647c.138.215-.185.969-.369.862-.246-.154-.185-1,.062-1A.39.39,0,0,1,371.68,50.039Zm7.325,2.031a.844.844,0,0,0,.231.4c.262.262.246.523-.062.631-.108.031-.231-.077-.277-.262a.394.394,0,0,0-.431-.323h-.354l.323-.369C378.759,51.778,379.005,51.747,379.005,52.07Zm-12.418-2.216a1.791,1.791,0,0,1-.323.539c-.215.262-.215.477.062,1.77.139.677-.031,1.231-.4,1.354a.408.408,0,0,0-.308.323c0,.246-.246.292-.385.062-.046-.092.015-.2.138-.246a.556.556,0,0,0,.246-.539c0-.662-.4-.554-.739.215a1.547,1.547,0,0,0,.2,1.739,1.587,1.587,0,0,1,.385.646.348.348,0,0,0,.231.277c.185.077.185.138-.031.462-.231.369-.662.508-.662.215,0-.077-.169-.185-.369-.246a.669.669,0,0,1-.462-.308c-.092-.246-.862-.292-.862-.062,0,.092.2.2.446.246.262.062.492.185.539.308a.416.416,0,0,0,.385.215.641.641,0,0,1,.477.292c.123.246.262.292.708.215.385-.062.6-.031.692.123.215.354.154.754-.108.754a.678.678,0,0,1-.462-.277c-.2-.246-.231-.246-.385,0-.246.431-1.154.354-1.816-.154-.816-.631-1.354-.831-1.708-.646a6.886,6.886,0,0,1-3.155-.077c-1.046-.246-1.924-.292-1.924-.092,0,.185.554.323,1.277.323.431,0,.569.062.569.246,0,.215.123.246.816.169.877-.092,1.339.077,1.339.446,0,.415.523.169.769-.354.123-.277.308-.508.4-.508a2.556,2.556,0,0,1,.8.462,3.519,3.519,0,0,0,.785.462,2.129,2.129,0,0,1,.569.231,2.332,2.332,0,0,0,.846.231.89.89,0,0,1,.6.231c.154.2.138.231-.169.231a1.2,1.2,0,0,0-.6.154c-.446.277.246.339.769.077a.85.85,0,0,1,.831-.108,3.41,3.41,0,0,0,.862.246,7.962,7.962,0,0,1,1.339.354c.816.292.969.523.969,1.508a1.248,1.248,0,0,0,1.123,1,2.183,2.183,0,0,0,.969-.385l.569-.385H371.8c-.4,0-.646-.077-.708-.231a.453.453,0,0,0-.4-.231.4.4,0,0,1-.339-.662.347.347,0,0,0,.031-.415c-.231-.354-.185-.462.154-.462.169,0,.308-.108.308-.231,0-.292-.4-.308-.569-.015a.919.919,0,0,1-.446.308c-.262.077-.4-.015-.692-.446a2.748,2.748,0,0,0-.908-.785c-.292-.138-.646-.308-.754-.369a1.753,1.753,0,0,1-.539-.508c-.262-.354-.277-.462-.092-.8.231-.431.631-.508.923-.154.339.4.939.185.677-.246a9.282,9.282,0,0,1-.123-1.616c-.031-1.277-.077-1.477-.354-1.677a.766.766,0,0,0-.569-.138c-.185.077-.215-.015-.138-.508a4.779,4.779,0,0,1,.292-1.031c.277-.569.277-.554-.154-.554a.511.511,0,0,0-.462.262c-.077.2-.138.215-.292.062-.138-.154-.123-.215.092-.339a.62.62,0,0,0,.262-.446.527.527,0,0,1,.154-.385.187.187,0,0,0,.077-.246.379.379,0,0,0-.646.123Zm.508,3.77c.477.539.831,1.154.723,1.262a.715.715,0,0,1-.369.092.437.437,0,0,0-.354.231.347.347,0,0,1-.277.231c-.292,0-.769-.6-.646-.8.077-.108.185-.077.323.108.138.2.246.246.369.123.108-.108.092-.231-.077-.4-.262-.246-.339-1.185-.123-1.185C366.741,53.286,366.925,53.44,367.095,53.625ZM365.587,54.7c-.092.277-.431.323-.431.062a.243.243,0,0,1,.246-.246C365.541,54.517,365.617,54.594,365.587,54.7Zm1.724,3.832c0,.169-.369.6-.523.6-.123,0-.108-.539.015-.662C366.956,58.3,367.31,58.349,367.31,58.533Zm1.046.323c-.077.246-.739.369-.739.154,0-.169.262-.308.585-.323A.128.128,0,0,1,368.357,58.857Zm-.308-8.818-.569.092.292.385c.277.369.292.369.6.092.246-.231.369-.246.539-.108s.231.123.308-.077C369.434,49.87,369.311,49.824,368.049,50.039Z" transform="translate(-283.636)"/>
    <path id="패스_17" data-name="패스 17" d="M345.625,82.169a3.352,3.352,0,0,1-.339.616c-.108.138-.138.323-.062.385.062.062.2,0,.308-.154a.782.782,0,0,1,.523-.262c.323,0,1.016-.6.877-.754-.046-.031-.185.062-.308.231-.231.292-.231.292-.539-.062l-.308-.369Zm6.586.6c-.631.231-.677.616-.123,1.093.708.646,1.693.523,1.693-.2a.771.771,0,0,1,.354-.492c.339-.215.339-.231-.277-.4A2.321,2.321,0,0,0,352.211,82.769Zm-5.571.508c-.754.646-.708,1.016.2,1.308a1.749,1.749,0,0,0,1.062.077c.354-.123.4-.231.446-1.031l.046-.877h-.569A1.735,1.735,0,0,0,346.641,83.277Zm4.247.092c0,.292.031.415.077.262a1.583,1.583,0,0,0,0-.539C350.919,82.954,350.888,83.077,350.888,83.37Zm.354.908a.2.2,0,0,0,.139.262.36.36,0,0,1,.246.308c0,.262-.077.262-.477.062-.246-.138-.292-.108-.292.154,0,.431.415.554.769.231.385-.339.385-.477.015-.862C351.457,84.231,351.319,84.17,351.242,84.278Zm15.4.4c.108.431.031.462-.385.2-.246-.154-.4-.123-.862.123a2.275,2.275,0,0,0-.754.569c-.169.215-.277.231-.692.092-.585-.2-2.354-.046-2,.185a1.329,1.329,0,0,0,.6.138,1.838,1.838,0,0,1,.846.308c.616.4.708.385,1.323-.154.292-.262.631-.569.754-.677a1.143,1.143,0,0,1,.816-.123c.385.046.569,0,.569-.123s.139-.169.385-.123c.462.092.508-.169.108-.539C366.907,84.139,366.523,84.216,366.646,84.678Zm-13.065.492a.646.646,0,0,0,.031.739c.262.154.508-.477.262-.677C353.766,85.139,353.627,85.108,353.581,85.17Zm-23.667.385a1.038,1.038,0,0,0-.185,1.37,1.9,1.9,0,0,0,1.2.908.8.8,0,0,1,.477.154,2.289,2.289,0,0,0,.939.246,2.346,2.346,0,0,1,1.523.769,5.707,5.707,0,0,0,2.616,1.447,1.135,1.135,0,0,1,.677.308c.415.415.554.385.754-.154.092-.308.262-.462.462-.462a.937.937,0,0,0,.539-.231.761.761,0,0,1,.415-.231.652.652,0,0,0,.385-.277c.185-.231.2-.231.215,0a.389.389,0,0,1-.185.323c-.154.046-.154.123.015.277.154.169.231.169.277.015.092-.215.508-.246.508-.031,0,.246.554.185.769-.077.231-.277.262-.246-.616-.692-.385-.185-.8-.4-.923-.477-1.108-.631-1.077-.631-1.185-.339a.939.939,0,0,1-.262.385c-.154.123.046.339.431.477.246.077-.062.415-.385.415a.275.275,0,0,0-.292.231c0,.154-.154.231-.416.231a3.48,3.48,0,0,0-.754.092.6.6,0,0,1-.616-.215,1.455,1.455,0,0,0-.754-.369c-.339-.031-.477-.138-.539-.431-.062-.277-.215-.4-.539-.462-.708-.123-.539-.385.277-.431,1.693-.108.277-.492-1.831-.492a3.223,3.223,0,0,1-1.216-.138,1.094,1.094,0,0,0-.569-.246,1.378,1.378,0,0,1-1.046-1.016c0-.215.092-.231.662-.092a6.109,6.109,0,0,1,1.062.354,1.484,1.484,0,0,0,1.262.123c.446-.169.077-.369-.692-.369-.415,0-.754-.077-.754-.154,0-.2.646-.446,1.2-.477.231-.015-.031-.077-.585-.138s-1.246-.154-1.539-.215a.91.91,0,0,0-.785.092Z" transform="translate(-260.412 -30.084)"/>
    <path id="패스_18" data-name="패스 18" d="M356.315,109.16c-.154.262.215.339,1.185.231.692-.077.877-.138.662-.231A3.365,3.365,0,0,0,356.315,109.16Zm3.924.015c-.169.108,0,.154.585.154.431,0,.8-.077.8-.154C361.624,108.975,360.546,108.975,360.239,109.175Zm10.849,0a.593.593,0,0,0,.431.154c.277,0,.292-.031.108-.154C371.318,108.975,370.964,108.975,371.087,109.175Zm4.54,0c-.185.123-.169.154.123.154.185,0,.339-.077.339-.154C376.089,108.975,375.919,108.975,375.627,109.175Zm2.893.415a4.277,4.277,0,0,1-.323,1.108c-.215.431-.108.846.123.492a4.9,4.9,0,0,1,.939-.585c.477-.231,1-.492,1.154-.585a.488.488,0,0,0,.292-.354c0-.154-.231-.185-.908-.123-.816.062-.923.031-1.046-.262C378.612,108.99,378.6,109.037,378.52,109.591Zm2.678-.431c-.323.2.062.292.892.2.539-.062.631-.108.385-.2A1.728,1.728,0,0,0,381.2,109.16Zm7.879.554c-.215.708.138.754.385.062.215-.616.215-.6-.031-.6C389.338,109.175,389.169,109.421,389.076,109.714Zm-5.2.139c.077.308,0,.477-.385.8-.908.754-.569.846,1.293.369a10.927,10.927,0,0,1,1.493-.308c.169,0,.277.108.277.308,0,.277-.108.308-.985.308-.677,0-1.031.077-1.17.231a1.347,1.347,0,0,1-1.477,0c-.415-.308-.6-.292-1.046.123-.477.446-.385.569.385.569A3.7,3.7,0,0,1,384.8,113.3c.969,1.046.923,1.877-.108,2.524-.6.369-.631.585-.123.585a.9.9,0,0,1,.539.231,1.2,1.2,0,0,0,1.416-.015c.323-.231.385-.231.631,0,.292.277.785.339.785.092,0-.077-.246-.262-.554-.4-.446-.215-.616-.231-.846-.092a1.816,1.816,0,0,1-.846.185c-.523,0-.554-.015-.446-.431a.875.875,0,0,1,.323-.539c.292-.169.277-1.323-.031-1.662a1.221,1.221,0,0,1-.154-1.262c.108-.215.046-.262-.277-.262-.246,0-.4-.092-.4-.231,0-.323.6-.292.969.031.292.262.308.262.523-.077a.8.8,0,0,1,.492-.339c.138,0,.446-.246.692-.554.508-.646.339-.908-.4-.646a1.152,1.152,0,0,1-1.431-.539c-.123-.277-.292-.354-.969-.385C383.783,109.467,383.767,109.467,383.875,109.852Zm-10.587-.108a4.622,4.622,0,0,0,.923,0c.231-.031,0-.062-.508-.062S373.011,109.714,373.288,109.744Zm8.494.508c0,.185.262.185.692,0,.262-.108.231-.139-.185-.139C382.013,110.1,381.782,110.16,381.782,110.252Z" transform="translate(-283.027 -53.119)"/>
    <path id="패스_19" data-name="패스 19" d="M391.778,118.325a3.843,3.843,0,0,1-1.062.692c-.385.185-.908.431-1.139.539-.785.415-1.554.154-.939-.308.169-.108.246-.262.185-.323s-.339.108-.616.385a1.321,1.321,0,0,1-1.031.477,1.852,1.852,0,0,0-.769.138c-.4.246.769.354,2.847.262,1.954-.092,2.431-.185,1.785-.354-.385-.092-.462-.508-.092-.508a4.665,4.665,0,0,0,1.57-1.262c.123-.277-.4-.092-.739.262Zm-22.59.723c.092.246.769.339,1.493.2.477-.092.508-.138.246-.231C370.4,118.8,369.127,118.833,369.188,119.048Zm13.48-.077c-.6.154-.231.354.677.354.585,0,.893-.062.816-.139A2.468,2.468,0,0,0,382.668,118.971Zm-1.123.523c-.062.092-.077.185-.031.231.108.108.569-.108.569-.262C382.084,119.264,381.668,119.295,381.545,119.495Zm2.847-.015c0,.185,1,.369,1.231.231.138-.092.138-.154-.015-.246C385.315,119.279,384.392,119.295,384.392,119.479Zm-14.28.446c-.169.108-.154.154.046.231.492.185,1.154.108,1.154-.139C371.312,119.756,370.465,119.695,370.112,119.926Zm2.662.954c-.062.092-.077.2-.031.246.108.108.415-.092.415-.277S372.9,120.664,372.774,120.88Z" transform="translate(-293.947 -60.653)"/>
    <path id="패스_20" data-name="패스 20" d="M79.781,137.066a.6.6,0,0,0-.108.385.533.533,0,0,1-.339.415c-.292.108-.385.062-.554-.231-.185-.354-.2-.354-.723-.092-.616.308-.692.492-.185.492a2.946,2.946,0,0,1,1.6.877c.031.092-.077.215-.246.277-.508.154-.369.308.277.323a1.9,1.9,0,0,1,1.216.508,2.727,2.727,0,0,0,.769.477.66.66,0,0,1,.339.231c.215.262,1.016.308,1.154.077.046-.077-.185-.185-.523-.246a1.825,1.825,0,0,1-.8-.308.552.552,0,0,0-.369-.215,2.637,2.637,0,0,1-.846-.723c-.662-.754-.662-.769-.369-1.939.092-.385-.062-.554-.292-.308Zm11.711,1.693c-.569.139-.246.354.554.354.523,0,.893.077,1,.215a1.263,1.263,0,0,0,.677.292c.277.046.954.169,1.539.262,1.016.2,1.477.123,1.031-.154a2.387,2.387,0,0,0-1-.154,2.17,2.17,0,0,1-1.062-.231,1.5,1.5,0,0,0-.754-.231,1.1,1.1,0,0,1-.662-.231,1.52,1.52,0,0,0-1.323-.123Zm-2.955.492c-.062.077.185.185.523.246.692.123,1.847-.031,1.847-.246A5.132,5.132,0,0,0,88.537,139.251Zm-10.695.877c-.277.292-.477.569-.431.616.108.108.877-.4.877-.569,0-.077.108-.138.231-.138a.237.237,0,0,0,.231-.231c0-.369-.339-.246-.908.323Zm19.343.215c-.308.354-.385.631-.092.339a2.22,2.22,0,0,1,1.077-.185c.692,0,.893.046.893.231,0,.138-.138.231-.354.231a1.319,1.319,0,0,0-.662.231,1.48,1.48,0,0,1-.785.231c-.262,0-.539.077-.585.169a2.023,2.023,0,0,1-.508.339l-.415.169.569.062a1.531,1.531,0,0,0,.923-.185,1.518,1.518,0,0,1,.769-.246c.292,0,.646-.231,1.185-.754l.785-.754-.431-.077a10.45,10.45,0,0,0-1.262-.108c-.677-.015-.893.046-1.108.308Zm-22.252.246c-.323.215-.477.677-.215.677.185-.015.8-.585.8-.754C75.519,140.282,75.334,140.3,74.934,140.59Zm-47.858.323a3.4,3.4,0,0,0-.677,1.046c-.539,1.37-.785,2.031-.969,2.539-.123.292-.523,1.339-.893,2.308-.385.969-.723,1.939-.785,2.154a1.381,1.381,0,0,1-1.062,1.077c-.754,0-1.123.723-.785,1.508l.2.492h2.462c2.37,0,2.462-.015,2.693-.339a1.35,1.35,0,0,0,.246-.677.964.964,0,0,0-.8-.831c-.446,0-.631-.4-.4-.877.2-.431.215-.431,1.662-.431,1.385,0,1.462.015,1.647.369.231.492.015.939-.462.939-.508,0-.723.292-.723.923a1.258,1.258,0,0,0,.185.739,7.88,7.88,0,0,0,2.6.185h2.416l.292-.4.292-.4.262.4c.262.4.277.4,2.339.4,1.939,0,2.077-.015,2.247-.323l.169-.323.339.323c.308.292.523.323,2.416.323a6.251,6.251,0,0,0,2.262-.185c.154-.154.169-.031.092.508-.246,1.739,1.323,2.878,4.016,2.893a4.869,4.869,0,0,0,3.8-1.246c.692-.677.739-.769.739-1.523a2.2,2.2,0,0,0-1.077-2.047A5.466,5.466,0,0,0,49.4,150.1c-2.185-.062-2.8-.277-2.493-.846.108-.215.231-.277.415-.2a5.848,5.848,0,0,0,1.277.185,3.3,3.3,0,0,0,3-1.185,2.492,2.492,0,0,0-.677-3.4c-.2-.077-.339-.246-.292-.354.092-.277.508-.308.769-.031a.776.776,0,0,0,1.154-.077c.462-.431.431-.708-.185-1.323a1.347,1.347,0,0,0-1.17-.523,2.148,2.148,0,0,0-1.939,1.154c-.185.462-.262.492-1.123.585a3.7,3.7,0,0,0-2.4,1.185,2.989,2.989,0,0,0-.185,2.262c.092.246,0,.446-.431.923-.677.739-.723,1.446-.154,2.047.415.431.4.831-.031.985-.308.123-.508-.015-.508-.385a.771.771,0,0,0-.723-.754c-.569,0-.662-.308-.662-2.139,0-2.231-.215-3-.985-3.632a1.919,1.919,0,0,0-1.616-.462,2.371,2.371,0,0,0-1.723.462c-.831.554-.939.569-1.062.077-.092-.369-.139-.385-1.308-.4-1.462-.015-1.924.185-1.924.862a.861.861,0,0,0,.939.923h.446v2.077a10.342,10.342,0,0,1-.108,2.093c-.769.062-1.077.185-1.293.477l-.262.354-.108-.431a.621.621,0,0,0-.523-.508c-.677-.138-.846-.292-1.123-1-.246-.646-.939-2.831-1.447-4.6-.139-.462-.354-1.077-.462-1.354a2.511,2.511,0,0,1-.215-.692,2.946,2.946,0,0,0-.939-1.708,2.637,2.637,0,0,0-1.123-.246A1.365,1.365,0,0,0,27.076,140.913ZM28.43,144.3a5.419,5.419,0,0,0,.246,1.216c.308.954.231,1.216-.385,1.339-.631.138-.939,0-.939-.431a13.725,13.725,0,0,1,.723-2.585C28.215,143.622,28.43,143.9,28.43,144.3Zm20.882,1.616A.946.946,0,0,1,49.2,147.5a2.258,2.258,0,0,1-.616.231c-.292,0-.923-.739-.923-1.077a1.471,1.471,0,0,1,1.016-1.077A1.219,1.219,0,0,1,49.312,145.914Zm-9.187.277c.431.231.616.985.616,2.478v1.339l-.723.4-.708.4-.339-.308a1.179,1.179,0,0,0-.508-.308c-.277,0-.385-.677-.308-1.908.077-1.185.308-1.708.923-2.047A.933.933,0,0,1,40.126,146.191Zm10.018,5.848c.446.246.369.816-.154,1.123a4.28,4.28,0,0,1-2.708.077.7.7,0,0,1-.308-1.154A7.091,7.091,0,0,1,50.143,152.039Zm34.916-11.387c-2.077.169-.185.292,4.232.292,3.862,0,4.463.031,4.57.231a.467.467,0,0,0,.292.246.748.748,0,0,1,.385.231c.292.277,1.031.308.954.031a.581.581,0,0,0-.431-.231,2.443,2.443,0,0,1-.846-.431c-.492-.369-.539-.369-4.324-.415-2.108-.015-4.278,0-4.832.046Zm-14.957.277a1.307,1.307,0,0,0-.031,2.416,1.079,1.079,0,0,0,1.077.046,1.194,1.194,0,0,0,.831-1.323A1.274,1.274,0,0,0,70.1,140.929Zm25.729.339c0,.077.108.154.231.154s.231-.077.231-.154c0-.092-.108-.154-.231-.154S95.831,141.175,95.831,141.267Zm13.588.477c-1.57.723-2.508,2.6-2.508,5.032,0,3.078,1.339,4.955,3.893,5.417a4.967,4.967,0,0,0,4.416-1.185,2.591,2.591,0,0,0,.769-2.585,1.325,1.325,0,0,0-1.4-1c-.692,0-.985.369-1.093,1.446-.108.954-.523,1.308-1.508,1.323a1.9,1.9,0,0,1-2-1.493,6.036,6.036,0,0,1,.092-3.97,2.016,2.016,0,0,1,1.954-1.262c.939.123,1.277.446,1.4,1.277a2.28,2.28,0,0,0,.354,1.016,1.555,1.555,0,0,0,1.754.031,9.125,9.125,0,0,0,.046-4.032.9.9,0,0,0-1.37-.031c-.354.385-.554.385-1.185,0A5.3,5.3,0,0,0,109.419,141.744Zm18.5-.062a1.881,1.881,0,0,0-1.246,1.57c-.108.785-.246.939-.846.939a.957.957,0,0,0-.908.816.866.866,0,0,0,.846.723c.723,0,.846.339.846,2.2,0,1.893-.185,2.416-.831,2.416-.477,0-.816.646-.616,1.2l.139.415,2.308.046c2.2.046,2.324.031,2.585-.292a1.3,1.3,0,0,0,.262-.616c0-.4-.585-.954-.877-.846-.539.215-.662-.185-.662-2.139a16.139,16.139,0,0,1,.092-2.139c.062-.169.292-.246.692-.246.785,0,1.17-.492.862-1.123-.154-.354-.277-.415-.846-.415-.769,0-.969-.292-.631-.908.292-.523.816-.539.877-.015a.931.931,0,0,0,.969.769c.569,0,.908-.446.908-1.2,0-.554-.062-.677-.569-1.031a2.491,2.491,0,0,0-1.739-.385A3.9,3.9,0,0,0,127.916,141.683Z" transform="translate(0 -76.748)"/>
    <path id="패스_21" data-name="패스 21" d="M346.687,166.385a3,3,0,0,0-1.185,1.847c-.077.4-.169.462-.662.508a.784.784,0,0,0-.723,1.17c.108.292.262.385.723.431l.585.046.046,2.185.046,2.185-.431.092c-.708.154-.893.308-.939.831-.092.877.062.939,2.6.939,2.17,0,2.293-.015,2.462-.323a1.508,1.508,0,0,0,.062-.846c-.092-.523-.185-.569-1.077-.708-.292-.046-.308-.185-.354-1.893-.062-2.478-.031-2.539.8-2.539.816,0,1.046-.246.985-1.016-.046-.539-.015-.6.4-.677a1.05,1.05,0,0,0,.723-.539c.246-.415.246-.523.046-1.016-.339-.8-.893-1.062-2.324-1.062A2.583,2.583,0,0,0,346.687,166.385Zm2.447,1.693c.108.339.215.631.215.646a2.381,2.381,0,0,1-.693.046c-.846,0-1-.246-.585-.923.369-.646.785-.554,1.062.231Zm-75.464-1.723a.782.782,0,0,0,.246,1.493c.769,0,.8.123.8,3.632v3.262l-.569.138a.91.91,0,0,0-.692,1.354l.185.385h2.293c2.57,0,2.678-.046,2.6-1.031-.046-.585-.092-.631-1.154-.908-.154-.046-.2-1-.2-4.124,0-3.062-.046-4.109-.185-4.186A10.023,10.023,0,0,0,273.669,166.354Z" transform="translate(-212.738 -101.327)"/>
    <path id="패스_22" data-name="패스 22" d="M226.6,183.207a3.847,3.847,0,0,0-2.6,4.016,3.67,3.67,0,0,0,1.323,3.2,4.411,4.411,0,0,0,5.386-.015c.539-.477.677-.692.677-1.093,0-1.062-1.108-1.354-2.016-.554-1.262,1.108-2.324.893-3.016-.646-.031-.046.062-.215.2-.339.2-.2.646-.246,2.462-.246h2.216l.169-.415a3.634,3.634,0,0,0-1.462-3.647A7.12,7.12,0,0,0,226.6,183.207Zm1.954,1.723c.616.369.692.862.169.985a4.6,4.6,0,0,1-1.2.046c-.708-.046-.831-.092-.877-.369-.062-.385.616-.985,1.093-.985a1.929,1.929,0,0,1,.816.323Zm21.374-1.754a3.366,3.366,0,0,0-.8.446c-.6.462-.862.462-1.046.015-.139-.308-.262-.339-1.416-.354-1.139-.031-1.293,0-1.6.339-.292.323-.308.4-.138.831a.891.891,0,0,0,.6.554,4.717,4.717,0,0,1,.6.154c.154.046.185.523.154,2.016l-.046,1.97-.415.046c-.4.046-1.2.662-1.2.923a1.574,1.574,0,0,0,.323.554c.308.4.339.4,2.37.4,1.631,0,2.077-.046,2.231-.231a.649.649,0,0,1,.385-.231.391.391,0,0,1,.292.231c.062.185.462.231,2.154.231,2.293,0,2.554-.092,2.554-.923a.677.677,0,0,0-.462-.692,2.118,2.118,0,0,0-.692-.231c-.2,0-.231-.292-.231-1.893,0-2.293-.231-3.155-1.031-3.755a2.094,2.094,0,0,0-1.4-.446A5.044,5.044,0,0,0,249.929,183.176Zm.769,2.154c.431.415.539.923.539,2.37v1.385l-.462.154c-.246.092-.462.231-.462.308,0,.369-1.231-.062-1.57-.554a7.372,7.372,0,0,1,.031-2.724C249.052,185.269,250.114,184.746,250.7,185.331Zm19.2-2.154a2.634,2.634,0,0,0-.954.692c-.646.646-.739.969-.646,2.277a1.863,1.863,0,0,0,1,1.416,11.6,11.6,0,0,0,1.693.492c1.308.308,1.4.354,1.447.739a.619.619,0,0,1-.339.662c-.616.415-1.385.185-2.231-.631-.785-.769-1.216-.939-1.693-.677-.292.154-.323.308-.323,1.477,0,1.216.031,1.308.354,1.431a.943.943,0,0,0,1.062-.262c.231-.2.308-.2.615,0a4.4,4.4,0,0,0,1.154.415c2.554.616,4.817-1.585,3.755-3.647-.369-.723-.862-.985-2.478-1.339a7.253,7.253,0,0,1-1.493-.431c-.323-.231-.231-.692.185-.969.477-.308.831-.185,1.647.569.708.662,1.308.785,1.693.323a3.312,3.312,0,0,0-.031-2.493.845.845,0,0,0-1.046.092c-.323.215-.4.215-.969,0A4.919,4.919,0,0,0,269.9,183.176Zm20.574.031a3.338,3.338,0,0,0-2.447,3.108,5.171,5.171,0,0,0,.554,3.4c1.17,1.877,4.586,2.185,6.217.569,1.293-1.277,1.431-4.232.277-5.848a3.236,3.236,0,0,0-2.893-1.308A7.073,7.073,0,0,0,290.478,183.207Zm2.493,2.17a4.487,4.487,0,0,1,.108,3.416,2.081,2.081,0,0,1-1.308.739,1.788,1.788,0,0,1-.769-.523c-.508-.508-.523-.554-.523-1.816,0-1.37.185-1.862.831-2.139A1.757,1.757,0,0,1,292.971,185.377Zm17.435-2.154a4.548,4.548,0,0,0-2.108,1.908,3.814,3.814,0,0,0-.339,2.093c-.015,1.416.015,1.508.508,2.293a4.767,4.767,0,0,0,1.093,1.169c1.77,1.108,4.617.723,5.524-.754.4-.646.4-.877.015-1.293a1.211,1.211,0,0,0-1.77.092,3.023,3.023,0,0,1-.954.631,1.057,1.057,0,0,1-1.077-.077c-.708-.354-1.123-1.016-.877-1.4.154-.246.462-.277,2.37-.323a8.688,8.688,0,0,0,2.416-.215,1.6,1.6,0,0,0,.185-1.031,3.2,3.2,0,0,0-1.323-2.693,2.7,2.7,0,0,0-1.924-.492A7.386,7.386,0,0,0,310.405,183.223Zm2.139,1.708a.784.784,0,0,1,.369.662c-.046.292-.138.323-1.2.323-1.077,0-1.154-.031-1.2-.339-.031-.246.092-.431.462-.662A1.172,1.172,0,0,1,312.544,184.931Zm6.186-1.708a4.093,4.093,0,0,0-2.047,1.677c-.385.646-.431.831-.431,2.324.015,1.493.046,1.662.431,2.277a4.566,4.566,0,0,0,5.663,1.323.772.772,0,0,1,.416-.215c.108,0,.323-.231.492-.508.862-1.416-.354-2.4-1.677-1.354-.923.739-1.308.862-1.893.615a1.514,1.514,0,0,1-1.046-1.139c0-.615.277-.692,2.431-.692a12.169,12.169,0,0,0,2.354-.154c.231-.138.292-.339.292-1.016a3.448,3.448,0,0,0-1.585-2.878,6.586,6.586,0,0,0-3.4-.262Zm2.262,1.862c.569.708.2.969-1.293.877-.708-.046-.831-.092-.877-.369-.031-.215.108-.446.385-.677A1.327,1.327,0,0,1,320.993,185.085Zm-81.543-1.647c-.169.123-.215.369-.185.785.046.616.092.646,1.17.939.138.031.185.569.185,1.954,0,2.031-.046,2.185-.769,2.293a.9.9,0,0,0-.631,1.246l.169.431,2.416-.046,2.431-.046.138-.431a1,1,0,0,0-.754-1.339l-.462-.077-.077-2.8a21.435,21.435,0,0,0-.2-2.924A9.891,9.891,0,0,0,239.45,183.438Zm17.881.077a.937.937,0,0,0,.6,1.585c.585.062.646.339.677,2.985l.015,2,.508.477a3.1,3.1,0,0,0,3.909.077l.508-.369.154.4c.138.385.169.4,1.585.4,1.2,0,1.493-.046,1.693-.277a.889.889,0,0,0-.569-1.508,2.724,2.724,0,0,1-.585-.154,18.268,18.268,0,0,1-.123-2.831c0-2.031-.046-2.785-.185-2.878a7.175,7.175,0,0,0-1.6-.154c-1.308-.031-1.431-.015-1.754.339-.323.339-.339.415-.154.846a.891.891,0,0,0,.6.554c.862.185.831.123.754,1.754-.077,1.877-.323,2.354-1.308,2.431-1.062.077-1.123-.077-1.123-2.939a14.94,14.94,0,0,0-.154-2.724c-.108-.169-.508-.231-1.662-.262C257.808,183.238,257.547,183.284,257.331,183.515Z" transform="translate(-171.102 -115.779)"/>
  </g>
</svg>
