<svg xmlns="http://www.w3.org/2000/svg" width="90.09" height="31.076" viewBox="0 0 90.09 31.076">
  <g id="subsi2" transform="translate(-0.275 -0.151)">
    <path id="패스_23" data-name="패스 23" d="M72.533,28.727v.024a2.512,2.512,0,0,1-2.547,2.475H20.827a2.512,2.512,0,0,1-2.547-2.475v-.022H9.933l-.2,0h-.05a3.356,3.356,0,0,1-3.692-2.8C3.833,16.644,1.226,5.5.3,1.561A1.087,1.087,0,0,1,1.484.232l43.58,4.984L89.155.158a1.088,1.088,0,0,1,1.18,1.329q-2.855,12.208-5.7,24.438a3.351,3.351,0,0,1-3.689,2.8H72.533Zm-.025-1.56h8.346c1.343.012,1.953-.359,2.24-1.591,2.719-11.682,5.545-23.793,5.545-23.793l-43.6,5L1.942,1.856s2.82,12.038,5.539,23.72c.287,1.232.9,1.6,2.24,1.591l.183,0h8.4a2.525,2.525,0,0,1,2.522-2.131H69.985a2.525,2.525,0,0,1,2.523,2.129Z" fill="#006938" fill-rule="evenodd"/>
    <path id="패스_24" data-name="패스 24" d="M44.211,53.415a.949.949,0,0,0,0-1.9h-.449v1.9Zm-1.178-2.5a.088.088,0,0,1,.084-.089h1.141a1.64,1.64,0,1,1,0,3.279H43.117a.087.087,0,0,1-.084-.088Z" transform="translate(-20.532 -24.335)" fill="#fff" fill-rule="evenodd"/>
    <path id="패스_25" data-name="패스 25" d="M44.211,53.372a.949.949,0,0,0,0-1.9h-.449v1.9h.449Zm-1.178-2.5a.088.088,0,0,1,.084-.089h1.141a1.64,1.64,0,1,1,0,3.279H43.117a.087.087,0,0,1-.084-.088Zm7.036,2.488a.937.937,0,1,0-.93-.932.938.938,0,0,0,.93.932m0-2.623a1.678,1.678,0,1,1-1.191.5,1.682,1.682,0,0,1,1.191-.5" transform="translate(-20.532 -24.292)" fill="#fff" fill-rule="evenodd"/>
    <path id="패스_26" data-name="패스 26" d="M55.017,53.363a.937.937,0,1,0-.93-.932A.938.938,0,0,0,55.017,53.363Zm0-2.623a1.678,1.678,0,1,1-1.191.5,1.682,1.682,0,0,1,1.191-.5Zm4.342.135a.092.092,0,0,1,.089-.088h.575a.088.088,0,0,1,.088.088v1.9a.58.58,0,1,0,1.16,0v-1.9a.088.088,0,0,1,.089-.089h.575a.091.091,0,0,1,.088.089V52.81a1.333,1.333,0,0,1-2.665,0V50.875Z" transform="translate(-25.481 -24.292)" fill="#fff" fill-rule="evenodd"/>
    <path id="패스_27" data-name="패스 27" d="M64.921,50.879a.092.092,0,0,1,.089-.088h.575a.088.088,0,0,1,.088.088v1.9a.58.58,0,1,0,1.16,0v-1.9a.088.088,0,0,1,.089-.089H67.5a.091.091,0,0,1,.088.089v1.935a1.333,1.333,0,0,1-2.665,0Zm7-.13a1.8,1.8,0,0,1,1.141.44.083.083,0,0,1,.009.127l-.369.394a.1.1,0,0,1-.126,0,.855.855,0,0,0-.612-.226.94.94,0,0,0,0,1.879,1.1,1.1,0,0,0,.416-.075v-.272H72.09A.085.085,0,0,1,72,52.936v-.464a.086.086,0,0,1,.088-.089h.941a.088.088,0,0,1,.083.089l.005,1.261a.113.113,0,0,1-.037.075,2.359,2.359,0,0,1-1.159.3,1.682,1.682,0,1,1,0-3.364" transform="translate(-31.043 -24.297)" fill="#fff" fill-rule="evenodd"/>
    <path id="패스_28" data-name="패스 28" d="M76.837,50.749a1.8,1.8,0,0,1,1.141.44.083.083,0,0,1,.009.127l-.369.394a.1.1,0,0,1-.126,0,.855.855,0,0,0-.612-.226.94.94,0,0,0,0,1.879,1.1,1.1,0,0,0,.416-.075v-.272h-.294a.085.085,0,0,1-.089-.084v-.464a.086.086,0,0,1,.088-.089h.941a.088.088,0,0,1,.083.089l.005,1.261a.113.113,0,0,1-.037.075,2.359,2.359,0,0,1-1.159.3,1.682,1.682,0,1,1,0-3.364Zm4.006.13a.092.092,0,0,1,.089-.088h.556a.088.088,0,0,1,.089.088V52.06h1.337V50.879A.088.088,0,0,1,83,50.791h.557a.091.091,0,0,1,.088.088v3.1a.092.092,0,0,1-.088.089H83a.088.088,0,0,1-.088-.089V52.749H81.577v1.232a.088.088,0,0,1-.088.089h-.557a.092.092,0,0,1-.089-.089Z" transform="translate(-35.959 -24.297)" fill="#fff" fill-rule="evenodd"/>
    <path id="패스_29" data-name="패스 29" d="M86.094,50.875a.092.092,0,0,1,.089-.088h.556a.088.088,0,0,1,.089.088v1.181h1.337V50.875a.088.088,0,0,1,.088-.088h.557a.091.091,0,0,1,.088.088v3.1a.092.092,0,0,1-.088.089h-.557a.088.088,0,0,1-.088-.089V52.744H86.828v1.232a.088.088,0,0,1-.088.089h-.557a.092.092,0,0,1-.089-.089Zm5.724-.051a.088.088,0,0,1,.088-.084h.117l1.865,1.8h.005V50.876a.088.088,0,0,1,.088-.089h.561a.091.091,0,0,1,.088.088v3.154a.087.087,0,0,1-.088.083h-.075a.142.142,0,0,1-.061-.022l-1.847-1.861h0v1.748a.088.088,0,0,1-.088.089h-.557a.093.093,0,0,1-.089-.088l-.005-3.154Z" transform="translate(-41.21 -24.292)" fill="#fff" fill-rule="evenodd"/>
    <path id="패스_30" data-name="패스 30" d="M97.106,50.823a.088.088,0,0,1,.088-.084h.117l1.865,1.8h.005V50.876a.088.088,0,0,1,.088-.089h.561a.091.091,0,0,1,.088.088v3.154a.087.087,0,0,1-.088.083h-.075a.142.142,0,0,1-.061-.022l-1.847-1.861h0v1.748a.088.088,0,0,1-.088.089H97.2a.093.093,0,0,1-.089-.088l-.005-3.154Zm5.7.051a.092.092,0,0,1,.089-.088h.575a.088.088,0,0,1,.088.088v1.9a.58.58,0,1,0,1.16,0v-1.9a.088.088,0,0,1,.088-.089h.575a.092.092,0,0,1,.089.089V52.81a1.333,1.333,0,0,1-2.666,0Z" transform="translate(-46.497 -24.292)" fill="#fff" fill-rule="evenodd"/>
    <path id="패스_31" data-name="패스 31" d="M108.075,50.918a.092.092,0,0,1,.089-.088h.575a.088.088,0,0,1,.088.088v1.9a.58.58,0,1,0,1.16,0v-1.9a.088.088,0,0,1,.088-.089h.575a.092.092,0,0,1,.089.089v1.935a1.333,1.333,0,0,1-2.666,0Zm5.954.6h-.669a.089.089,0,0,1-.088-.089v-.511a.088.088,0,0,1,.088-.089h2.077a.088.088,0,0,1,.088.089v.511a.088.088,0,0,1-.088.089h-.668v2.5a.092.092,0,0,1-.089.088h-.56a.092.092,0,0,1-.089-.088v-2.5Z" transform="translate(-51.765 -24.335)" fill="#fff" fill-rule="evenodd"/>
    <path id="패스_32" data-name="패스 32" d="M118.83,51.475h-.669a.089.089,0,0,1-.088-.089v-.511a.088.088,0,0,1,.088-.089h2.077a.088.088,0,0,1,.088.089v.511a.088.088,0,0,1-.088.089h-.668v2.5a.092.092,0,0,1-.089.088h-.56a.092.092,0,0,1-.089-.088v-2.5Zm3.962,2.146.22-.389a.12.12,0,0,1,.159-.028,1.4,1.4,0,0,0,.664.257.293.293,0,0,0,.323-.281c0-.2-.164-.347-.482-.473-.4-.16-.907-.474-.907-1.036a.971.971,0,0,1,1.08-.931,1.736,1.736,0,0,1,1,.351.119.119,0,0,1,.029.15l-.239.361c-.032.051-.116.094-.158.061a1.465,1.465,0,0,0-.669-.281.271.271,0,0,0-.295.239c0,.173.14.3.51.454s.944.431.944,1.068a1.028,1.028,0,0,1-1.1.97,1.48,1.48,0,0,1-1.052-.361c-.047-.047-.061-.065-.023-.131" transform="translate(-56.566 -24.292)" fill="#fff" fill-rule="evenodd"/>
    <path id="패스_33" data-name="패스 33" d="M127.131,53.621l.22-.389a.12.12,0,0,1,.159-.028,1.4,1.4,0,0,0,.664.257.293.293,0,0,0,.323-.281c0-.2-.164-.347-.482-.473-.4-.16-.907-.474-.907-1.036a.971.971,0,0,1,1.08-.931,1.736,1.736,0,0,1,1,.351.119.119,0,0,1,.029.15l-.239.361c-.032.051-.116.094-.158.061a1.465,1.465,0,0,0-.669-.281.271.271,0,0,0-.295.239c0,.173.14.3.51.454s.944.431.944,1.068a1.028,1.028,0,0,1-1.1.97,1.48,1.48,0,0,1-1.052-.361c-.047-.047-.061-.065-.023-.131Z" transform="translate(-60.904 -24.292)" fill="#fff" fill-rule="evenodd"/>
    <path id="패스_34" data-name="패스 34" d="M166.107,52.482c-.1.018-.2.019-.314.029v-.372c.109,0,.2-.005.3,0a.145.145,0,0,1,.142.154c.005.094-.027.171-.126.188m.35-.258a.285.285,0,0,0-.264-.247c-.2-.016-.409,0-.625,0V53.1h.211V52.7c.437-.024.406-.04.5.42l.179-.011c-.014-.206.017-.4-.187-.526a.3.3,0,0,0,.191-.355" transform="translate(-79.373 -24.882)" fill="#006938" fill-rule="evenodd"/>
    <path id="패스_35" data-name="패스 35" d="M165.413,52.986a.878.878,0,1,1,.861-.882.858.858,0,0,1-.861.882m.005-1.924a1.038,1.038,0,0,0-1.06,1.029,1.051,1.051,0,1,0,1.06-1.029" transform="translate(-78.792 -24.446)" fill="#006938" fill-rule="evenodd"/>
    <path id="패스_36" data-name="패스 36" d="M72.751,21.678c.369,0,.378.51.356.834a2.067,2.067,0,0,1-1.858,2.032c.162-1.453.8-2.867,1.5-2.867m15.454,0c.265,0,.337.343.342.577a2.089,2.089,0,0,1-1.862,2.289c.162-1.453.769-2.866,1.52-2.866M66.626,18.093A8.422,8.422,0,0,0,60,21.234a2.625,2.625,0,0,1,1.564-.519,1.246,1.246,0,0,1,1.321,1.262c.037,2.032-1.223,4.347-1.206,5.24,0,.252.1.463.4.463.333,0,.772-.315,1.279-1.467C63.883,25,64.444,23.4,64.98,21.758a1.344,1.344,0,0,1-.919-1.236.966.966,0,0,1,1.052-.937.98.98,0,0,1,1,1.254,8.2,8.2,0,0,0,2.694.152.159.159,0,0,1,.147.219l-.05.127c-1.144,3.485-1.156,5.179-.436,5.179a1.293,1.293,0,0,0,.963-.619,5.217,5.217,0,0,1-.055-.665c-.028-1.468.948-4.4,3.356-4.4a1.627,1.627,0,0,1,1.781,1.747c.028,1.493-1.395,2.622-3.285,2.622-.06.739.324,1.629,1.06,1.629.794,0,1.852-.193,2.809-2.474.027-.093.9-3.319.9-3.319a.16.16,0,0,1,.154-.12h1.5a.172.172,0,0,1,.161.217l-.2.738a2.871,2.871,0,0,1,2.016-1.035c1.031,0,1.085.745,1.13,1.178a3,3,0,0,1,2.208-1.178,1.118,1.118,0,0,1,1.215,1.17c.019,1.005-.58,2.514-.711,3.832-.048.473.043.884.412.884a1.5,1.5,0,0,0,1.011-.615,8.018,8.018,0,0,1-.085-.924c-.035-1.907,1.218-4.351,3.419-4.351a1.635,1.635,0,0,1,1.736,1.778c.019,1.1-1.021,2.591-3.3,2.591a1.564,1.564,0,0,0-.01.218c.01.572.311,1.407,1.112,1.407a2.15,2.15,0,0,0,1.814-.944.188.188,0,0,1,.234-.019,2.155,2.155,0,0,1,.238.166.219.219,0,0,1,.028.273,3.373,3.373,0,0,1-2.881,1.688,2.054,2.054,0,0,1-2.058-1.19,2.654,2.654,0,0,1-2.157,1.182c-1.316,0-1.946-.758-1.271-3.323.113-.43.5-1.906.513-1.962.066-.287-.04-.422-.226-.422a2.021,2.021,0,0,0-1.374,1.136L79.5,27.789a.16.16,0,0,1-.153.12H77.758a.171.171,0,0,1-.162-.215l1.3-5c.069-.3-.046-.421-.241-.421a1.9,1.9,0,0,0-1.371,1.135L76.1,27.789a.16.16,0,0,1-.154.12H74.366a.172.172,0,0,1-.161-.216l.282-1.022a3.313,3.313,0,0,1-2.749,1.315,2.269,2.269,0,0,1-2.075-1.339,3.013,3.013,0,0,1-2.36,1.34c-1.09,0-1.4-1.007-1.39-1.927a8.332,8.332,0,0,1,.319-1.84q.263-1.07.535-2.138a7.494,7.494,0,0,1-.942-.127c-.234.773-1.5,4.463-1.829,5.082-.776,1.483-1.419,2.246-2.884,2.246a1.867,1.867,0,0,1-1.9-2.516,39.48,39.48,0,0,0,1-3.91.427.427,0,0,0-.484-.411c-.685,0-1.5,1.025-2.059,2.584-.009.028-.878,3.1-1.092,3.863a.172.172,0,0,1-.166.129H54.243a.186.186,0,0,1-.175-.237s3.062-11.3,3.086-11.472a1.057,1.057,0,0,0-.856-1.468c-.135-.027-.182-.235-.055-.285,1.159-.447,3.475-.345,3.512,1.674a19.6,19.6,0,0,1-1.1,4.22c.761-.979,4.052-5.649,7.934-5.649l23.258,0c.6,0,1.545,0,1.82-.405.1-.145.341-.005.362.171.006.052.011.155.011.155a2.28,2.28,0,0,1-2.25,2.365H66.625Zm-30.75,0a2.037,2.037,0,0,0,.357-1.143,1.929,1.929,0,0,0-.364-1.142H52.743c.6,0,1.468.115,1.82-.406.1-.145.34-.005.362.172.006.05.01.154.01.154a2.277,2.277,0,0,1-2.249,2.365H35.876Zm-1.608,0A1.144,1.144,0,1,1,35.4,16.95,1.139,1.139,0,0,1,34.268,18.094Zm18.791,2.745a.178.178,0,0,1,.167.225l-1.98,7.348,1.188.33c.086.024.117.151.094.239l-.1.312a.154.154,0,0,1-.187.112c-.205-.053-.947-.252-1.229-.3C50.579,30.116,49.972,31.43,48,31.43c-.854,0-1.637-.507-1.651-1.212-.019-1.029,1.266-1.977,2.983-1.977.074-.192.28-.946.28-.946a1.978,1.978,0,0,1-1.608.693,1.5,1.5,0,0,1-1.381-1.434,4.755,4.755,0,0,1-3.51,1.438h-.006c-.927,0-1.364-.2-1.614-.566L40.763,30.2a.176.176,0,0,1-.168.132H39.047a.186.186,0,0,1-.176-.237l.7-2.618.133-.494a6.05,6.05,0,0,1-3.092,1c-.085.005-.172.008-.262.008a2.114,2.114,0,0,1-1.947-.881,2.535,2.535,0,0,1-1.768.89,1.542,1.542,0,0,1-1.252-.528,1.2,1.2,0,0,1-.217-.45c-.037.047-.074.094-.113.14a2.346,2.346,0,0,1-1.83.845c-1.181,0-1.485-1.152-1.471-1.95a8.312,8.312,0,0,1,.319-1.84q.266-1.071.541-2.14a7.671,7.671,0,0,1-.946-.125c-.234.772-1.285,3.909-1.831,5.082-.486,1.045-1.093,2.244-2.735,2.244a1.93,1.93,0,0,1-2.05-2.5c.29-1.092.557-2.1.866-3.163.153-.526.321-1.178-.348-1.178-.759,0-1.557,1.186-2.059,2.584-.01.028-.879,3.1-1.092,3.864a.173.173,0,0,1-.166.129H16.083a.186.186,0,0,1-.175-.237s3.062-11.3,3.085-11.473a1.057,1.057,0,0,0-.856-1.467c-.134-.026-.182-.236-.056-.286,1.16-.447,3.475-.344,3.512,1.674a19.512,19.512,0,0,1-1.1,4.22c.761-.98,3.98-5.649,7.862-5.649l4.3,0a1.955,1.955,0,0,0-.364,1.143,2.005,2.005,0,0,0,.359,1.143h-4.27a8.179,8.179,0,0,0-6.552,3.14,2.525,2.525,0,0,1,1.6-.522,1.3,1.3,0,0,1,1.3,1.364c.013,1.724-1.215,4.451-1.2,5.069.005.252.047.543.36.543.479,0,.96-.68,1.123-1.028a51.594,51.594,0,0,0,1.825-4.912,1.474,1.474,0,0,1-.921-1.021.975.975,0,0,1,.99-1.144,1,1,0,0,1,1.072,1.254,8.132,8.132,0,0,0,2.679.149.16.16,0,0,1,.147.218l-.05.127c-1.1,3.345-1.128,5.184-.415,5.184.4,0,.91-.489,1.076-1.092q.566-2.1,1.127-4.2l.082-.278a.152.152,0,0,1,.146-.109h1.6a.161.161,0,0,1,.151.2l-1.157,4.289a.605.605,0,0,1-.016.08c-.239.921-.161,1.358.087,1.358a.929.929,0,0,0,.668-.424,1.049,1.049,0,0,1,.844-1.317c.817-1.352,2.181-3.845,2.573-4.494a.32.32,0,0,1,.281-.151h.865a.134.134,0,0,1,.091.217,1.615,1.615,0,0,0-.25.938c.019,1,.593,2.41.619,3.843a2.942,2.942,0,0,1-.3,1.322,3.994,3.994,0,0,0,.508-.3,2.189,2.189,0,0,0,.839-1.182l1.075-4,.082-.271a.161.161,0,0,1,.154-.116h1.479a.174.174,0,0,1,.162.218l-.148.547a2.028,2.028,0,0,1,1.593-.849c1.386,0,1.8,1.563,1.426,3.451a7.451,7.451,0,0,1-.96,2.573,3.715,3.715,0,0,0,.8-.436A2.87,2.87,0,0,0,46.87,24.89c.107-.392.232-.816.343-1.27l.644-2.394.08-.266a.167.167,0,0,1,.16-.121h1.568a.177.177,0,0,1,.167.224L48.57,25.7c-.111.494-.054,1.078.406,1.078s.912-.607,1.256-1.78l1.1-4.031a.166.166,0,0,1,.16-.125h1.565Zm-5.268,9.543c.681,0,.936-.543,1.288-1.41-.668.035-1.682.4-1.67,1.074A.355.355,0,0,0,47.791,30.381ZM44.17,23.44c.167-1.016-.094-1.392-.425-1.392-.652,0-1.02.783-1.227,1.546-.064.236-.284,1.1-.542,2.056-.194.715-.008,1.217.458,1.217.872,0,1.433-1.579,1.736-3.427Zm-7.917,3.753c.546,0,1.075-.691,1.058-1.637a11.16,11.16,0,0,0-.343-2.7c-.106.242-1.138,2.126-1.311,2.392a.99.99,0,0,1,.377.8c.009.515-.3.647-.3.861,0,.139.247.285.517.285Z" transform="translate(-7.504 -7.295)" fill="#cd0f2a" fill-rule="evenodd"/>
  </g>
</svg>
