<svg xmlns="http://www.w3.org/2000/svg" width="27.396" height="19.178" viewBox="0 0 27.396 19.178">
  <path id="sns_youtube" d="M158.434,236.245a3.432,3.432,0,0,0-2.422-2.422c-2.137-.573-10.7-.573-10.7-.573s-8.568,0-10.7.573a3.434,3.434,0,0,0-2.423,2.422,38.31,38.31,0,0,0,0,13.19,3.429,3.429,0,0,0,2.423,2.422c2.137.572,10.7.572,10.7.572s8.567,0,10.7-.572a3.432,3.432,0,0,0,2.422-2.422,38.31,38.31,0,0,0,0-13.19Zm-15.866,10.7v-8.22l7.118,4.111Z" transform="translate(-131.61 -233.25)" fill="#fff" opacity="0.6"/>
</svg>
