<svg xmlns="http://www.w3.org/2000/svg" width="27.312" height="22.975" viewBox="0 0 27.312 22.975">
  <g id="sns_blog" transform="translate(0 0)" opacity="0.6">
    <path id="패스_94" data-name="패스 94" d="M145.028,288.29H126.344a4.321,4.321,0,0,0-4.314,4.329v10.27a4.321,4.321,0,0,0,4.314,4.329h6.436l2.2,3.576a.957.957,0,0,0,.071.1.736.736,0,0,0,1.274,0,.529.529,0,0,0,.074-.107l2.2-3.576h6.436a4.321,4.321,0,0,0,4.314-4.329v-10.27A4.321,4.321,0,0,0,145.028,288.29Z" transform="translate(-122.03 -288.29)" fill="#fff"/>
    <g id="그룹_25" data-name="그룹 25" transform="translate(2.971 5.375)">
      <g id="그룹_24" data-name="그룹 24" transform="translate(0 0)">
        <path id="패스_95" data-name="패스 95" d="M148.445,333.7a2.222,2.222,0,0,0-1.422.659V331.71H145.35v6.966h1.689v-.545a1.6,1.6,0,0,0,1.4.72,2.464,2.464,0,0,0,2.357-2.6S150.715,333.7,148.445,333.7Zm-.368,3.677a1.075,1.075,0,1,1,1.074-1.075A1.075,1.075,0,0,1,148.076,337.379Z" transform="translate(-145.35 -331.553)" fill="#242d36"/>
        <path id="패스_96" data-name="패스 96" d="M192.35,330.48v1.612s.763-.034.763,1.386V337.6h1.612v-4.5S194.794,330.48,192.35,330.48Z" transform="translate(-186.362 -330.48)" fill="#242d36"/>
        <path id="패스_97" data-name="패스 97" d="M223,347.52s-2.763,0-2.763,2.58A2.5,2.5,0,0,0,223,352.645s2.827,0,2.827-2.545A2.542,2.542,0,0,0,223,347.52Zm0,3.655a1.075,1.075,0,1,1,1.074-1.075A1.075,1.075,0,0,1,223,351.175Z" transform="translate(-210.697 -345.349)" fill="#242d36"/>
        <path id="패스_98" data-name="패스 98" d="M274.518,347.686v.468a1.826,1.826,0,0,0-1.4-.637,2.306,2.306,0,0,0-2.366,2.562s-.027,2.48,2.3,2.48a1.913,1.913,0,0,0,1.468-.637v.39s.117,1.222-1.065,1.222h-.4v1.482h.65a2.427,2.427,0,0,0,2.443-2.612v-4.718Zm-1,3.486a1.075,1.075,0,1,1,1.074-1.075A1.074,1.074,0,0,1,273.518,351.172Z" transform="translate(-254.774 -345.346)" fill="#242d36"/>
      </g>
    </g>
  </g>
</svg>
