<svg xmlns="http://www.w3.org/2000/svg" width="21.608" height="21.595" viewBox="0 0 21.608 21.595">
  <g id="sns_insta" transform="translate(0)" opacity="0.6">
    <g id="그룹_19" data-name="그룹 19" transform="translate(0 0)">
      <path id="SVGID_1_" d="M12.628,9.074a7.768,7.768,0,0,0-2.624.5,5.444,5.444,0,0,0-1.9,1.251A5.183,5.183,0,0,0,6.864,12.74a8.083,8.083,0,0,0-.5,2.624c-.049,1.153-.061,1.521-.061,4.452s.025,3.3.074,4.452a7.626,7.626,0,0,0,.5,2.612,5.379,5.379,0,0,0,1.251,1.913,5.183,5.183,0,0,0,1.913,1.239,8.082,8.082,0,0,0,2.624.5c1.153.049,1.521.061,4.452.061s3.3-.012,4.452-.074a7.768,7.768,0,0,0,2.624-.5A5.379,5.379,0,0,0,26.1,28.768a5.183,5.183,0,0,0,1.239-1.913,8.083,8.083,0,0,0,.5-2.624c.049-1.153.061-1.521.061-4.452s-.012-3.3-.074-4.452a7.769,7.769,0,0,0-.5-2.624A5.379,5.379,0,0,0,26.08,10.79a5.183,5.183,0,0,0-1.913-1.239,8.082,8.082,0,0,0-2.624-.5C20.378,9.012,20.01,9,17.079,9s-3.3.025-4.452.074m.123,19.511a5.988,5.988,0,0,1-2-.368A3.607,3.607,0,0,1,8.7,26.168a5.975,5.975,0,0,1-.38-2c-.049-1.14-.061-1.484-.074-4.366s0-3.225.049-4.366a5.988,5.988,0,0,1,.368-2,3.607,3.607,0,0,1,2.048-2.048,6.314,6.314,0,0,1,2-.38c1.14-.049,1.484-.061,4.353-.074s3.225,0,4.366.049a5.988,5.988,0,0,1,2,.368,3.246,3.246,0,0,1,1.239.809A3.342,3.342,0,0,1,25.48,13.4a6.314,6.314,0,0,1,.38,2c.049,1.14.061,1.484.074,4.353s0,3.225-.049,4.366a6.157,6.157,0,0,1-.368,2.011,3.607,3.607,0,0,1-2.048,2.048,6.314,6.314,0,0,1-2,.38c-1.14.049-1.484.061-4.366.074s-3.213,0-4.353-.049m8.8-14.556a1.294,1.294,0,1,0,1.288-1.3,1.3,1.3,0,0,0-1.288,1.3M11.561,19.8a5.543,5.543,0,1,0,5.531-5.555A5.537,5.537,0,0,0,11.561,19.8m1.938,0A3.6,3.6,0,1,1,17.1,23.4,3.609,3.609,0,0,1,13.5,19.8" transform="translate(-6.3 -9)" fill="#fff"/>
    </g>
  </g>
</svg>
